<svg width="24" height="24" viewBox="0 0 24 24" fill="none" xmlns="http://www.w3.org/2000/svg">
<g clip-path="url(#clip0_2391_29571)">
<path d="M17.5071 7.67792C17.0069 7.13187 16.2293 6.39486 15.8985 8.05901C15.786 8.62484 15.5232 9.06101 15.298 9.4122C15.0552 8.18351 14.3248 6.91175 13.6366 6.05426C13.3791 5.73345 12.4653 4.45812 12.2897 2.32456C12.2635 2.00614 11.8853 1.85661 11.6487 2.07139C9.38785 4.12376 8.14688 6.94648 8.1008 10.1243C8.1008 10.1243 7.15936 9.33073 6.64791 7.85445C6.51019 7.4569 5.97722 7.38106 5.74599 7.73257C5.70288 7.7981 5.66196 7.86504 5.62331 7.93329C3.87895 11.0177 3.03984 14.7632 3.81558 18.2479C5.11261 24.0837 13.6923 25.7152 18.2345 22.0473C22.6785 18.4587 21.2658 11.7796 17.5071 7.67792Z" fill="#ED694A"/>
<path d="M5.02284 18.6156C4.25611 15.0936 5.0677 11.3116 6.77109 8.17894C6.72682 8.07247 6.68572 7.9647 6.64786 7.85578C6.51014 7.45824 5.97717 7.38239 5.74594 7.73391C5.70285 7.79944 5.66195 7.86638 5.62331 7.93463C3.87895 11.019 3.03984 14.7646 3.81558 18.2492C4.40719 20.9111 6.51413 22.6977 9.06183 23.5062C7.07433 22.5435 5.51789 20.893 5.02284 18.6156ZM9.31402 10.0671C9.40819 7.18299 10.4513 4.59689 12.3184 2.61024C12.3073 2.51658 12.2978 2.42273 12.2899 2.32875C12.2631 2.00761 11.8987 1.84655 11.6632 2.05946C9.47949 4.03374 8.14852 6.82791 8.10075 10.1255L8.50945 10.4429C8.71074 10.5992 8.98345 10.5924 9.17569 10.4492C9.29039 10.352 9.30684 10.2053 9.31402 10.0671Z" fill="#D8553A"/>
<path d="M16.1356 11.944C15.7663 11.5407 15.1919 10.9963 14.9476 12.2255C14.8645 12.6434 14.6703 12.9656 14.5041 13.225C14.3248 12.3175 13.7852 11.3781 13.2769 10.7448C13.0867 10.5078 12.4118 9.56585 12.2821 7.98987C12.2627 7.75465 11.9834 7.64426 11.8087 7.80288C10.1387 9.31877 9.22209 11.4038 9.18811 13.7509C9.18811 13.7509 8.49272 13.1648 8.115 12.0744C8.01328 11.7807 7.61958 11.7247 7.44881 11.9844C7.41697 12.0328 7.38675 12.0822 7.3582 12.1326C6.06975 14.4108 5.44997 17.1773 6.02292 19.7512C6.98095 24.0617 13.3181 25.2668 16.673 22.5575C19.9554 19.907 18.912 14.9736 16.1356 11.944Z" fill="#F4A32C"/>
<path d="M7.21781 20.0894C6.71053 17.5733 7.23595 14.8735 8.34994 12.6254C8.25897 12.4474 8.18045 12.2633 8.11495 12.0745C8.01323 11.7808 7.61953 11.7248 7.44877 11.9844C7.41692 12.0328 7.3867 12.0823 7.35816 12.1327C6.06975 14.4109 5.45002 17.1774 6.02287 19.7513C6.46847 21.756 8.07773 23.0886 10.0092 23.6685C8.63691 22.9803 7.55644 21.7712 7.21781 20.0894Z" fill="#E89528"/>
<path d="M14.8834 15.84C14.6334 15.567 14.2445 15.1984 14.0791 16.0305C14.0229 16.3135 13.8915 16.5315 13.7789 16.7071C13.6575 16.0927 13.2923 15.4569 12.9481 15.0281C12.8194 14.8677 12.3625 14.2301 12.2747 13.1633C12.2616 13.004 12.0725 12.9293 11.9542 13.0367C10.8238 14.0629 10.2033 15.4743 10.1803 17.0631C10.1803 17.0631 9.7095 16.6663 9.45384 15.9282C9.38498 15.7295 9.1185 15.6916 9.00291 15.8673C8.98134 15.9001 8.96088 15.9335 8.94155 15.9677C8.06939 17.5098 7.64981 19.3826 8.03766 21.125C8.68617 24.0429 12.976 24.8587 15.2471 23.0247C16.0248 22.3967 16.507 21.5117 16.6048 20.5328C16.7524 19.0502 16.1818 17.2568 14.8834 15.84Z" fill="#F4D44E"/>
<path d="M13.7228 19.4531C13.5835 19.301 13.3669 19.0957 13.2748 19.5593C13.2435 19.7169 13.1702 19.8384 13.1075 19.9362C13.0398 19.5939 12.8364 19.2397 12.6447 19.0008C12.573 18.9114 12.3184 18.5562 12.2694 17.9618C12.2621 17.8731 12.1568 17.8315 12.0909 17.8913C11.4611 18.463 11.1154 19.2494 11.1026 20.1346C11.1026 20.1346 10.8403 19.9135 10.6979 19.5023C10.6595 19.3915 10.511 19.3703 10.4467 19.4683C10.4343 19.4871 10.4228 19.506 10.4125 19.5242C9.92663 20.3835 9.69287 21.4268 9.90896 22.3975C10.4011 24.6115 14.4346 24.5444 14.682 22.0676C14.7641 21.2416 14.4462 20.2424 13.7228 19.4531Z" fill="#EAE9E8"/>
<path d="M10.8455 22.8368C10.6294 21.9685 10.8631 21.0352 11.3491 20.2666C11.3594 20.2502 11.3709 20.2334 11.3832 20.2166C11.4476 20.129 11.596 20.1479 11.6344 20.2469C11.7768 20.6148 12.0391 20.8126 12.0391 20.8126C12.0496 20.1619 12.2853 19.5713 12.7182 19.0976C12.6214 18.9635 12.3253 18.6403 12.2694 17.9618C12.2621 17.8731 12.1568 17.8315 12.0909 17.8913C11.4611 18.463 11.1154 19.2494 11.1026 20.1346C11.1026 20.1346 10.8403 19.9135 10.6979 19.5023C10.6595 19.3915 10.511 19.3704 10.4467 19.4684C10.4343 19.4872 10.4229 19.506 10.4125 19.5243C9.92663 20.3835 9.69287 21.4268 9.90896 22.3976C10.1089 23.2973 10.9305 23.8381 11.8387 23.9686C11.3488 23.728 10.9722 23.347 10.8455 22.8368Z" fill="#F7E7A1"/>
<path d="M8.65274 3.18961C9.66641 2.36512 9.66416 0.822609 8.65274 0C7.63907 0.824437 7.64127 2.367 8.65274 3.18961ZM20.8025 9.80686C21.8162 8.98238 21.8139 7.43986 20.8025 6.61725C20.3392 6.99403 19.7911 8.98425 20.8025 9.80686ZM2.84901 10.4347C3.57955 9.84042 3.57796 8.72878 2.84901 8.13586C2.51511 8.40741 2.12005 9.84178 2.84901 10.4347ZM15.5017 5.48841C16.2322 4.89417 16.2306 3.78253 15.5017 3.18961C14.7711 3.7838 14.7728 4.89553 15.5017 5.48841Z" fill="#D8553A"/>
<path d="M10.1196 13.3739C10.2874 11.3934 11.0437 9.63232 12.3136 8.28977C12.3005 8.19008 12.2898 8.09009 12.2815 7.98987C12.2622 7.75465 11.9828 7.64426 11.8081 7.80288C10.4848 9.0041 9.63553 10.563 9.32269 12.3262L9.32222 12.326C9.295 12.4824 9.2716 12.6395 9.25205 12.797C9.25209 12.7971 9.25215 12.7973 9.25223 12.7974C9.21372 13.1138 9.19211 13.4322 9.1875 13.7509C9.22284 13.7578 10.0229 14.1691 10.1196 13.3739Z" fill="#E89528"/>
<path d="M9.20667 21.5389C8.86191 19.9112 9.15553 18.1754 9.83766 16.6714C9.67498 16.4432 9.54575 16.1929 9.45389 15.9282C9.38498 15.7294 9.11855 15.6915 9.00291 15.8672C8.98134 15.9 8.96088 15.9335 8.94155 15.9676C8.06939 17.5098 7.64981 19.3825 8.03766 21.1249C8.34141 22.4914 9.44377 23.3969 10.7633 23.785C9.99525 23.2751 9.41423 22.5204 9.20667 21.5389ZM11.4248 16.3518C11.5391 15.535 11.8732 14.6351 12.3991 13.8827C12.3418 13.6703 12.2968 13.4302 12.2748 13.1633C12.2617 13.004 12.0726 12.9293 11.9543 13.0367C11.25 13.6761 10.7444 14.4654 10.4572 15.3536L10.4565 15.3535C10.4113 15.493 10.3474 15.7242 10.3087 15.9067C10.309 15.9066 10.3093 15.9066 10.3096 15.9064C10.229 16.2868 10.1857 16.6742 10.1805 17.0631C10.8129 17.142 11.3361 16.9854 11.4248 16.3518Z" fill="#E8C842"/>
</g>
<defs>
<clipPath id="clip0_2391_29571">
<rect width="24" height="24" fill="white"/>
</clipPath>
</defs>
</svg>
