<svg width="25" height="24" viewBox="0 0 25 24" fill="none" xmlns="http://www.w3.org/2000/svg">
<path d="M12.5601 17.25C12.1501 17.25 11.8101 16.91 11.8101 16.5V11.5C11.8101 11.09 12.1501 10.75 12.5601 10.75C12.9701 10.75 13.3101 11.09 13.3101 11.5V16.5C13.3101 16.91 12.9701 17.25 12.5601 17.25Z" fill="#6F7076"/>
<path d="M15 14.75H10C9.59 14.75 9.25 14.41 9.25 14C9.25 13.59 9.59 13.25 10 13.25H15C15.41 13.25 15.75 13.59 15.75 14C15.75 14.41 15.41 14.75 15 14.75Z" fill="#6F7076"/>
<path d="M17.5 22.75H7.5C3.09 22.75 1.75 21.41 1.75 17V7C1.75 2.59 3.09 1.25 7.5 1.25H9C10.75 1.25 11.3 1.82 12 2.75L13.5 4.75C13.83 5.19 13.88 5.25 14.5 5.25H17.5C21.91 5.25 23.25 6.59 23.25 11V17C23.25 21.41 21.91 22.75 17.5 22.75ZM7.5 2.75C3.93 2.75 3.25 3.43 3.25 7V17C3.25 20.57 3.93 21.25 7.5 21.25H17.5C21.07 21.25 21.75 20.57 21.75 17V11C21.75 7.43 21.07 6.75 17.5 6.75H14.5C13.22 6.75 12.8 6.31 12.3 5.65L10.8 3.65C10.28 2.96 10.13 2.75 9 2.75H7.5Z" fill="#6F7076"/>
</svg>
