<svg width="20" height="21" viewBox="0 0 20 21" fill="none" xmlns="http://www.w3.org/2000/svg">
<rect x="1" y="1.5" width="18" height="18" rx="9" stroke="white" stroke-width="2"/>
<path d="M9.99659 2.5C14.4148 2.5 17.9966 6.08175 17.9966 10.5C17.9966 14.9183 14.4148 18.5 9.99659 18.5C9.99659 18.1522 8.95312 10.5 8.95312 10.5L9.99659 2.5Z" fill="#F0F0F0"/>
<path d="M10 18.5C5.58175 18.5 2 14.9183 2 10.5C2 6.08175 5.58175 2.5 10 2.5" fill="#496E2D"/>
<path d="M11.7116 8.96875L11.0552 9.87328L9.99219 9.52853L10.6496 10.4323L9.99331 11.3368L11.0559 10.9908L11.7134 11.8946L11.7127 10.777L12.7753 10.431L11.7123 10.0863L11.7116 8.96875Z" fill="#D80027"/>
<path d="M10.66 12.7622C9.41134 12.7622 8.39909 11.75 8.39909 10.5014C8.39909 9.25275 9.41134 8.2405 10.66 8.2405C11.0493 8.2405 11.4156 8.33894 11.7354 8.51225C11.2337 8.02159 10.5476 7.71875 9.79041 7.71875C8.25359 7.71875 7.00781 8.96456 7.00781 10.5013C7.00781 12.0381 8.25363 13.2839 9.79041 13.2839C10.5476 13.2839 11.2337 12.9811 11.7354 12.4904C11.4156 12.6638 11.0493 12.7622 10.66 12.7622Z" fill="#D80027"/>
</svg>
