<svg width="20" height="16" viewBox="0 0 20 16" fill="none" xmlns="http://www.w3.org/2000/svg">
<path d="M11.0063 6.16602H1.63051C1.29624 6.16602 1.01904 5.93935 1.01904 5.66602C1.01904 5.39268 1.29624 5.16602 1.63051 5.16602H11.0063C11.3406 5.16602 11.6178 5.39268 11.6178 5.66602C11.6178 5.93935 11.3406 6.16602 11.0063 6.16602Z" fill="#F7FAFC"/>
<path d="M6.52231 11.5H4.89174C4.55747 11.5 4.28027 11.2733 4.28027 11C4.28027 10.7267 4.55747 10.5 4.89174 10.5H6.52231C6.85658 10.5 7.13378 10.7267 7.13378 11C7.13378 11.2733 6.85658 11.5 6.52231 11.5Z" fill="#F7FAFC"/>
<path d="M11.8216 11.5H8.56044C8.22617 11.5 7.94897 11.2733 7.94897 11C7.94897 10.7267 8.22617 10.5 8.56044 10.5H11.8216C12.1559 10.5 12.4331 10.7267 12.4331 11C12.4331 11.2733 12.1559 11.5 11.8216 11.5Z" fill="#F7FAFC"/>
<path d="M14.3164 14.1673H5.25038C2.00554 14.1673 1.01904 13.3673 1.01904 10.7407V5.26065C1.01904 2.63398 2.00554 1.83398 5.25038 1.83398H11.0063C11.3406 1.83398 11.6178 2.06065 11.6178 2.33398C11.6178 2.60732 11.3406 2.83398 11.0063 2.83398H5.25038C2.69038 2.83398 2.24197 3.19398 2.24197 5.26065V10.734C2.24197 12.8007 2.69038 13.1607 5.25038 13.1607H14.3082C16.8682 13.1607 17.3166 12.8007 17.3166 10.734V8.01398C17.3166 7.74065 17.5938 7.51398 17.9281 7.51398C18.2624 7.51398 18.5396 7.74065 18.5396 8.01398V10.734C18.5477 13.3673 17.5612 14.1673 14.3164 14.1673Z" fill="#F7FAFC"/>
<path d="M17.9364 4.66602H13.4523C13.118 4.66602 12.8408 4.43935 12.8408 4.16602C12.8408 3.89268 13.118 3.66602 13.4523 3.66602H17.9364C18.2706 3.66602 18.5478 3.89268 18.5478 4.16602C18.5478 4.43935 18.2706 4.66602 17.9364 4.66602Z" fill="#F7FAFC"/>
<path d="M15.6942 6.50065C15.36 6.50065 15.0828 6.27398 15.0828 6.00065V2.33398C15.0828 2.06065 15.36 1.83398 15.6942 1.83398C16.0285 1.83398 16.3057 2.06065 16.3057 2.33398V6.00065C16.3057 6.27398 16.0285 6.50065 15.6942 6.50065Z" fill="#F7FAFC"/>
</svg>
