<svg width="24" height="24" viewBox="0 0 24 24" fill="none" xmlns="http://www.w3.org/2000/svg">
<path d="M9.5675 18.8211C9.3775 18.8211 9.1875 18.7511 9.0375 18.6011L2.9675 12.5311C2.6775 12.2411 2.6775 11.7611 2.9675 11.4711L9.0375 5.40109C9.3275 5.11109 9.8075 5.11109 10.0975 5.40109C10.3875 5.69109 10.3875 6.17109 10.0975 6.46109L4.5575 12.0011L10.0975 17.5411C10.3875 17.8311 10.3875 18.3111 10.0975 18.6011C9.9575 18.7511 9.7575 18.8211 9.5675 18.8211Z" fill="#292D32"/>
<path d="M20.5019 12.75H3.67188C3.26188 12.75 2.92188 12.41 2.92188 12C2.92188 11.59 3.26188 11.25 3.67188 11.25H20.5019C20.9119 11.25 21.2519 11.59 21.2519 12C21.2519 12.41 20.9119 12.75 20.5019 12.75Z" fill="#292D32"/>
</svg>
