<svg width="24" height="25" viewBox="0 0 24 25" fill="none" xmlns="http://www.w3.org/2000/svg">
<path d="M8 6.25C7.59 6.25 7.25 5.91 7.25 5.5V2.5C7.25 2.09 7.59 1.75 8 1.75C8.41 1.75 8.75 2.09 8.75 2.5V5.5C8.75 5.91 8.41 6.25 8 6.25Z" fill="#2599F6"/>
<path d="M16 6.25C15.59 6.25 15.25 5.91 15.25 5.5V2.5C15.25 2.09 15.59 1.75 16 1.75C16.41 1.75 16.75 2.09 16.75 2.5V5.5C16.75 5.91 16.41 6.25 16 6.25Z" fill="#2599F6"/>
<path d="M8.5 14.9992C8.24 14.9992 7.98 14.8892 7.79 14.7092C7.61 14.5192 7.5 14.2692 7.5 13.9992C7.5 13.8692 7.53 13.7392 7.58 13.6192C7.63 13.4992 7.7 13.3892 7.79 13.2892C8.16 12.9192 8.83 12.9192 9.21 13.2892C9.39 13.4792 9.5 13.7392 9.5 13.9992C9.5 14.0592 9.49 14.1292 9.48 14.1992C9.47 14.2592 9.45 14.3192 9.42 14.3792C9.4 14.4392 9.37 14.4992 9.33 14.5592C9.29 14.6092 9.25 14.6592 9.21 14.7092C9.02 14.8892 8.76 14.9992 8.5 14.9992Z" fill="#2599F6"/>
<path d="M12 15.0003C11.87 15.0003 11.74 14.9703 11.62 14.9203C11.49 14.8703 11.39 14.8003 11.29 14.7103C11.11 14.5203 11 14.2703 11 14.0003C11 13.8703 11.03 13.7403 11.08 13.6203C11.13 13.5003 11.2 13.3903 11.29 13.2903C11.39 13.2003 11.49 13.1303 11.62 13.0803C11.99 12.9303 12.43 13.0103 12.71 13.2903C12.89 13.4803 13 13.7403 13 14.0003C13 14.0603 12.99 14.1303 12.98 14.2003C12.97 14.2603 12.95 14.3203 12.92 14.3803C12.9 14.4403 12.87 14.5003 12.83 14.5603C12.8 14.6103 12.75 14.6603 12.71 14.7103C12.52 14.8903 12.26 15.0003 12 15.0003Z" fill="#2599F6"/>
<path d="M8.5 18.5008C8.37 18.5008 8.24 18.4708 8.12 18.4208C7.99 18.3708 7.88 18.3008 7.79 18.2108C7.7 18.1208 7.63 18.0108 7.58 17.8808C7.53 17.7608 7.5 17.6308 7.5 17.5008C7.5 17.3708 7.53 17.2408 7.58 17.1208C7.63 16.9908 7.7 16.8808 7.79 16.7908C7.88 16.7008 7.99 16.6307 8.12 16.5807C8.36 16.4807 8.64 16.4707 8.88 16.5807C9.01 16.6307 9.12 16.7008 9.21 16.7908C9.3 16.8808 9.37 16.9908 9.42 17.1208C9.47 17.2408 9.5 17.3708 9.5 17.5008C9.5 17.6308 9.47 17.7608 9.42 17.8808C9.37 18.0108 9.3 18.1208 9.21 18.2108C9.12 18.3008 9.01 18.3708 8.88 18.4208C8.76 18.4708 8.63 18.5008 8.5 18.5008Z" fill="#2599F6"/>
<path d="M20.5 10.3398H3.5C3.09 10.3398 2.75 9.99984 2.75 9.58984C2.75 9.17984 3.09 8.83984 3.5 8.83984H20.5C20.91 8.83984 21.25 9.17984 21.25 9.58984C21.25 9.99984 20.91 10.3398 20.5 10.3398Z" fill="#2599F6"/>
<path d="M18 24.25C16.83 24.25 15.72 23.83 14.87 23.06C14.51 22.76 14.19 22.38 13.93 21.94C13.49 21.22 13.25 20.37 13.25 19.5C13.25 16.88 15.38 14.75 18 14.75C19.36 14.75 20.66 15.34 21.56 16.36C22.33 17.24 22.75 18.35 22.75 19.5C22.75 20.37 22.51 21.22 22.06 21.95C21.22 23.37 19.66 24.25 18 24.25ZM18 16.25C16.21 16.25 14.75 17.71 14.75 19.5C14.75 20.09 14.91 20.67 15.22 21.17C15.39 21.47 15.61 21.72 15.85 21.93C16.45 22.47 17.2 22.75 18 22.75C19.15 22.75 20.19 22.16 20.78 21.18C21.09 20.67 21.25 20.1 21.25 19.5C21.25 18.72 20.96 17.96 20.44 17.35C19.82 16.65 18.93 16.25 18 16.25Z" fill="#2599F6"/>
<path d="M17.4299 21.2396C17.2399 21.2396 17.0499 21.1695 16.8999 21.0195L15.9099 20.0296C15.6199 19.7396 15.6199 19.2596 15.9099 18.9696C16.1999 18.6796 16.6799 18.6796 16.9699 18.9696L17.4499 19.4496L19.0499 17.9696C19.3499 17.6896 19.8299 17.7096 20.1099 18.0096C20.3899 18.3096 20.3699 18.7896 20.0699 19.0696L17.9399 21.0396C17.7899 21.1696 17.6099 21.2396 17.4299 21.2396Z" fill="#2599F6"/>
<path d="M15.37 23.25H8C4.35 23.25 2.25 21.15 2.25 17.5V9C2.25 5.35 4.35 3.25 8 3.25H16C19.65 3.25 21.75 5.35 21.75 9V16.86C21.75 17.17 21.56 17.45 21.26 17.56C20.97 17.67 20.64 17.59 20.43 17.35C19.81 16.65 18.92 16.25 17.99 16.25C16.2 16.25 14.74 17.71 14.74 19.5C14.74 20.09 14.9 20.67 15.21 21.17C15.38 21.47 15.6 21.72 15.84 21.93C16.08 22.13 16.17 22.46 16.06 22.76C15.97 23.05 15.69 23.25 15.37 23.25ZM8 4.75C5.14 4.75 3.75 6.14 3.75 9V17.5C3.75 20.36 5.14 21.75 8 21.75H13.82C13.45 21.07 13.25 20.3 13.25 19.5C13.25 16.88 15.38 14.75 18 14.75C18.79 14.75 19.57 14.95 20.25 15.32V9C20.25 6.14 18.86 4.75 16 4.75H8Z" fill="#2599F6"/>
</svg>
