<svg width="16" height="16" viewBox="0 0 16 16" fill="none" xmlns="http://www.w3.org/2000/svg">
<path d="M10.6465 15.1667H5.31315C3.03315 15.1667 2.14648 14.2801 2.14648 12.0001V6.66675C2.14648 6.39341 2.37315 6.16675 2.64648 6.16675H13.3132C13.5865 6.16675 13.8132 6.39341 13.8132 6.66675V12.0001C13.8132 14.2801 12.9265 15.1667 10.6465 15.1667ZM3.14648 7.16675V12.0001C3.14648 13.7201 3.59315 14.1667 5.31315 14.1667H10.6465C12.3665 14.1667 12.8132 13.7201 12.8132 12.0001V7.16675H3.14648Z" fill="#2599F6"/>
<path d="M13.0003 7.16658H3.00033C1.83366 7.16658 1.16699 6.49992 1.16699 5.33325V4.66659C1.16699 3.49992 1.83366 2.83325 3.00033 2.83325H13.0003C14.1337 2.83325 14.8337 3.53325 14.8337 4.66659V5.33325C14.8337 6.46659 14.1337 7.16658 13.0003 7.16658ZM3.00033 3.83325C2.39366 3.83325 2.16699 4.05992 2.16699 4.66659V5.33325C2.16699 5.93992 2.39366 6.16658 3.00033 6.16658H13.0003C13.587 6.16658 13.8337 5.91992 13.8337 5.33325V4.66659C13.8337 4.07992 13.587 3.83325 13.0003 3.83325H3.00033Z" fill="#2599F6"/>
<path d="M7.75974 3.83334H4.07974C3.93974 3.83334 3.8064 3.77334 3.71307 3.67334C3.3064 3.22667 3.31974 2.54 3.7464 2.11334L4.69307 1.16667C5.13307 0.72667 5.85974 0.72667 6.29974 1.16667L8.11307 2.98C8.25307 3.12 8.29974 3.34 8.21974 3.52667C8.1464 3.71334 7.9664 3.83334 7.75974 3.83334ZM4.4464 2.83334H6.55974L5.59307 1.87334C5.53974 1.82 5.45307 1.82 5.39974 1.87334L4.45307 2.82C4.45307 2.82667 4.4464 2.82667 4.4464 2.83334Z" fill="#2599F6"/>
<path d="M11.9134 3.83334H8.23339C8.03339 3.83334 7.84672 3.71334 7.77339 3.52667C7.69339 3.34 7.74006 3.12667 7.88006 2.98L9.69339 1.16667C10.1334 0.72667 10.8601 0.72667 11.3001 1.16667L12.2467 2.11334C12.6734 2.54 12.6934 3.22667 12.2801 3.67334C12.1867 3.77334 12.0534 3.83334 11.9134 3.83334ZM9.44672 2.83334H11.5601C11.5534 2.82667 11.5534 2.82667 11.5467 2.82L10.6001 1.87334C10.5467 1.82 10.4601 1.82 10.4067 1.87334L9.44672 2.83334Z" fill="#2599F6"/>
<path d="M6.62663 11.2667C6.43996 11.2667 6.24663 11.2201 6.07329 11.1267C5.69329 10.9201 5.45996 10.5267 5.45996 10.1001V6.66675C5.45996 6.39341 5.68663 6.16675 5.95996 6.16675H9.98663C10.26 6.16675 10.4866 6.39341 10.4866 6.66675V10.0867C10.4866 10.5201 10.2533 10.9134 9.8733 11.1134C9.4933 11.3201 9.0333 11.2934 8.6733 11.0534L8.07996 10.6534C8.02663 10.6134 7.95329 10.6134 7.8933 10.6534L7.26663 11.0667C7.07329 11.2001 6.84663 11.2667 6.62663 11.2667ZM6.45996 7.16675V10.0934C6.45996 10.1801 6.51329 10.2201 6.54663 10.2401C6.57996 10.2601 6.64663 10.2801 6.71996 10.2334L7.34663 9.82008C7.73996 9.56008 8.24663 9.56008 8.63329 9.82008L9.22663 10.2201C9.29996 10.2667 9.36663 10.2467 9.39996 10.2267C9.4333 10.2067 9.48663 10.1667 9.48663 10.0801V7.16008H6.45996V7.16675Z" fill="#2599F6"/>
</svg>
