<svg width="25" height="25" viewBox="0 0 25 25" fill="none" xmlns="http://www.w3.org/2000/svg">
<path d="M12.3735 23.25C7.49354 23.25 3.52356 19.28 3.52356 14.4C3.49356 8.67 8.95353 3.9 11.3035 2.11C11.9335 1.63 12.8135 1.63 13.4435 2.11C15.7935 3.93 21.2535 8.76 21.2235 14.41C21.2235 19.28 17.2535 23.25 12.3735 23.25ZM12.3735 3.25C12.3235 3.25 12.2636 3.27 12.2136 3.31C10.5236 4.6 5.00351 9.21 5.03351 14.4C5.03351 18.46 8.33355 21.75 12.3835 21.75C16.4335 21.75 19.7335 18.46 19.7335 14.41C19.7635 9.29 14.2335 4.62 12.5335 3.31C12.4735 3.27 12.4235 3.25 12.3735 3.25Z" fill="#131314"/>
<path d="M12.375 23.25C11.965 23.25 11.625 22.91 11.625 22.5V2.5C11.625 2.09 11.965 1.75 12.375 1.75C12.785 1.75 13.125 2.09 13.125 2.5V22.5C13.125 22.91 12.785 23.25 12.375 23.25Z" fill="#131314"/>
<path d="M12.373 20.2102C12.093 20.2102 11.823 20.0502 11.693 19.7902C11.513 19.4202 11.663 18.9702 12.043 18.7902L19.743 15.0502C20.113 14.8702 20.563 15.0302 20.743 15.4002C20.923 15.7702 20.773 16.2202 20.393 16.4002L12.693 20.1402C12.593 20.1802 12.483 20.2102 12.373 20.2102Z" fill="#131314"/>
<path d="M12.373 15.2101C12.093 15.2101 11.823 15.0501 11.693 14.7901C11.513 14.4201 11.663 13.9701 12.043 13.7901L19.413 10.2101C19.783 10.0301 20.233 10.1801 20.413 10.5601C20.593 10.9401 20.443 11.3801 20.063 11.5601L12.693 15.1401C12.593 15.1801 12.483 15.2101 12.373 15.2101Z" fill="#131314"/>
<path d="M12.373 10.21C12.093 10.21 11.823 10.05 11.693 9.78997C11.513 9.41997 11.663 8.96997 12.043 8.78997L17.073 6.34997C17.443 6.16997 17.893 6.32996 18.073 6.69996C18.253 7.06996 18.103 7.51996 17.723 7.69996L12.693 10.14C12.593 10.18 12.483 10.21 12.373 10.21Z" fill="#292D32"/>
</svg>
