<svg width="16" height="16" viewBox="0 0 16 16" fill="none" xmlns="http://www.w3.org/2000/svg">
<path d="M5.33203 3.83398C5.0587 3.83398 4.83203 3.60732 4.83203 3.33398V1.33398C4.83203 1.06065 5.0587 0.833984 5.33203 0.833984C5.60536 0.833984 5.83203 1.06065 5.83203 1.33398V3.33398C5.83203 3.60732 5.60536 3.83398 5.33203 3.83398Z" fill="#58595E"/>
<path d="M10.668 3.83398C10.3946 3.83398 10.168 3.60732 10.168 3.33398V1.33398C10.168 1.06065 10.3946 0.833984 10.668 0.833984C10.9413 0.833984 11.168 1.06065 11.168 1.33398V3.33398C11.168 3.60732 10.9413 3.83398 10.668 3.83398Z" fill="#58595E"/>
<path d="M5.66667 9.66753C5.58 9.66753 5.49333 9.64753 5.41333 9.6142C5.32667 9.58087 5.26 9.53419 5.19333 9.47419C5.07333 9.34752 5 9.18086 5 9.00086C5 8.91419 5.02 8.82752 5.05333 8.74752C5.08667 8.66752 5.13333 8.5942 5.19333 8.52753C5.26 8.46753 5.32667 8.42085 5.41333 8.38752C5.65333 8.28752 5.95333 8.34086 6.14 8.52753C6.26 8.6542 6.33333 8.82753 6.33333 9.00086C6.33333 9.04086 6.32667 9.08753 6.32 9.1342C6.31333 9.1742 6.3 9.2142 6.28 9.2542C6.26667 9.2942 6.24667 9.33419 6.22 9.37419C6.2 9.40752 6.16667 9.44085 6.14 9.47419C6.01333 9.59419 5.84 9.66753 5.66667 9.66753Z" fill="#58595E"/>
<path d="M7.9987 9.66658C7.91203 9.66658 7.82536 9.64659 7.74536 9.61326C7.6587 9.57992 7.59203 9.53324 7.52537 9.47324C7.40537 9.34658 7.33203 9.17992 7.33203 8.99992C7.33203 8.91325 7.35203 8.82658 7.38537 8.74658C7.4187 8.66658 7.46537 8.59325 7.52537 8.52659C7.59203 8.46659 7.6587 8.41991 7.74536 8.38657C7.98536 8.27991 8.28536 8.33992 8.47203 8.52659C8.59203 8.65325 8.66536 8.82658 8.66536 8.99992C8.66536 9.03992 8.6587 9.08659 8.65203 9.13326C8.64536 9.17326 8.63203 9.21325 8.61203 9.25325C8.5987 9.29325 8.5787 9.33325 8.55203 9.37325C8.53203 9.40658 8.4987 9.43991 8.47203 9.47324C8.34536 9.59324 8.17203 9.66658 7.9987 9.66658Z" fill="#58595E"/>
<path d="M10.3346 9.66658C10.248 9.66658 10.1613 9.64659 10.0813 9.61326C9.99463 9.57992 9.92797 9.53324 9.8613 9.47324C9.83464 9.43991 9.80797 9.40658 9.7813 9.37325C9.75463 9.33325 9.73464 9.29325 9.7213 9.25325C9.7013 9.21325 9.68797 9.17326 9.6813 9.13326C9.67464 9.08659 9.66797 9.03992 9.66797 8.99992C9.66797 8.82658 9.7413 8.65325 9.8613 8.52659C9.92797 8.46659 9.99463 8.41991 10.0813 8.38657C10.328 8.27991 10.6213 8.33992 10.808 8.52659C10.928 8.65325 11.0013 8.82658 11.0013 8.99992C11.0013 9.03992 10.9946 9.08659 10.988 9.13326C10.9813 9.17326 10.968 9.21325 10.948 9.25325C10.9346 9.29325 10.9146 9.33325 10.888 9.37325C10.868 9.40658 10.8346 9.43991 10.808 9.47324C10.6813 9.59324 10.508 9.66658 10.3346 9.66658Z" fill="#58595E"/>
<path d="M5.66667 12.0008C5.58 12.0008 5.49333 11.9808 5.41333 11.9475C5.33333 11.9141 5.26 11.8674 5.19333 11.8074C5.07333 11.6808 5 11.5074 5 11.3341C5 11.2474 5.02 11.1608 5.05333 11.0808C5.08667 10.9941 5.13333 10.9208 5.19333 10.8608C5.44 10.6141 5.89333 10.6141 6.14 10.8608C6.26 10.9874 6.33333 11.1608 6.33333 11.3341C6.33333 11.5074 6.26 11.6808 6.14 11.8074C6.01333 11.9274 5.84 12.0008 5.66667 12.0008Z" fill="#58595E"/>
<path d="M7.9987 12.0008C7.82536 12.0008 7.65203 11.9274 7.52537 11.8074C7.40537 11.6808 7.33203 11.5074 7.33203 11.3341C7.33203 11.2474 7.35203 11.1608 7.38537 11.0808C7.4187 10.9941 7.46537 10.9208 7.52537 10.8608C7.77203 10.6141 8.22536 10.6141 8.47203 10.8608C8.53203 10.9208 8.5787 10.9941 8.61203 11.0808C8.64536 11.1608 8.66536 11.2474 8.66536 11.3341C8.66536 11.5074 8.59203 11.6808 8.47203 11.8074C8.34536 11.9274 8.17203 12.0008 7.9987 12.0008Z" fill="#58595E"/>
<path d="M10.3346 11.9999C10.1613 11.9999 9.98797 11.9266 9.8613 11.8066C9.8013 11.7466 9.75464 11.6733 9.7213 11.5866C9.68797 11.5066 9.66797 11.4199 9.66797 11.3333C9.66797 11.2466 9.68797 11.1599 9.7213 11.0799C9.75464 10.9933 9.8013 10.9199 9.8613 10.8599C10.0146 10.7066 10.248 10.6333 10.4613 10.6799C10.508 10.6866 10.548 10.6999 10.588 10.7199C10.628 10.7333 10.668 10.7533 10.708 10.78C10.7413 10.8 10.7746 10.8333 10.808 10.8599C10.928 10.9866 11.0013 11.1599 11.0013 11.3333C11.0013 11.5066 10.928 11.6799 10.808 11.8066C10.6813 11.9266 10.508 11.9999 10.3346 11.9999Z" fill="#58595E"/>
<path d="M13.6654 6.56055H2.33203C2.0587 6.56055 1.83203 6.33388 1.83203 6.06055C1.83203 5.78721 2.0587 5.56055 2.33203 5.56055H13.6654C13.9387 5.56055 14.1654 5.78721 14.1654 6.06055C14.1654 6.33388 13.9387 6.56055 13.6654 6.56055Z" fill="#58595E"/>
<path d="M10.6667 15.1673H5.33333C2.9 15.1673 1.5 13.7673 1.5 11.334V5.66732C1.5 3.23398 2.9 1.83398 5.33333 1.83398H10.6667C13.1 1.83398 14.5 3.23398 14.5 5.66732V11.334C14.5 13.7673 13.1 15.1673 10.6667 15.1673ZM5.33333 2.83398C3.42667 2.83398 2.5 3.76065 2.5 5.66732V11.334C2.5 13.2407 3.42667 14.1673 5.33333 14.1673H10.6667C12.5733 14.1673 13.5 13.2407 13.5 11.334V5.66732C13.5 3.76065 12.5733 2.83398 10.6667 2.83398H5.33333Z" fill="#58595E"/>
</svg>
