<svg width="32" height="32" viewBox="0 0 32 32" fill="none" xmlns="http://www.w3.org/2000/svg">
<rect x="0.5" y="0.5" width="31" height="31" rx="15.5" stroke="#ECEEFB"/>
<path d="M16.9334 19.6133H15.2601C14.1668 19.6133 13.2801 18.6933 13.2801 17.56C13.2801 17.2866 13.5068 17.06 13.7801 17.06C14.0534 17.06 14.2801 17.2866 14.2801 17.56C14.2801 18.14 14.7201 18.6133 15.2601 18.6133H16.9334C17.3668 18.6133 17.7268 18.2266 17.7268 17.76C17.7268 17.18 17.5201 17.0666 17.1801 16.9466L14.4934 16C13.9734 15.82 13.2734 15.4333 13.2734 14.24C13.2734 13.2133 14.0801 12.3866 15.0668 12.3866H16.7401C17.8334 12.3866 18.7201 13.3066 18.7201 14.44C18.7201 14.7133 18.4934 14.94 18.2201 14.94C17.9468 14.94 17.7201 14.7133 17.7201 14.44C17.7201 13.86 17.2801 13.3866 16.7401 13.3866H15.0668C14.6334 13.3866 14.2734 13.7733 14.2734 14.24C14.2734 14.82 14.4801 14.9333 14.8201 15.0533L17.5068 16C18.0268 16.18 18.7268 16.5666 18.7268 17.76C18.7201 18.78 17.9201 19.6133 16.9334 19.6133Z" fill="#6F7076"/>
<path d="M16 20.5C15.7267 20.5 15.5 20.2733 15.5 20V12C15.5 11.7267 15.7267 11.5 16 11.5C16.2733 11.5 16.5 11.7267 16.5 12V20C16.5 20.2733 16.2733 20.5 16 20.5Z" fill="#6F7076"/>
<path d="M16.0002 23.1667C12.0468 23.1667 8.8335 19.9533 8.8335 16C8.8335 12.0467 12.0468 8.83334 16.0002 8.83334C19.9535 8.83334 23.1668 12.0467 23.1668 16C23.1668 19.9533 19.9535 23.1667 16.0002 23.1667ZM16.0002 9.83334C12.6002 9.83334 9.8335 12.6 9.8335 16C9.8335 19.4 12.6002 22.1667 16.0002 22.1667C19.4002 22.1667 22.1668 19.4 22.1668 16C22.1668 12.6 19.4002 9.83334 16.0002 9.83334Z" fill="#6F7076"/>
</svg>
