<svg width="32" height="32" viewBox="0 0 32 32" fill="none" xmlns="http://www.w3.org/2000/svg">
<rect x="0.5" y="0.5" width="31" height="31" rx="15.5" stroke="#ECEEFB"/>
<path d="M16.0002 23.2067C15.5402 23.2067 15.1068 22.9733 14.8002 22.5667L13.8002 21.2333C13.7802 21.2067 13.7002 21.1733 13.6668 21.1667H13.3335C10.5535 21.1667 8.8335 20.4133 8.8335 16.6667V13.3333C8.8335 10.3867 10.3868 8.83334 13.3335 8.83334H18.6668C21.6135 8.83334 23.1668 10.3867 23.1668 13.3333V16.6667C23.1668 19.6133 21.6135 21.1667 18.6668 21.1667H18.3335C18.2802 21.1667 18.2335 21.1933 18.2002 21.2333L17.2002 22.5667C16.8935 22.9733 16.4602 23.2067 16.0002 23.2067ZM13.3335 9.83334C10.9468 9.83334 9.8335 10.9467 9.8335 13.3333V16.6667C9.8335 19.68 10.8668 20.1667 13.3335 20.1667H13.6668C14.0068 20.1667 14.3935 20.36 14.6002 20.6333L15.6002 21.9667C15.8335 22.2733 16.1668 22.2733 16.4002 21.9667L17.4002 20.6333C17.6202 20.34 17.9668 20.1667 18.3335 20.1667H18.6668C21.0535 20.1667 22.1668 19.0533 22.1668 16.6667V13.3333C22.1668 10.9467 21.0535 9.83334 18.6668 9.83334H13.3335Z" fill="#6F7076"/>
<path d="M19.3332 13.8333H12.6665C12.3932 13.8333 12.1665 13.6067 12.1665 13.3333C12.1665 13.06 12.3932 12.8333 12.6665 12.8333H19.3332C19.6065 12.8333 19.8332 13.06 19.8332 13.3333C19.8332 13.6067 19.6065 13.8333 19.3332 13.8333Z" fill="#6F7076"/>
<path d="M16.6665 17.1667H12.6665C12.3932 17.1667 12.1665 16.94 12.1665 16.6667C12.1665 16.3933 12.3932 16.1667 12.6665 16.1667H16.6665C16.9398 16.1667 17.1665 16.3933 17.1665 16.6667C17.1665 16.94 16.9398 17.1667 16.6665 17.1667Z" fill="#6F7076"/>
</svg>
