<svg width="32" height="32" viewBox="0 0 32 32" fill="none" xmlns="http://www.w3.org/2000/svg">
<rect x="0.5" y="0.5" width="31" height="31" rx="15.5" stroke="#ECEEFB"/>
<path d="M19.7736 23.1135C19.4202 23.1135 18.9669 23.0001 18.4002 22.6668L16.4069 21.4868C16.2002 21.3668 15.8002 21.3668 15.6002 21.4868L13.6002 22.6668C12.4202 23.3668 11.7269 23.0868 11.4136 22.8601C11.1069 22.6335 10.6269 22.0535 10.9402 20.7201L11.4136 18.6735C11.4669 18.4601 11.3602 18.0935 11.2002 17.9335L9.54691 16.2801C8.72024 15.4535 8.78691 14.7468 8.90024 14.4001C9.01357 14.0535 9.37357 13.4401 10.5202 13.2468L12.6469 12.8935C12.8469 12.8601 13.1336 12.6468 13.2202 12.4668L14.4002 10.1135C14.9336 9.04013 15.6336 8.88013 16.0002 8.88013C16.3669 8.88013 17.0669 9.04013 17.6002 10.1135L18.7736 12.4601C18.8669 12.6401 19.1536 12.8535 19.3536 12.8868L21.4802 13.2401C22.6336 13.4335 22.9936 14.0468 23.1002 14.3935C23.2069 14.7401 23.2736 15.4468 22.4536 16.2735L20.8002 17.9335C20.6402 18.0935 20.5402 18.4535 20.5869 18.6735L21.0602 20.7201C21.3669 22.0535 20.8936 22.6335 20.5869 22.8601C20.4202 22.9801 20.1536 23.1135 19.7736 23.1135ZM16.0002 20.3935C16.3269 20.3935 16.6536 20.4735 16.9136 20.6268L18.9069 21.8068C19.4869 22.1535 19.8536 22.1535 19.9936 22.0535C20.1336 21.9535 20.2336 21.6001 20.0869 20.9468L19.6136 18.9001C19.4869 18.3468 19.6936 17.6335 20.0936 17.2268L21.7469 15.5735C22.0736 15.2468 22.2202 14.9268 22.1536 14.7068C22.0802 14.4868 21.7736 14.3068 21.3202 14.2335L19.1936 13.8801C18.6802 13.7935 18.1202 13.3801 17.8869 12.9135L16.7136 10.5668C16.5002 10.1401 16.2336 9.88679 16.0002 9.88679C15.7669 9.88679 15.5002 10.1401 15.2936 10.5668L14.1136 12.9135C13.8802 13.3801 13.3202 13.7935 12.8069 13.8801L10.6869 14.2335C10.2336 14.3068 9.92691 14.4868 9.85357 14.7068C9.78024 14.9268 9.93357 15.2535 10.2602 15.5735L11.9136 17.2268C12.3136 17.6268 12.5202 18.3468 12.3936 18.9001L11.9202 20.9468C11.7669 21.6068 11.8736 21.9535 12.0136 22.0535C12.1536 22.1535 12.5136 22.1468 13.1002 21.8068L15.0936 20.6268C15.3469 20.4735 15.6736 20.3935 16.0002 20.3935Z" fill="#6F7076"/>
</svg>
