<svg width="24" height="25" viewBox="0 0 24 25" fill="none" xmlns="http://www.w3.org/2000/svg">
<path d="M12 23.25C6.07 23.25 1.25 18.43 1.25 12.5C1.25 6.57 6.07 1.75 12 1.75C17.93 1.75 22.75 6.57 22.75 12.5C22.75 18.43 17.93 23.25 12 23.25ZM12 3.25C6.9 3.25 2.75 7.4 2.75 12.5C2.75 17.6 6.9 21.75 12 21.75C17.1 21.75 21.25 17.6 21.25 12.5C21.25 7.4 17.1 3.25 12 3.25Z" fill="#6F7076"/>
<path d="M9.17035 16.0801C8.98035 16.0801 8.79035 16.0101 8.64035 15.8601C8.35035 15.5701 8.35035 15.0901 8.64035 14.8001L14.3004 9.14011C14.5904 8.85011 15.0704 8.85011 15.3604 9.14011C15.6504 9.43011 15.6504 9.91011 15.3604 10.2001L9.70035 15.8601C9.56035 16.0101 9.36035 16.0801 9.17035 16.0801Z" fill="#6F7076"/>
<path d="M14.8304 16.0801C14.6404 16.0801 14.4504 16.0101 14.3004 15.8601L8.64035 10.2001C8.35035 9.91011 8.35035 9.43011 8.64035 9.14011C8.93035 8.85011 9.41035 8.85011 9.70035 9.14011L15.3604 14.8001C15.6504 15.0901 15.6504 15.5701 15.3604 15.8601C15.2104 16.0101 15.0204 16.0801 14.8304 16.0801Z" fill="#6F7076"/>
</svg>
