<svg width="20" height="16" viewBox="0 0 20 16" fill="none" xmlns="http://www.w3.org/2000/svg">
<path d="M18.2878 7.1875H1.98207C1.6478 7.1875 1.37061 6.96083 1.37061 6.6875C1.37061 6.41417 1.6478 6.1875 1.98207 6.1875H18.2878C18.6221 6.1875 18.8993 6.41417 18.8993 6.6875C18.8993 6.96083 18.6302 7.1875 18.2878 7.1875Z" fill="#E20C0C"/>
<path d="M9.77621 14.186H5.61006C2.36522 14.186 1.37061 13.386 1.37061 10.7594V5.27938C1.37061 3.17938 1.91684 2.01271 4.82741 1.87271C5.08015 1.86604 5.33286 1.85938 5.61006 1.85938H14.6679C17.9128 1.85938 18.9074 2.65937 18.9074 5.28604V8.22604C18.9074 8.49938 18.6302 8.72604 18.2959 8.72604C17.9616 8.72604 17.6845 8.49938 17.6845 8.22604V5.28604C17.6845 3.22604 17.2361 2.85938 14.6679 2.85938H5.61006C5.34916 2.85938 5.11277 2.86604 4.88449 2.87271C3.11532 2.95938 2.59354 3.28604 2.59354 5.28604V10.766C2.59354 12.826 3.0419 13.1927 5.61006 13.1927H9.77621C10.1105 13.1927 10.3877 13.4194 10.3877 13.6927C10.3877 13.966 10.1105 14.186 9.77621 14.186Z" fill="#E20C0C"/>
<path d="M15.0267 15.1868C12.8906 15.1868 11.1541 13.7668 11.1541 12.0202C11.1541 10.2735 12.8906 8.85352 15.0267 8.85352C17.1627 8.85352 18.8993 10.2735 18.8993 12.0202C18.8993 13.7668 17.1627 15.1868 15.0267 15.1868ZM15.0267 9.85352C13.5673 9.85352 12.377 10.8268 12.377 12.0202C12.377 13.2135 13.5673 14.1868 15.0267 14.1868C16.486 14.1868 17.6763 13.2135 17.6763 12.0202C17.6763 10.8268 16.486 9.85352 15.0267 9.85352Z" fill="#E20C0C"/>
<path d="M15.8989 13.2663C15.744 13.2663 15.5891 13.2197 15.4668 13.1197L13.7465 11.713C13.5101 11.5197 13.5101 11.1997 13.7465 11.0063C13.983 10.813 14.3743 10.813 14.6107 11.0063L16.331 12.413C16.5674 12.6063 16.5674 12.9263 16.331 13.1197C16.2168 13.213 16.0538 13.2663 15.8989 13.2663Z" fill="#E20C0C"/>
<path d="M14.1544 13.28C13.9995 13.28 13.8445 13.2333 13.7222 13.1333C13.4858 12.94 13.4858 12.62 13.7222 12.4267L15.4425 11.02C15.6789 10.8267 16.0703 10.8267 16.3067 11.02C16.5431 11.2133 16.5431 11.5333 16.3067 11.7267L14.5864 13.1333C14.4723 13.2333 14.3174 13.28 14.1544 13.28Z" fill="#E20C0C"/>
<path d="M8.50433 11.1875H5.24318C4.90891 11.1875 4.63171 10.9608 4.63171 10.6875C4.63171 10.4142 4.90891 10.1875 5.24318 10.1875H8.50433C8.83859 10.1875 9.11579 10.4142 9.11579 10.6875C9.11579 10.9608 8.84675 11.1875 8.50433 11.1875Z" fill="#E20C0C"/>
</svg>
