<svg width="20" height="21" viewBox="0 0 20 21" fill="none" xmlns="http://www.w3.org/2000/svg">
<rect x="1" y="1.5" width="18" height="18" rx="9" stroke="white" stroke-width="2"/>
<path d="M10 18.5C14.4183 18.5 18 14.9183 18 10.5C18 6.08172 14.4183 2.5 10 2.5C5.58172 2.5 2 6.08172 2 10.5C2 14.9183 5.58172 18.5 10 18.5Z" fill="#FFDA44"/>
<path d="M10.0027 2.5C8.044 2.5 6.25006 3.20428 4.85938 4.37294L13.4809 10.5L4.85938 16.6271C6.25006 17.7957 8.044 18.5 10.0027 18.5C14.4209 18.5 18.0027 14.9183 18.0027 10.5C18.0027 6.08175 14.4209 2.5 10.0027 2.5Z" fill="#D80027"/>
<path d="M4.34314 4.84375C1.21895 7.96794 1.21895 13.0333 4.34314 16.1575C5.63417 14.8665 6.87583 13.6248 10 10.5006L4.34314 4.84375Z" fill="black"/>
<path d="M4.21903 8.66797L5.43653 9.82022L6.90866 9.01822L6.18913 10.5323L7.40666 11.6846L5.74434 11.4681L5.02472 12.9821L4.717 11.3342L3.05469 11.1177L4.52675 10.3158L4.21903 8.66797Z" fill="#F0F0F0"/>
</svg>
