<svg width="21" height="16" viewBox="0 0 21 16" fill="none" xmlns="http://www.w3.org/2000/svg">
<path d="M10.2421 6.16602H2.49684C2.16257 6.16602 1.88538 5.93935 1.88538 5.66602C1.88538 5.39268 2.16257 5.16602 2.49684 5.16602H10.2421C10.5763 5.16602 10.8535 5.39268 10.8535 5.66602C10.8535 5.93935 10.5763 6.16602 10.2421 6.16602Z" fill="#292D32"/>
<path d="M7.38852 11.5H5.75795C5.42368 11.5 5.14648 11.2733 5.14648 11C5.14648 10.7267 5.42368 10.5 5.75795 10.5H7.38852C7.72279 10.5 7.99999 10.7267 7.99999 11C7.99999 11.2733 7.72279 11.5 7.38852 11.5Z" fill="#292D32"/>
<path d="M12.6879 11.5H9.42677C9.09251 11.5 8.81531 11.2733 8.81531 11C8.81531 10.7267 9.09251 10.5 9.42677 10.5H12.6879C13.0222 10.5 13.2994 10.7267 13.2994 11C13.2994 11.2733 13.0222 11.5 12.6879 11.5Z" fill="#292D32"/>
<path d="M15.1827 14.1673H6.11671C2.87187 14.1673 1.88538 13.3673 1.88538 10.7407V5.26065C1.88538 2.63398 2.87187 1.83398 6.11671 1.83398H12.6879C13.0222 1.83398 13.2994 2.06065 13.2994 2.33398C13.2994 2.60732 13.0222 2.83398 12.6879 2.83398H6.11671C3.55671 2.83398 3.10831 3.19398 3.10831 5.26065V10.734C3.10831 12.8007 3.55671 13.1607 6.11671 13.1607H15.1745C17.7345 13.1607 18.183 12.8007 18.183 10.734V8.01398C18.183 7.74065 18.4602 7.51398 18.7944 7.51398C19.1287 7.51398 19.4059 7.74065 19.4059 8.01398V10.734C19.414 13.3673 18.4275 14.1673 15.1827 14.1673Z" fill="#292D32"/>
<path d="M13.5194 7.6267C13.2014 7.6267 12.8998 7.53337 12.6878 7.35337C12.4269 7.14003 12.3128 6.83337 12.3699 6.51337L12.5329 5.5667C12.5737 5.3267 12.753 5.04003 12.9569 4.87337L15.9816 2.40003C17.18 1.42003 18.2236 1.98003 18.7454 2.40003C19.259 2.82003 19.9439 3.67337 18.7454 4.66003L15.7207 7.13337C15.5087 7.3067 15.1581 7.4467 14.8728 7.48003L13.7151 7.61337C13.6499 7.62003 13.5846 7.6267 13.5194 7.6267ZM17.3594 2.85337C17.1963 2.85337 17.0496 2.9467 16.8458 3.1067L13.8292 5.58003C13.8048 5.6067 13.7558 5.68003 13.7477 5.71337L13.5846 6.61337L14.6934 6.4867C14.7342 6.48003 14.8239 6.44003 14.8565 6.42003L17.8812 3.9467C18.2644 3.63337 18.3214 3.46003 17.8812 3.1067C17.6692 2.93337 17.5143 2.85337 17.3594 2.85337Z" fill="#292D32"/>
<path d="M17.8812 5.15906C17.8242 5.15906 17.7671 5.15239 17.7182 5.13906C16.6012 4.87906 15.7126 4.15906 15.4028 3.24573C15.3131 2.97906 15.5006 2.70573 15.8267 2.62573C16.1528 2.55239 16.4871 2.70573 16.5849 2.97239C16.7887 3.55239 17.3513 4.01239 18.0606 4.17906C18.3867 4.25239 18.5742 4.53239 18.4845 4.79239C18.3949 5.01239 18.1503 5.15906 17.8812 5.15906Z" fill="#292D32"/>
</svg>
