<svg width="25" height="25" viewBox="0 0 25 25" fill="none" xmlns="http://www.w3.org/2000/svg">
<path d="M15.125 23.25H9.125C3.695 23.25 1.375 20.93 1.375 15.5V9.5C1.375 4.07 3.695 1.75 9.125 1.75H15.125C20.555 1.75 22.875 4.07 22.875 9.5V15.5C22.875 20.93 20.555 23.25 15.125 23.25ZM9.125 3.25C4.515 3.25 2.875 4.89 2.875 9.5V15.5C2.875 20.11 4.515 21.75 9.125 21.75H15.125C19.735 21.75 21.375 20.11 21.375 15.5V9.5C21.375 4.89 19.735 3.25 15.125 3.25H9.125Z" fill="#131314"/>
<path d="M9.125 11.25C7.605 11.25 6.375 10.02 6.375 8.5C6.375 6.98 7.605 5.75 9.125 5.75C10.645 5.75 11.875 6.98 11.875 8.5C11.875 10.02 10.645 11.25 9.125 11.25ZM9.125 7.25C8.435 7.25 7.875 7.81 7.875 8.5C7.875 9.19 8.435 9.75 9.125 9.75C9.815 9.75 10.375 9.19 10.375 8.5C10.375 7.81 9.815 7.25 9.125 7.25Z" fill="#131314"/>
<path d="M2.7938 20.2001C2.5538 20.2001 2.3138 20.0801 2.1738 19.8701C1.9438 19.5301 2.0338 19.0601 2.3838 18.8301L7.3138 15.5201C8.3938 14.7901 9.8838 14.8801 10.8638 15.7101L11.1938 16.0001C11.6938 16.4301 12.5438 16.4301 13.0338 16.0001L17.1938 12.4301C18.2538 11.5201 19.9238 11.5201 20.9938 12.4301L22.6238 13.8301C22.9338 14.1001 22.9738 14.5701 22.7038 14.8901C22.4338 15.2001 21.9638 15.2401 21.6438 14.9701L20.0138 13.5701C19.5138 13.1401 18.6638 13.1401 18.1638 13.5701L14.0038 17.1401C12.9438 18.0501 11.2738 18.0501 10.2038 17.1401L9.8738 16.8501C9.41379 16.4601 8.6538 16.4201 8.1438 16.7701L3.2138 20.0801C3.0838 20.1601 2.9338 20.2001 2.7938 20.2001Z" fill="#131314"/>
</svg>
