<svg width="20" height="20" viewBox="0 0 20 20" fill="none" xmlns="http://www.w3.org/2000/svg">
<rect x="1" y="1" width="18" height="18" rx="9" stroke="white" stroke-width="2"/>
<path d="M2 9.99958C2 10.9781 2.17603 11.9155 2.49759 12.7822L10 13.13L17.5024 12.7822C17.824 11.9155 18 10.9781 18 9.99958C18 9.02102 17.824 8.08364 17.5024 7.21698L10 6.86914L2.49759 7.21695C2.17603 8.08364 2 9.02102 2 9.99958V9.99958Z" fill="#FFDA44"/>
<path d="M9.9985 2C6.55878 2 3.62644 4.171 2.49609 7.21741H17.5009C16.3706 4.171 13.4382 2 9.9985 2Z" fill="#D80027"/>
<path d="M17.5009 12.7832H2.49609C3.62644 15.8296 6.55878 18.0006 9.9985 18.0006C13.4382 18.0006 16.3706 15.8296 17.5009 12.7832Z" fill="#496E2D"/>
<path d="M9.99997 7.2168L10.6906 9.34242H12.9258L11.1176 10.6563L11.8083 12.782L9.99997 11.4682L8.19169 12.782L8.88244 10.6563L7.07422 9.34242H9.30934L9.99997 7.2168Z" fill="black"/>
</svg>
