<svg width="16" height="16" viewBox="0 0 16 16" fill="none" xmlns="http://www.w3.org/2000/svg">
<path d="M10.6484 15.166H5.3151C3.0351 15.166 2.14844 14.2793 2.14844 11.9993V6.66602C2.14844 6.39268 2.3751 6.16602 2.64844 6.16602H13.3151C13.5884 6.16602 13.8151 6.39268 13.8151 6.66602V11.9993C13.8151 14.2793 12.9284 15.166 10.6484 15.166ZM3.14844 7.16602V11.9993C3.14844 13.7193 3.5951 14.166 5.3151 14.166H10.6484C12.3684 14.166 12.8151 13.7193 12.8151 11.9993V7.16602H3.14844Z" fill="#6F7076"/>
<path d="M13.0013 7.16732H3.0013C1.83464 7.16732 1.16797 6.50065 1.16797 5.33398V4.66732C1.16797 3.50065 1.83464 2.83398 3.0013 2.83398H13.0013C14.1346 2.83398 14.8346 3.53398 14.8346 4.66732V5.33398C14.8346 6.46732 14.1346 7.16732 13.0013 7.16732ZM3.0013 3.83398C2.39464 3.83398 2.16797 4.06065 2.16797 4.66732V5.33398C2.16797 5.94065 2.39464 6.16732 3.0013 6.16732H13.0013C13.588 6.16732 13.8346 5.92065 13.8346 5.33398V4.66732C13.8346 4.08065 13.588 3.83398 13.0013 3.83398H3.0013Z" fill="#6F7076"/>
<path d="M7.76071 3.8326H4.08071C3.94071 3.8326 3.80738 3.7726 3.71405 3.6726C3.30738 3.22594 3.32071 2.53927 3.74738 2.1126L4.69405 1.16594C5.13405 0.725937 5.86071 0.725937 6.30071 1.16594L8.11405 2.97927C8.25405 3.11927 8.30071 3.33927 8.22071 3.52594C8.14738 3.7126 7.96738 3.8326 7.76071 3.8326ZM4.44738 2.8326H6.56071L5.59405 1.8726C5.54071 1.81927 5.45405 1.81927 5.40071 1.8726L4.45405 2.81927C4.45405 2.82594 4.44738 2.82594 4.44738 2.8326Z" fill="#6F7076"/>
<path d="M11.9134 3.8326H8.23339C8.03339 3.8326 7.84672 3.7126 7.77339 3.52594C7.69339 3.33927 7.74006 3.12594 7.88006 2.97927L9.69339 1.16594C10.1334 0.725937 10.8601 0.725937 11.3001 1.16594L12.2467 2.1126C12.6734 2.53927 12.6934 3.22594 12.2801 3.6726C12.1867 3.7726 12.0534 3.8326 11.9134 3.8326ZM9.44672 2.8326H11.5601C11.5534 2.82594 11.5534 2.82594 11.5467 2.81927L10.6001 1.8726C10.5467 1.81927 10.4601 1.81927 10.4067 1.8726L9.44672 2.8326Z" fill="#6F7076"/>
<path d="M6.6276 11.266C6.44094 11.266 6.2476 11.2193 6.07427 11.126C5.69427 10.9193 5.46094 10.526 5.46094 10.0993V6.66602C5.46094 6.39268 5.6876 6.16602 5.96094 6.16602H9.9876C10.2609 6.16602 10.4876 6.39268 10.4876 6.66602V10.086C10.4876 10.5193 10.2543 10.9127 9.87427 11.1127C9.49427 11.3193 9.03427 11.2927 8.67427 11.0527L8.08094 10.6527C8.0276 10.6127 7.95427 10.6127 7.89427 10.6527L7.2676 11.066C7.07427 11.1993 6.8476 11.266 6.6276 11.266ZM6.46094 7.16602V10.0927C6.46094 10.1793 6.51427 10.2193 6.5476 10.2393C6.58094 10.2593 6.6476 10.2793 6.72094 10.2327L7.3476 9.81935C7.74094 9.55935 8.2476 9.55935 8.63427 9.81935L9.22761 10.2193C9.30094 10.266 9.36761 10.246 9.40094 10.226C9.43427 10.206 9.4876 10.166 9.4876 10.0793V7.15935H6.46094V7.16602Z" fill="#6F7076"/>
</svg>
