<svg width="16" height="16" viewBox="0 0 16 16" fill="none" xmlns="http://www.w3.org/2000/svg">
<path d="M14.6673 15.167H1.33398C1.06065 15.167 0.833984 14.9403 0.833984 14.667C0.833984 14.3937 1.06065 14.167 1.33398 14.167H14.6673C14.9406 14.167 15.1673 14.3937 15.1673 14.667C15.1673 14.9403 14.9406 15.167 14.6673 15.167Z" fill="#8D8E96"/>
<path d="M9.5 15.1663H6.5C6.22667 15.1663 6 14.9397 6 14.6663V2.66634C6 1.51967 6.63333 0.833008 7.7 0.833008H8.3C9.36667 0.833008 10 1.51967 10 2.66634V14.6663C10 14.9397 9.77333 15.1663 9.5 15.1663ZM7 14.1663H9V2.66634C9 1.89967 8.64 1.83301 8.3 1.83301H7.7C7.36 1.83301 7 1.89967 7 2.66634V14.1663Z" fill="#8D8E96"/>
<path d="M4.66667 15.1663H2C1.72667 15.1663 1.5 14.9397 1.5 14.6663V6.66634C1.5 5.51967 2.08667 4.83301 3.06667 4.83301H3.6C4.58 4.83301 5.16667 5.51967 5.16667 6.66634V14.6663C5.16667 14.9397 4.94 15.1663 4.66667 15.1663ZM2.5 14.1663H4.16667V6.66634C4.16667 5.83301 3.8 5.83301 3.6 5.83301H3.06667C2.86667 5.83301 2.5 5.83301 2.5 6.66634V14.1663Z" fill="#8D8E96"/>
<path d="M14.0007 15.167H11.334C11.0607 15.167 10.834 14.9403 10.834 14.667V10.0003C10.834 8.85366 11.4207 8.16699 12.4007 8.16699H12.934C13.914 8.16699 14.5007 8.85366 14.5007 10.0003V14.667C14.5007 14.9403 14.274 15.167 14.0007 15.167ZM11.834 14.167H13.5007V10.0003C13.5007 9.16699 13.134 9.16699 12.934 9.16699H12.4007C12.2007 9.16699 11.834 9.16699 11.834 10.0003V14.167Z" fill="#8D8E96"/>
</svg>
