<svg width="25" height="25" viewBox="0 0 25 25" fill="none" xmlns="http://www.w3.org/2000/svg">
<path d="M15.625 23.25H9.625C4.195 23.25 1.875 20.93 1.875 15.5V9.5C1.875 4.07 4.195 1.75 9.625 1.75H15.625C21.055 1.75 23.375 4.07 23.375 9.5V15.5C23.375 20.93 21.055 23.25 15.625 23.25ZM9.625 3.25C5.015 3.25 3.375 4.89 3.375 9.5V15.5C3.375 20.11 5.015 21.75 9.625 21.75H15.625C20.235 21.75 21.875 20.11 21.875 15.5V9.5C21.875 4.89 20.235 3.25 15.625 3.25H9.625Z" fill="#131314"/>
<path d="M16.125 11C14.885 11 13.875 9.99 13.875 8.75C13.875 7.51 14.885 6.5 16.125 6.5C17.365 6.5 18.375 7.51 18.375 8.75C18.375 9.99 17.365 11 16.125 11ZM16.125 8C15.715 8 15.375 8.34 15.375 8.75C15.375 9.16 15.715 9.5 16.125 9.5C16.535 9.5 16.875 9.16 16.875 8.75C16.875 8.34 16.535 8 16.125 8Z" fill="#131314"/>
<path d="M9.125 11C7.885 11 6.875 9.99 6.875 8.75C6.875 7.51 7.885 6.5 9.125 6.5C10.365 6.5 11.375 7.51 11.375 8.75C11.375 9.99 10.365 11 9.125 11ZM9.125 8C8.715 8 8.375 8.34 8.375 8.75C8.375 9.16 8.715 9.5 9.125 9.5C9.535 9.5 9.875 9.16 9.875 8.75C9.875 8.34 9.535 8 9.125 8Z" fill="#131314"/>
<path d="M12.625 19.9498C9.725 19.9498 7.375 17.5898 7.375 14.6998C7.375 13.7898 8.115 13.0498 9.025 13.0498H16.225C17.135 13.0498 17.875 13.7898 17.875 14.6998C17.875 17.5898 15.525 19.9498 12.625 19.9498ZM9.025 14.5498C8.945 14.5498 8.875 14.6198 8.875 14.6998C8.875 16.7698 10.555 18.4498 12.625 18.4498C14.695 18.4498 16.375 16.7698 16.375 14.6998C16.375 14.6198 16.305 14.5498 16.225 14.5498H9.025Z" fill="#131314"/>
</svg>
