<svg width="20" height="24" viewBox="0 0 20 24" fill="none" xmlns="http://www.w3.org/2000/svg">
<path d="M15.5071 7.67792C15.0069 7.13187 14.2293 6.39486 13.8985 8.05901C13.786 8.62484 13.5232 9.06101 13.298 9.4122C13.0552 8.18351 12.3248 6.91175 11.6366 6.05426C11.3791 5.73345 10.4653 4.45812 10.2897 2.32456C10.2635 2.00614 9.8853 1.85661 9.64872 2.07139C7.38785 4.12376 6.14688 6.94648 6.1008 10.1243C6.1008 10.1243 5.15936 9.33073 4.64791 7.85445C4.51019 7.4569 3.97722 7.38106 3.74599 7.73257C3.70288 7.7981 3.66196 7.86504 3.62331 7.93329C1.87895 11.0177 1.03984 14.7632 1.81558 18.2479C3.11261 24.0837 11.6923 25.7152 16.2345 22.0473C20.6785 18.4587 19.2658 11.7796 15.5071 7.67792Z" fill="#8D8E96"/>
<path d="M3.02284 18.6156C2.25611 15.0936 3.0677 11.3116 4.77109 8.17894C4.72682 8.07247 4.68572 7.9647 4.64786 7.85578C4.51014 7.45824 3.97717 7.38239 3.74594 7.73391C3.70285 7.79944 3.66195 7.86638 3.62331 7.93463C1.87895 11.019 1.03984 14.7646 1.81558 18.2492C2.40719 20.9111 4.51413 22.6977 7.06183 23.5062C5.07433 22.5435 3.51789 20.893 3.02284 18.6156ZM7.31402 10.0671C7.40819 7.18299 8.45134 4.59689 10.3184 2.61024C10.3073 2.51658 10.2978 2.42273 10.2899 2.32875C10.2631 2.00761 9.8987 1.84655 9.66316 2.05946C7.47949 4.03374 6.14852 6.82791 6.10075 10.1255L6.50945 10.4429C6.71074 10.5992 6.98345 10.5924 7.17569 10.4492C7.29039 10.352 7.30684 10.2053 7.31402 10.0671Z" fill="#8D8E96"/>
<path d="M14.1356 11.944C13.7663 11.5407 13.1919 10.9963 12.9476 12.2255C12.8645 12.6434 12.6703 12.9656 12.5041 13.225C12.3248 12.3175 11.7852 11.3781 11.2769 10.7448C11.0867 10.5078 10.4118 9.56585 10.2821 7.98987C10.2627 7.75465 9.9834 7.64426 9.80865 7.80288C8.13873 9.31877 7.22209 11.4038 7.18811 13.7509C7.18811 13.7509 6.49272 13.1648 6.115 12.0744C6.01328 11.7807 5.61958 11.7247 5.44881 11.9844C5.41697 12.0328 5.38675 12.0822 5.3582 12.1326C4.06975 14.4108 3.44997 17.1773 4.02292 19.7512C4.98095 24.0617 11.3181 25.2668 14.673 22.5575C17.9554 19.907 16.912 14.9736 14.1356 11.944Z" fill="#A5A7AF"/>
<path d="M5.21781 20.0894C4.71053 17.5733 5.23595 14.8735 6.34994 12.6254C6.25897 12.4474 6.18045 12.2633 6.11495 12.0745C6.01323 11.7808 5.61953 11.7248 5.44877 11.9844C5.41692 12.0328 5.3867 12.0823 5.35816 12.1327C4.06975 14.4109 3.45002 17.1774 4.02287 19.7513C4.46847 21.756 6.07773 23.0886 8.00917 23.6685C6.63691 22.9803 5.55644 21.7712 5.21781 20.0894Z" fill="#A5A7AF"/>
<path d="M12.8844 15.84C12.6344 15.567 12.2455 15.1984 12.0801 16.0305C12.0239 16.3135 11.8924 16.5315 11.7798 16.7071C11.6584 16.0927 11.2933 15.4569 10.9491 15.0281C10.8204 14.8677 10.3635 14.2301 10.2757 13.1633C10.2625 13.004 10.0735 12.9293 9.95518 13.0367C8.82474 14.0629 8.20426 15.4743 8.18124 17.0631C8.18124 17.0631 7.71048 16.6663 7.45482 15.9282C7.38596 15.7295 7.11948 15.6916 7.00388 15.8673C6.98232 15.9001 6.96185 15.9335 6.94252 15.9677C6.07037 17.5098 5.65079 19.3826 6.03863 21.125C6.68715 24.0429 10.977 24.8587 13.2481 23.0247C14.0258 22.3967 14.508 21.5117 14.6057 20.5328C14.7534 19.0502 14.1827 17.2568 12.8844 15.84Z" fill="#BDBFC9"/>
<path d="M11.7229 19.4531C11.5835 19.301 11.3669 19.0957 11.2748 19.5593C11.2435 19.7169 11.1702 19.8384 11.1075 19.9362C11.0398 19.5939 10.8364 19.2397 10.6447 19.0008C10.573 18.9114 10.3184 18.5562 10.2694 17.9618C10.2621 17.8731 10.1568 17.8315 10.0909 17.8913C9.46113 18.463 9.11538 19.2494 9.10258 20.1346C9.10258 20.1346 8.84032 19.9135 8.69787 19.5023C8.65948 19.3915 8.51102 19.3703 8.44666 19.4683C8.43429 19.4871 8.42285 19.506 8.41254 19.5242C7.92663 20.3835 7.69287 21.4268 7.90896 22.3975C8.40105 24.6115 12.4346 24.5444 12.682 22.0676C12.7641 21.2416 12.4462 20.2424 11.7229 19.4531Z" fill="#E0E2EE"/>
<path d="M8.8445 22.8368C8.6284 21.9685 8.86217 21.0352 9.34808 20.2666C9.35839 20.2502 9.36987 20.2334 9.3822 20.2166C9.44661 20.129 9.59506 20.1479 9.6334 20.2469C9.77586 20.6148 10.0381 20.8126 10.0381 20.8126C10.0487 20.1619 10.2844 19.5713 10.7172 19.0976C10.6205 18.9635 10.3243 18.6403 10.2685 17.9618C10.2612 17.8731 10.1558 17.8315 10.0899 17.8913C9.46016 18.463 9.1144 19.2494 9.10161 20.1346C9.10161 20.1346 8.83934 19.9135 8.69689 19.5023C8.65855 19.3915 8.51005 19.3704 8.44569 19.4684C8.43331 19.4872 8.42187 19.506 8.41156 19.5243C7.92566 20.3835 7.69189 21.4268 7.90798 22.3976C8.10795 23.2973 8.92948 23.8381 9.83773 23.9686C9.3478 23.728 8.97125 23.347 8.8445 22.8368Z" fill="#D3D5E0"/>
<path d="M6.65274 3.18961C7.66641 2.36512 7.66416 0.822609 6.65274 0C5.63907 0.824437 5.64127 2.367 6.65274 3.18961ZM18.8025 9.80686C19.8162 8.98238 19.8139 7.43986 18.8025 6.61725C18.3392 6.99403 17.7911 8.98425 18.8025 9.80686ZM0.849005 10.4347C1.57955 9.84042 1.57796 8.72878 0.849005 8.13586C0.515115 8.40741 0.120052 9.84178 0.849005 10.4347ZM13.5017 5.48841C14.2322 4.89417 14.2306 3.78253 13.5017 3.18961C12.7711 3.7838 12.7728 4.89553 13.5017 5.48841Z" fill="#8D8E96"/>
<path d="M8.12059 13.3739C8.28835 11.3934 9.04468 9.63232 10.3146 8.28977C10.3015 8.19008 10.2907 8.09009 10.2825 7.98987C10.2631 7.75465 9.98382 7.64426 9.80907 7.80288C8.48579 9.0041 7.63651 10.563 7.32366 12.3262L7.32319 12.326C7.29597 12.4824 7.27258 12.6395 7.25302 12.797C7.25307 12.7971 7.25313 12.7973 7.25321 12.7974C7.21469 13.1138 7.19309 13.4322 7.18848 13.7509C7.22382 13.7578 8.02388 14.1691 8.12059 13.3739Z" fill="#A5A7AF"/>
<path d="M7.20765 21.5389C6.86288 19.9112 7.15651 18.1754 7.83863 16.6714C7.67596 16.4432 7.54673 16.1929 7.45487 15.9282C7.38596 15.7294 7.11952 15.6915 7.00388 15.8672C6.98232 15.9 6.96185 15.9335 6.94252 15.9676C6.07037 17.5098 5.65079 19.3825 6.03863 21.1249C6.34238 22.4914 7.44474 23.3969 8.76432 23.785C7.99623 23.2751 7.41521 22.5204 7.20765 21.5389ZM9.42582 16.3518C9.5401 15.535 9.87418 14.6351 10.4001 13.8827C10.3428 13.6703 10.2977 13.4302 10.2758 13.1633C10.2626 13.004 10.0735 12.9293 9.95527 13.0367C9.25093 13.6761 8.74538 14.4654 8.45818 15.3536L8.45743 15.3535C8.41224 15.493 8.34835 15.7242 8.30963 15.9067C8.30996 15.9066 8.31029 15.9066 8.31062 15.9064C8.22993 16.2868 8.18666 16.6742 8.18143 17.0631C8.81387 17.142 9.33704 16.9854 9.42582 16.3518Z" fill="#BDBFC9"/>
</svg>
