<svg width="12" height="12" viewBox="0 0 12 12" fill="none" xmlns="http://www.w3.org/2000/svg">
<path d="M6 11.375C3.035 11.375 0.625 8.965 0.625 6C0.625 3.035 3.035 0.625 6 0.625C8.965 0.625 11.375 3.035 11.375 6C11.375 8.965 8.965 11.375 6 11.375ZM6 1.375C3.45 1.375 1.375 3.45 1.375 6C1.375 8.55 3.45 10.625 6 10.625C8.55 10.625 10.625 8.55 10.625 6C10.625 3.45 8.55 1.375 6 1.375Z" fill="#8D8E96"/>
<path d="M6 6.875C5.795 6.875 5.625 6.705 5.625 6.5V4C5.625 3.795 5.795 3.625 6 3.625C6.205 3.625 6.375 3.795 6.375 4V6.5C6.375 6.705 6.205 6.875 6 6.875Z" fill="#8D8E96"/>
<path d="M6 8.49945C5.935 8.49945 5.87 8.48445 5.81 8.45945C5.75 8.43445 5.695 8.39945 5.645 8.35445C5.6 8.30445 5.565 8.25445 5.54 8.18945C5.515 8.12945 5.5 8.06445 5.5 7.99945C5.5 7.93445 5.515 7.86945 5.54 7.80945C5.565 7.74945 5.6 7.69445 5.645 7.64445C5.695 7.59945 5.75 7.56445 5.81 7.53945C5.93 7.48945 6.07 7.48945 6.19 7.53945C6.25 7.56445 6.305 7.59945 6.355 7.64445C6.4 7.69445 6.435 7.74945 6.46 7.80945C6.485 7.86945 6.5 7.93445 6.5 7.99945C6.5 8.06445 6.485 8.12945 6.46 8.18945C6.435 8.25445 6.4 8.30445 6.355 8.35445C6.305 8.39945 6.25 8.43445 6.19 8.45945C6.13 8.48445 6.065 8.49945 6 8.49945Z" fill="#8D8E96"/>
</svg>
