<svg width="16" height="16" viewBox="0 0 16 16" fill="none" xmlns="http://www.w3.org/2000/svg">
<path d="M10.9989 12.1673H9.99219C9.71885 12.1673 9.49219 11.9407 9.49219 11.6673C9.49219 11.394 9.71885 11.1673 9.99219 11.1673H10.9989C12.7455 11.1673 14.1655 9.74732 14.1655 8.00065C14.1655 6.25398 12.7455 4.83398 10.9989 4.83398H9.99885C9.72552 4.83398 9.49885 4.60732 9.49885 4.33398C9.49885 4.06065 9.71885 3.83398 9.99885 3.83398H10.9989C13.2989 3.83398 15.1655 5.70065 15.1655 8.00065C15.1655 10.3007 13.2989 12.1673 10.9989 12.1673Z" fill="#6F7076"/>
<path d="M5.9987 12.1673H4.9987C2.6987 12.1673 0.832031 10.3007 0.832031 8.00065C0.832031 5.70065 2.6987 3.83398 4.9987 3.83398H5.9987C6.27203 3.83398 6.4987 4.06065 6.4987 4.33398C6.4987 4.60732 6.27203 4.83398 5.9987 4.83398H4.9987C3.25203 4.83398 1.83203 6.25398 1.83203 8.00065C1.83203 9.74732 3.25203 11.1673 4.9987 11.1673H5.9987C6.27203 11.1673 6.4987 11.394 6.4987 11.6673C6.4987 11.9407 6.27203 12.1673 5.9987 12.1673Z" fill="#6F7076"/>
<path d="M10.6654 8.5H5.33203C5.0587 8.5 4.83203 8.27333 4.83203 8C4.83203 7.72667 5.0587 7.5 5.33203 7.5H10.6654C10.9387 7.5 11.1654 7.72667 11.1654 8C11.1654 8.27333 10.9387 8.5 10.6654 8.5Z" fill="#6F7076"/>
</svg>
