<svg width="16" height="16" viewBox="0 0 16 16" fill="none" xmlns="http://www.w3.org/2000/svg">
<path d="M12.5007 8.33301H1.33398C1.06065 8.33301 0.833984 8.10634 0.833984 7.83301C0.833984 7.55967 1.06065 7.33301 1.33398 7.33301H12.5007C12.774 7.33301 13.0007 7.55967 13.0007 7.83301C13.0007 8.10634 12.774 8.33301 12.5007 8.33301Z" fill="#2599F6"/>
<path d="M8.50065 13.333C8.22732 13.333 1.33398 13.333 1.33398 13.333C1.06065 13.333 0.833984 13.1063 0.833984 12.833C0.833984 12.5597 1.06065 12.333 1.33398 12.333H8.50065C8.77398 12.333 9.00065 12.5597 9.00065 12.833C9.00065 13.1063 8.77398 13.333 8.50065 13.333Z" fill="#2599F6"/>
<path d="M14.6673 3.66699H1.33398C1.06065 3.66699 0.833984 3.44033 0.833984 3.16699C0.833984 2.89366 1.06065 2.66699 1.33398 2.66699H14.6673C14.9406 2.66699 15.1673 2.89366 15.1673 3.16699C15.1673 3.44033 14.9406 3.66699 14.6673 3.66699Z" fill="#2599F6"/>
</svg>
