<svg width="39" height="24" viewBox="0 0 39 24" fill="none" xmlns="http://www.w3.org/2000/svg">
<path d="M36.4316 0.377359C37.4772 0.377359 38.3279 1.228 38.3279 2.27366V21.7378C38.3279 22.7834 37.4772 23.6341 36.4316 23.6341H2.3386C1.29302 23.6341 0.4423 22.7835 0.4423 21.7378V2.27366C0.4423 1.22808 1.29294 0.377359 2.3386 0.377359H36.4316ZM36.4316 0H2.3386C1.0829 0 0.0649414 1.01796 0.0649414 2.27366V21.7378C0.0649414 22.9936 1.0829 24.0115 2.3386 24.0115H36.4316C37.6874 24.0115 38.7052 22.9936 38.7052 21.7378V2.27366C38.7052 1.01796 37.6873 0 36.4316 0Z" fill="#E30613"/>
<path fill-rule="evenodd" clip-rule="evenodd" d="M19.4388 19.3941C21.148 20.969 23.4434 21.9241 25.94 21.9241C31.3013 21.9241 35.641 17.5512 35.641 12.1726C35.641 6.77777 31.3013 2.40479 25.94 2.40479C23.4434 2.40479 21.1481 3.35973 19.4388 4.93475C17.4787 6.72735 16.2388 9.3078 16.2388 12.1726C16.2388 15.0378 17.4788 17.6183 19.4388 19.3941Z" fill="#FAB31E"/>
<path fill-rule="evenodd" clip-rule="evenodd" d="M22.5721 11.1338C22.5386 10.782 22.4717 10.4469 22.4044 10.095H16.4733C16.5404 9.7432 16.6407 9.40803 16.7412 9.07294H22.1198C22.0022 8.72131 21.8682 8.36931 21.7174 8.03422H17.1602C17.3278 7.6826 17.512 7.3306 17.7131 6.9955H21.1478C20.93 6.64365 20.6788 6.29173 20.4106 5.97346H18.4502C18.7535 5.60328 19.0839 5.25609 19.4386 4.93475C17.7131 3.37648 15.4343 2.40479 12.9212 2.40479C7.57652 2.40479 3.22021 6.77777 3.22021 12.1726C3.22021 17.5512 7.57652 21.9241 12.9212 21.9241C15.4344 21.9241 17.7131 20.969 19.4386 19.3941C19.7879 19.0784 20.1128 18.7367 20.4106 18.372H18.4502C18.1821 18.0369 17.9475 17.7018 17.713 17.3332H21.1478C21.3637 17.002 21.5541 16.6547 21.7173 16.2944H17.1601C17.0091 15.9594 16.8586 15.6243 16.7411 15.2723H22.1197C22.2369 14.9372 22.3205 14.5855 22.4043 14.2335C22.4716 13.8985 22.5385 13.5464 22.5721 13.1947C22.6055 12.8597 22.6223 12.5246 22.6223 12.1726C22.6224 11.8209 22.6056 11.4689 22.5721 11.1338Z" fill="#E40520"/>
<path fill-rule="evenodd" clip-rule="evenodd" d="M34.3506 14.4348C34.3506 14.2507 34.4845 14.1167 34.6522 14.1167C34.8363 14.1167 34.9704 14.2507 34.9704 14.4348C34.9704 14.6024 34.8364 14.7534 34.6522 14.7534C34.4845 14.7534 34.3506 14.6024 34.3506 14.4348ZM34.6522 14.6693C34.7861 14.6693 34.9034 14.5689 34.9034 14.4348C34.9034 14.3007 34.7861 14.2002 34.6522 14.2002C34.5349 14.2002 34.4176 14.3007 34.4176 14.4348C34.4176 14.5689 34.535 14.6693 34.6522 14.6693ZM34.6187 14.5688H34.5516V14.3006H34.7359C34.7695 14.3177 34.7695 14.3512 34.7695 14.3846C34.7695 14.4013 34.7528 14.4347 34.7192 14.4517L34.7862 14.5688H34.7025L34.669 14.4683H34.6187V14.5688V14.4182H34.6522C34.669 14.4182 34.6859 14.4182 34.6859 14.4013C34.7025 14.4013 34.7025 14.3846 34.7025 14.3679C34.7025 14.3679 34.7025 14.3512 34.6859 14.3512C34.6859 14.3341 34.6689 14.3512 34.6522 14.3512H34.6187V14.5688H34.6187Z" fill="white"/>
<path fill-rule="evenodd" clip-rule="evenodd" d="M16.1382 14.9878C15.82 15.0714 15.5855 15.1217 15.3509 15.1217C14.8481 15.1217 14.5465 14.8032 14.5465 14.2337C14.5465 14.1166 14.5633 13.9991 14.58 13.865L14.647 13.4795L14.6974 13.1614L15.1498 10.4136H16.1551L16.0376 11.0167H16.6744L16.5237 12.0221H15.887L15.619 13.664C15.602 13.748 15.602 13.798 15.602 13.8315C15.602 14.0497 15.7025 14.1331 15.9541 14.1331C16.0711 14.1331 16.1717 14.1166 16.2722 14.0996L16.1382 14.9878ZM19.3888 14.9543C19.0203 15.0549 18.6852 15.105 18.3163 15.105C17.1771 15.105 16.5237 14.5018 16.5237 13.3121C16.5237 11.9217 17.2944 10.9163 18.3666 10.9163C19.2213 10.9163 19.7741 11.4861 19.7741 12.3739C19.7741 12.6754 19.7406 12.9604 19.6569 13.3625H17.5624C17.5455 13.4296 17.5455 13.4631 17.5455 13.4965C17.5455 13.9657 17.864 14.2001 18.4671 14.2001C18.8526 14.2001 19.1877 14.1167 19.5563 13.949L19.3888 14.9543ZM18.7687 12.5583V12.3573C18.7687 12.0223 18.5847 11.8378 18.2661 11.8378C17.9311 11.8378 17.6964 12.0893 17.596 12.5583H18.7687ZM8.09603 15.0379H7.05724L7.66041 11.2346L6.30328 15.0379H5.58282L5.49897 11.2515L4.86237 15.0379H3.84033L4.66131 10.0953H6.18607L6.2195 13.1445L7.24146 10.0953H8.91694L8.09603 15.0379ZM10.6261 13.245C10.5255 13.2284 10.492 13.2284 10.425 13.2284C9.82169 13.2284 9.52018 13.463 9.52018 13.8315C9.52018 14.0831 9.67097 14.2506 9.90554 14.2506C10.4082 14.2507 10.6093 13.8316 10.6261 13.245ZM11.4637 15.0379H10.559L10.5758 14.6192C10.3412 14.9373 10.0228 15.105 9.46999 15.105C8.96728 15.105 8.53165 14.6528 8.53165 13.9992C8.53165 13.8152 8.56531 13.6476 8.61535 13.4796C8.7829 12.8598 9.4029 12.4745 10.358 12.4579C10.4751 12.4579 10.6594 12.4579 10.827 12.4745C10.8606 12.3404 10.8606 12.2903 10.8606 12.2063C10.8606 11.9383 10.6427 11.8548 10.1568 11.8548C9.8552 11.8548 9.52011 11.9047 9.28554 11.9887L9.1349 12.0222L9.06788 12.0388L9.2186 11.1341C9.70448 10.9835 10.0564 10.9163 10.4418 10.9163C11.3464 10.9163 11.8323 11.3352 11.8323 12.1058C11.8323 12.3069 11.8491 12.4579 11.7821 12.8934L11.5475 14.3343L11.514 14.5857L11.4972 14.7869L11.4805 14.9208L11.4637 15.0379ZM24.4486 11.0505C24.7501 11.0505 25.0183 11.1341 25.3867 11.3186L25.5712 10.2461C25.4707 10.1958 25.4372 10.1958 25.3031 10.1457L24.8841 10.0283C24.7501 9.99478 24.5827 9.97803 24.3982 9.97803C23.8789 9.97803 23.5774 9.99478 23.2591 10.1792C23.0915 10.2964 22.8737 10.4472 22.6391 10.7153L22.5051 10.6818L21.4327 11.4357L21.483 11.0169H20.3772L19.7239 15.038H20.7794L21.1646 12.8765C21.1646 12.8765 21.3154 12.5749 21.3824 12.4745C21.5834 12.2233 21.751 12.2233 21.9689 12.2233H22.0528C22.019 12.4579 22.0023 12.709 22.0023 12.994C22.0023 14.3007 22.7397 15.1218 23.8789 15.1218C24.1637 15.1218 24.4151 15.0884 24.8004 14.9878L24.9846 13.8486C24.6495 14.0327 24.3479 14.1167 24.0966 14.1167C23.4768 14.1167 23.1083 13.6476 23.1083 12.91C23.1084 11.8211 23.6612 11.0505 24.4486 11.0505ZM33.3455 10.0953L33.111 11.5026C32.8596 11.1175 32.5581 10.933 32.156 10.933C31.6029 10.933 31.0836 11.2515 30.7652 11.8547V11.8377L30.095 11.4355L30.1621 11.0167H29.0396L28.4029 15.0378H29.4418L29.7935 12.8764C29.7935 12.8764 30.0615 12.5748 30.1286 12.4743C30.2961 12.2733 30.4637 12.2397 30.5977 12.2232C30.4804 12.5582 30.4135 12.9604 30.4135 13.4125C30.4135 14.4181 30.9329 15.0882 31.7037 15.0882C32.089 15.0882 32.3906 14.9543 32.6754 14.6357L32.6252 15.0378H33.6136L34.4178 10.0952L33.3455 10.0953ZM32.0555 14.0832C31.7036 14.0832 31.5193 13.8151 31.5193 13.2955C31.5193 12.5078 31.8541 11.9383 32.3402 11.9383C32.7089 11.9383 32.8932 12.2232 32.8932 12.726C32.8932 13.5301 32.5581 14.0832 32.0555 14.0832ZM27.2132 13.245C27.1126 13.2284 27.0791 13.2284 27.0122 13.2284C26.409 13.2284 26.1074 13.463 26.1074 13.8315C26.1074 14.0831 26.2583 14.2506 26.4928 14.2506C26.9953 14.2507 27.1965 13.8316 27.2132 13.245ZM28.0509 15.0379H27.1294L27.163 14.6192C26.9284 14.9373 26.6101 15.105 26.0572 15.105C25.5378 15.105 25.0853 14.6693 25.0853 13.9992C25.0853 13.0441 25.8059 12.4579 26.9452 12.4579C27.0624 12.4579 27.2467 12.4579 27.3975 12.4745C27.431 12.3404 27.4478 12.2903 27.4478 12.2063C27.4478 11.9383 27.2301 11.8548 26.7274 11.8548C26.4426 11.8548 26.0907 11.9047 25.8563 11.9887L25.7222 12.0222L25.6551 12.0388L25.8059 11.1341C26.2918 10.9835 26.6436 10.9163 27.0289 10.9163C27.9336 10.9163 28.4029 11.3352 28.4029 12.1058C28.4029 12.3069 28.4362 12.4579 28.3525 12.8934L28.1346 14.3343L28.1012 14.5857L28.0677 14.7869L28.0509 14.9208V15.0379ZM13.6586 11.8712C13.8597 11.8712 14.1445 11.8882 14.4461 11.9383L14.5969 11.0001C14.2953 10.9666 13.8931 10.9163 13.6586 10.9163C12.4858 10.9163 12.1003 11.5531 12.1003 12.2903C12.1003 12.7761 12.3183 13.128 12.8879 13.3961C13.3067 13.597 13.3738 13.6306 13.3738 13.8151C13.3738 14.0663 13.156 14.2172 12.7538 14.2172C12.4355 14.2172 12.134 14.1667 11.7988 14.0496L11.6815 14.9709L11.6983 14.9878L11.8994 15.0213C11.9663 15.0379 12.0503 15.0548 12.1675 15.0714C12.4188 15.0883 12.6366 15.1049 12.7706 15.1049C13.9435 15.1049 14.4294 14.6527 14.4294 13.7645C14.4294 13.2114 14.1612 12.8764 13.6418 12.6418C13.1895 12.4408 13.1392 12.4073 13.1392 12.2232C13.1392 12.0388 13.3403 11.8712 13.6586 11.8712Z" fill="#06326E"/>
<path fill-rule="evenodd" clip-rule="evenodd" d="M25.8568 9.92776L25.6724 11C25.3036 10.8158 25.0356 10.7319 24.734 10.7319C23.9466 10.7319 23.3936 11.5026 23.3936 12.5918C23.3936 13.3456 23.7623 13.798 24.3821 13.798C24.6334 13.798 24.935 13.7146 25.2701 13.5466L25.0859 14.6693C24.7005 14.7698 24.4492 14.8202 24.1645 14.8202C23.0251 14.8202 22.3214 13.9991 22.3214 12.6754C22.3214 10.9162 23.2932 9.67651 24.6838 9.67651C24.868 9.67651 25.0356 9.69327 25.1698 9.72678L25.5886 9.82731C25.7227 9.87749 25.756 9.89425 25.8568 9.92776ZM22.4723 10.6649H22.3717C22.0196 10.6649 21.8187 10.8324 21.5003 11.3185L21.6008 10.6984H20.646L19.9925 14.7197H21.0479C21.4333 12.2567 21.5338 11.8376 22.0365 11.8376H22.1035C22.204 11.3519 22.338 10.9999 22.5057 10.6816L22.4723 10.6649ZM16.4068 14.6692C16.1222 14.7697 15.8877 14.8032 15.6531 14.8032C15.1168 14.8032 14.8152 14.5016 14.8152 13.9155C14.8152 13.8149 14.8319 13.6805 14.8487 13.5635L14.9158 13.1613L14.966 12.8428L15.4186 10.0952H16.4573L16.3398 10.6983H16.8759L16.742 11.687H16.2058L15.9212 13.3623C15.9043 13.4294 15.9043 13.4795 15.9043 13.5299C15.9043 13.731 16.0048 13.8149 16.2563 13.8149C16.3734 13.8149 16.4741 13.8149 16.5411 13.7814L16.4068 14.6692ZM12.3691 11.9717C12.3691 12.4743 12.6036 12.8263 13.1565 13.0944C13.5922 13.2954 13.6592 13.3624 13.6592 13.5299C13.6592 13.7814 13.475 13.8986 13.056 13.8986C12.7377 13.8986 12.4528 13.8484 12.1177 13.748L11.9668 14.6692L12.0171 14.6862L12.2015 14.7197C12.2685 14.7362 12.3523 14.7532 12.4863 14.7532C12.7209 14.7866 12.9219 14.7866 13.056 14.7866C14.1618 14.7866 14.6812 14.3677 14.6812 13.4462C14.6812 12.8932 14.4634 12.5747 13.944 12.3236C13.4916 12.1226 13.4413 12.0721 13.4413 11.8881C13.4413 11.6701 13.6257 11.5695 13.9608 11.5695C14.1617 11.5695 14.4467 11.5865 14.7147 11.62L14.8654 10.6983C14.5974 10.6481 14.1786 10.6145 13.944 10.6145C12.7711 10.6146 12.3523 11.2345 12.3691 11.9717ZM33.8821 14.7197H32.8937L32.9439 14.3341C32.6591 14.6357 32.3574 14.7697 31.9722 14.7697C31.2012 14.7697 30.6987 14.1166 30.6987 13.1109C30.6987 11.7707 31.4862 10.6314 32.4078 10.6314C32.8266 10.6314 33.1282 10.8157 33.413 11.1844L33.6476 9.77674H34.6865L33.8821 14.7197ZM32.3407 13.7815C32.8266 13.7815 33.1617 13.2114 33.1617 12.4244C33.1617 11.9047 32.9774 11.6367 32.6089 11.6367C32.1397 11.6367 31.7877 12.1896 31.7877 12.977C31.7877 13.5133 31.9722 13.7815 32.3407 13.7815ZM19.6239 14.6357C19.2553 14.7533 18.9203 14.8032 18.5346 14.8032C17.362 14.8032 16.7588 14.1835 16.7588 12.9939C16.7588 11.6201 17.5294 10.5978 18.5852 10.5978C19.4563 10.5978 20.0092 11.1675 20.0092 12.0555C20.0092 12.3571 19.9756 12.6418 19.8752 13.0609H17.7975C17.7808 13.1109 17.7808 13.1444 17.7808 13.1779C17.7808 13.6475 18.0991 13.8819 18.7023 13.8819C19.0877 13.8819 19.4228 13.8149 19.7915 13.6305L19.6239 14.6357ZM19.0373 12.2397V12.0387C19.0373 11.7036 18.8532 11.5194 18.5346 11.5194C18.1996 11.5194 17.9651 11.7708 17.8645 12.2397H19.0373ZM8.36461 14.7197H7.3259L7.92899 10.9162L6.57186 14.7197H5.85133L5.76763 10.9496L5.13088 14.7197H4.15918L4.98016 9.77674H6.48809L6.53835 12.8429L7.54356 9.77674H9.1856L8.36461 14.7197ZM10.9616 12.9269C10.8611 12.9269 10.8108 12.9098 10.7271 12.9098C10.1406 12.9098 9.83903 13.1278 9.83903 13.5299C9.83903 13.7814 9.97307 13.9321 10.2076 13.9321C10.6433 13.9321 10.9449 13.53 10.9616 12.9269ZM11.7323 14.7197H10.8611L10.8778 14.3005C10.6097 14.6356 10.2578 14.7866 9.77201 14.7866C9.20242 14.7866 8.81707 14.3511 8.81707 13.6973C8.81707 12.7087 9.48718 12.1392 10.6599 12.1392C10.7772 12.1392 10.9282 12.1561 11.0956 12.1726C11.1291 12.0386 11.1291 11.9886 11.1291 11.9215C11.1291 11.6535 10.9449 11.553 10.459 11.553C10.1574 11.553 9.82227 11.5865 9.58778 11.6535L9.43699 11.7035L9.33646 11.7204L9.48725 10.8157C10.0066 10.6648 10.3586 10.6145 10.7439 10.6145C11.6485 10.6145 12.1345 11.0167 12.1345 11.7875C12.1345 11.9885 12.1177 12.1391 12.0508 12.5916L11.8161 14.0159L11.7826 14.267L11.7658 14.4681L11.7491 14.6189L11.7323 14.7197ZM27.5488 12.9269C27.4315 12.9269 27.3813 12.9098 27.3143 12.9098C26.7112 12.9098 26.4096 13.1278 26.4096 13.5299C26.4096 13.7814 26.5604 13.9321 26.795 13.9321C27.2137 13.9321 27.5321 13.53 27.5488 12.9269ZM28.3194 14.7197H27.4482L27.465 14.3005C27.197 14.6356 26.8451 14.7866 26.3593 14.7866C25.7897 14.7866 25.4044 14.3511 25.4044 13.6973C25.4044 12.7087 26.0745 12.1392 27.2473 12.1392C27.3645 12.1392 27.5153 12.1561 27.6662 12.1726C27.6996 12.0386 27.7164 11.9886 27.7164 11.9215C27.7164 11.6535 27.5322 11.553 27.0462 11.553C26.7447 11.553 26.3929 11.5865 26.1582 11.6535L26.0242 11.7035L25.9237 11.7204L26.0745 10.8157C26.5939 10.6648 26.9457 10.6145 27.331 10.6145C28.2357 10.6145 28.705 11.0167 28.705 11.7875C28.705 11.9885 28.705 12.1391 28.621 12.5916L28.4034 14.0159L28.3697 14.267L28.3363 14.4681L28.3195 14.6189V14.7197H28.3194ZM31.1343 10.6649H31.0337C30.6819 10.6649 30.4809 10.8324 30.1625 11.3185L30.263 10.6984H29.3082L28.6713 14.7197H29.7102C30.0956 12.2567 30.1961 11.8376 30.6987 11.8376H30.7658C30.8663 11.3519 31.0003 10.9999 31.1679 10.6816L31.1343 10.6649Z" fill="white"/>
</svg>
