<svg width="24" height="24" viewBox="0 0 24 24" fill="none" xmlns="http://www.w3.org/2000/svg">
<path d="M18.75 12.5H2C1.59 12.5 1.25 12.16 1.25 11.75C1.25 11.34 1.59 11 2 11H18.75C19.16 11 19.5 11.34 19.5 11.75C19.5 12.16 19.16 12.5 18.75 12.5Z" fill="#6F7076"/>
<path d="M12.75 20C12.34 20 2 20 2 20C1.59 20 1.25 19.66 1.25 19.25C1.25 18.84 1.59 18.5 2 18.5H12.75C13.16 18.5 13.5 18.84 13.5 19.25C13.5 19.66 13.16 20 12.75 20Z" fill="#6F7076"/>
<path d="M22 5.5H2C1.59 5.5 1.25 5.16 1.25 4.75C1.25 4.34 1.59 4 2 4H22C22.41 4 22.75 4.34 22.75 4.75C22.75 5.16 22.41 5.5 22 5.5Z" fill="#6F7076"/>
</svg>
