<svg width="20" height="20" viewBox="0 0 20 20" fill="none" xmlns="http://www.w3.org/2000/svg">
<rect x="1" y="1" width="18" height="18" rx="9" stroke="white" stroke-width="2"/>
<path d="M10 18C14.4183 18 18 14.4183 18 10C18 5.58172 14.4183 2 10 2C5.58172 2 2 5.58172 2 10C2 14.4183 5.58172 18 10 18Z" fill="#F0F0F0"/>
<path d="M2 10.0004C2 13.4402 4.171 16.3725 7.21741 17.5029V2.49805C4.171 3.62836 2 6.56073 2 10.0004Z" fill="#6DA544"/>
<path d="M17.9987 10.0004C17.9987 6.56073 15.8277 3.62836 12.7812 2.49805V17.5029C15.8277 16.3725 17.9987 13.4402 17.9987 10.0004Z" fill="#6DA544"/>
</svg>
