<svg width="93" height="24" viewBox="0 0 93 24" fill="none" xmlns="http://www.w3.org/2000/svg">
<path d="M80.8787 5.60692L78.9088 17.9532C78.9014 17.9985 78.9041 18.0449 78.9166 18.0891C78.9291 18.1333 78.9511 18.1743 78.9811 18.2091C79.0112 18.2439 79.0485 18.2718 79.0904 18.2907C79.1324 18.3096 79.178 18.3191 79.224 18.3186H81.5553C81.6375 18.3193 81.7173 18.2906 81.7802 18.2377C81.8431 18.1847 81.8849 18.1111 81.898 18.0301L83.8679 5.68381C83.8753 5.63848 83.8726 5.59208 83.8601 5.54787C83.8476 5.50367 83.8256 5.46272 83.7956 5.42791C83.7655 5.3931 83.7282 5.36526 83.6863 5.34635C83.6443 5.32743 83.5987 5.3179 83.5527 5.31843H81.2214C81.1389 5.3168 81.0586 5.34518 80.9956 5.39826C80.9325 5.45135 80.891 5.52551 80.8787 5.60692ZM78.3893 9.20985H76.1774C76.0952 9.20905 76.0155 9.23767 75.9527 9.29052C75.8899 9.34337 75.8482 9.41693 75.8352 9.49785L75.762 9.95238C75.762 9.95238 74.044 8.0941 71.0023 9.34994C69.2573 10.069 68.4196 11.5545 68.0631 12.6428C68.0631 12.6428 66.9319 15.9504 69.4905 17.771C69.4905 17.771 71.863 19.522 74.5345 17.6632L74.4883 17.9532C74.4777 18.0213 74.4896 18.091 74.5224 18.1517C74.5553 18.2124 74.6071 18.2607 74.67 18.2892C74.7118 18.3088 74.7574 18.3186 74.8036 18.3186H77.017C77.0995 18.3202 77.1798 18.2918 77.2428 18.2388C77.3059 18.1857 77.3474 18.1115 77.3597 18.0301L78.706 9.57524C78.7136 9.52996 78.7109 9.48357 78.6983 9.43943C78.6856 9.3953 78.6633 9.35452 78.6329 9.32006C78.6029 9.28494 78.5655 9.25682 78.5234 9.2377C78.4814 9.21857 78.4356 9.20939 78.3893 9.20985ZM75.1345 13.8825C75.0482 14.4732 74.7488 15.0123 74.2924 15.3984C73.8341 15.786 73.2508 15.9953 72.6501 15.9876C72.4144 15.9904 72.1799 15.9563 71.9548 15.8868C70.9998 15.5831 70.4548 14.675 70.6114 13.6905C70.6984 13.1001 70.9981 12.5615 71.4545 12.1756C71.9124 11.7878 72.4952 11.5779 73.0959 11.5844C73.3315 11.582 73.5661 11.6163 73.7911 11.6863C74.752 11.988 75.2946 12.8975 75.137 13.883H75.1345V13.8825ZM63.323 14.1161C64.5226 14.1161 65.6828 13.691 66.5941 12.9181C67.5035 12.1478 68.1056 11.0776 68.291 9.90194C68.6784 7.45638 66.7492 5.32185 64.0144 5.32185H59.6086C59.5264 5.32107 59.4466 5.34976 59.3838 5.40271C59.321 5.45565 59.2794 5.52933 59.2664 5.61034L57.296 17.9566C57.2854 18.0247 57.2973 18.0945 57.3301 18.1552C57.3629 18.2158 57.4148 18.2641 57.4777 18.2926C57.5199 18.3122 57.5651 18.322 57.6113 18.322H59.944C60.0262 18.3228 60.106 18.2941 60.1688 18.2412C60.2316 18.1882 60.2733 18.1145 60.2862 18.0335L60.8646 14.4081C60.8768 14.3266 60.9183 14.2523 60.9813 14.1991C61.0444 14.1459 61.1248 14.1175 61.2073 14.1191L63.323 14.1161ZM65.2743 9.79075C65.1304 10.6949 64.4244 11.3605 63.0736 11.3605H61.3468L61.8712 8.07255H63.5671C64.9635 8.075 65.4181 8.89051 65.2743 9.7932V9.79075Z" fill="#0070E0"/>
<path d="M54.6383 9.41943L51.9702 13.879L50.6161 9.45224C50.5949 9.3816 50.5512 9.31974 50.4917 9.27601C50.4322 9.23228 50.36 9.20904 50.2861 9.20979H47.8783C47.816 9.20895 47.7555 9.2306 47.7079 9.27074C47.6604 9.31089 47.629 9.36682 47.6195 9.42824C47.6136 9.46896 47.6179 9.5105 47.6318 9.54922L50.0583 17.0059L47.8635 20.5197C47.8449 20.5486 47.8324 20.581 47.8267 20.6149C47.8211 20.6489 47.8225 20.6836 47.8307 20.7169C47.839 20.7503 47.854 20.7817 47.8749 20.8091C47.8957 20.8364 47.9219 20.8593 47.9519 20.8762C47.9921 20.8993 48.0377 20.9111 48.084 20.9105H50.6774C50.7515 20.9108 50.8243 20.892 50.8889 20.8559C50.9535 20.8199 51.0077 20.7679 51.0462 20.7048L57.8239 9.60261C57.8485 9.56395 57.862 9.51932 57.8629 9.47357C57.8639 9.42781 57.8523 9.38266 57.8293 9.34302C57.8064 9.30324 57.7733 9.27031 57.7333 9.24766C57.6933 9.225 57.648 9.21345 57.602 9.2142H55.0095C54.9351 9.21352 54.8619 9.23206 54.7968 9.26803C54.7318 9.30399 54.6772 9.35615 54.6383 9.41943ZM46.5133 9.20979H44.2994C44.217 9.20901 44.1371 9.23775 44.0742 9.29079C44.0113 9.34383 43.9696 9.41763 43.9567 9.49877L43.885 9.95281C43.885 9.95281 42.1655 8.09453 39.1238 9.35037C37.3792 10.0694 36.5411 11.5549 36.1861 12.6433C36.1861 12.6433 35.0539 15.9509 37.612 17.7714C37.612 17.7714 39.985 19.5224 42.6565 17.6637L42.6103 17.9536C42.5995 18.0218 42.6114 18.0916 42.6442 18.1523C42.677 18.213 42.729 18.2613 42.792 18.2896C42.8337 18.3092 42.8794 18.319 42.9256 18.319H45.139C45.2212 18.3196 45.3008 18.2908 45.3636 18.2379C45.4264 18.185 45.4681 18.1115 45.4812 18.0305L46.828 9.57567C46.839 9.50747 46.8271 9.43755 46.7943 9.37673C46.7615 9.31592 46.7095 9.26757 46.6463 9.23918C46.6045 9.21995 46.5594 9.20992 46.5133 9.20979ZM43.258 13.8834C43.1708 14.4734 42.8713 15.0116 42.4154 15.3974C41.9574 15.7849 41.3746 15.9947 40.774 15.9881C40.5387 15.9907 40.3045 15.9566 40.0797 15.8872C39.1252 15.5835 38.5807 14.6754 38.7373 13.6904C38.8246 13.0987 39.1254 12.5591 39.5833 12.1731C40.043 11.7853 40.6277 11.5764 41.2296 11.5848C41.4653 11.5824 41.7005 11.6167 41.9254 11.6867C42.8765 11.9884 43.418 12.8975 43.2609 13.8834H43.258ZM31.447 14.1166C32.6445 14.1159 33.8028 13.6908 34.7151 12.9171C35.6236 12.1468 36.225 11.0769 36.41 9.90188C36.7979 7.45681 34.8683 5.32228 32.1344 5.32228H27.7282C27.646 5.32146 27.5662 5.35007 27.5033 5.40291C27.4404 5.45575 27.3986 5.52932 27.3855 5.61028L25.4215 17.9531C25.4105 18.0213 25.4223 18.0913 25.4552 18.1521C25.488 18.2129 25.54 18.2612 25.6031 18.2896C25.6449 18.3087 25.6905 18.319 25.7367 18.319H28.0679C28.1503 18.3198 28.2302 18.2911 28.2931 18.238C28.356 18.185 28.3977 18.1112 28.4107 18.03L28.9881 14.4046C29.0003 14.3232 29.0419 14.249 29.105 14.1959C29.168 14.1428 29.2483 14.1145 29.3308 14.1161L31.447 14.1166ZM33.3982 9.79069C33.2544 10.6949 32.5488 11.3605 31.1981 11.3605H29.4712L29.9946 8.07249H31.6905C33.0874 8.07494 33.5416 8.89094 33.3982 9.79314V9.79069Z" fill="#003087"/>
<path d="M16.3758 5.95631C16.4284 3.2301 14.1742 1.13867 11.0745 1.13867H4.66305C4.51364 1.1386 4.36912 1.19176 4.25552 1.28856C4.14191 1.38536 4.06669 1.51945 4.04341 1.66667L1.47451 17.6796C1.46301 17.7521 1.46742 17.8263 1.48743 17.897C1.50743 17.9677 1.54256 18.0333 1.59039 18.0891C1.63822 18.145 1.69762 18.1898 1.76449 18.2206C1.83137 18.2514 1.90414 18.2673 1.97778 18.2673H5.77614L5.18253 21.9751C5.17103 22.0476 5.17544 22.1218 5.19545 22.1925C5.21545 22.2632 5.25058 22.3288 5.29841 22.3846C5.34624 22.4405 5.40564 22.4853 5.47251 22.5161C5.53939 22.5469 5.61215 22.5628 5.6858 22.5628H8.78007C8.92934 22.5628 9.0624 22.5094 9.17631 22.413C9.28924 22.316 9.30789 22.1823 9.33146 22.0348L10.2398 16.7039C10.2629 16.557 10.338 16.3659 10.4514 16.269C10.5649 16.172 10.664 16.1191 10.8138 16.1191H12.7071C15.7429 16.1191 18.3182 13.9664 18.7891 10.9728C19.1225 8.84806 18.2092 6.91484 16.3758 5.95631Z" fill="#001C64"/>
<path d="M6.59794 12.3611L5.65179 18.3454L5.05768 22.0992C5.04626 22.1718 5.05074 22.246 5.07081 22.3167C5.09088 22.3873 5.12606 22.4528 5.17394 22.5086C5.22181 22.5645 5.28124 22.6093 5.34814 22.64C5.41504 22.6707 5.48781 22.6865 5.56145 22.6865H8.8364C8.98567 22.6864 9.13001 22.6332 9.24343 22.5364C9.35685 22.4396 9.4319 22.3056 9.45506 22.1585L10.3182 16.7027C10.3415 16.5555 10.4167 16.4215 10.5302 16.3247C10.6437 16.2279 10.7881 16.1747 10.9374 16.1747H12.865C15.9009 16.1747 18.4762 13.9657 18.9475 10.9721C19.2814 8.84732 18.2091 6.91361 16.3757 5.95508C16.3708 6.18136 16.3511 6.40716 16.3163 6.631C15.8454 9.62365 13.2691 11.8331 10.2343 11.8331H7.21709C7.06772 11.8333 6.92331 11.8866 6.80982 11.9835C6.69633 12.0803 6.6212 12.2139 6.59794 12.3611Z" fill="#0070E0"/>
<path d="M5.65129 18.3467H1.84114C1.76751 18.3467 1.69476 18.3307 1.62791 18.3C1.56105 18.2692 1.50168 18.2243 1.45388 18.1685C1.40609 18.1126 1.37101 18.047 1.35107 17.9763C1.33112 17.9056 1.32679 17.8315 1.33836 17.7589L3.90726 1.50847C3.93053 1.36133 4.00568 1.22731 4.11918 1.13051C4.23268 1.03372 4.37709 0.980515 4.52641 0.980469H11.0744C14.174 0.980469 16.4282 3.23059 16.3757 5.95631C15.6043 5.55271 14.6979 5.32202 13.7051 5.32202H8.24622C8.09681 5.32195 7.95229 5.3751 7.83868 5.47191C7.72508 5.56871 7.64986 5.7028 7.62658 5.85002L6.59843 12.3623L5.6508 18.3467H5.65129Z" fill="#003087"/>
</svg>
