<svg width="20" height="20" viewBox="0 0 20 20" fill="none" xmlns="http://www.w3.org/2000/svg">
<path d="M17.5625 7.9375L12.0625 2.4375C11.8125 2.1875 11.4375 2.1875 11.1875 2.4375L9.1875 4.4375C8.875 4.75 9 5.125 9.1875 5.3125L9.625 5.75L7.75 7.625C6.8125 7.4375 4.25 7 2.875 8.375C2.625 8.625 2.625 9 2.875 9.25L6.4375 12.8125L2.5 16.75C2.25 17 2.25 17.375 2.5 17.625C2.75 17.875 3.1875 17.8125 3.375 17.625L7.3125 13.6875L10.875 17.25C11.25 17.5625 11.625 17.4375 11.75 17.25C13.125 15.875 12.6875 13.3125 12.5 12.375L14.375 10.5L14.8125 10.9375C15.0625 11.1875 15.4375 11.1875 15.6875 10.9375L17.6875 8.9375C17.8125 8.5625 17.8125 8.1875 17.5625 7.9375ZM15.125 9.5L14.6875 9.0625C14.4375 8.8125 14.0625 8.8125 13.8125 9.0625L11.25 11.6875C11.0625 11.875 11 12.0625 11.0625 12.3125C11.25 13 11.5625 14.6875 11.0625 15.8125L4.1875 8.9375C5.25 8.4375 7 8.75 7.6875 8.9375C7.875 9 8.125 8.9375 8.3125 8.75L10.875 6.1875C11.25 5.8125 11.0625 5.5 10.875 5.3125L10.4375 4.875L11.625 3.75L16.25 8.375L15.125 9.5Z" fill="#6F7076"/>
</svg>
