<svg width="16" height="16" viewBox="0 0 16 16" fill="none" xmlns="http://www.w3.org/2000/svg">
<path d="M10.0007 15.1673H6.00065C2.38065 15.1673 0.833984 13.6207 0.833984 10.0007V6.00065C0.833984 2.38065 2.38065 0.833984 6.00065 0.833984H10.0007C13.6207 0.833984 15.1673 2.38065 15.1673 6.00065V10.0007C15.1673 13.6207 13.6207 15.1673 10.0007 15.1673ZM6.00065 1.83398C2.92732 1.83398 1.83398 2.92732 1.83398 6.00065V10.0007C1.83398 13.074 2.92732 14.1673 6.00065 14.1673H10.0007C13.074 14.1673 14.1673 13.074 14.1673 10.0007V6.00065C14.1673 2.92732 13.074 1.83398 10.0007 1.83398H6.00065Z" fill="#8D8E96"/>
<path d="M10.5 6.5H5.5C5.22667 6.5 5 6.27333 5 6C5 5.72667 5.22667 5.5 5.5 5.5H10.5C10.7733 5.5 11 5.72667 11 6C11 6.27333 10.7733 6.5 10.5 6.5Z" fill="#8D8E96"/>
<path d="M10.5 10.5H5.5C5.22667 10.5 5 10.2733 5 10C5 9.72667 5.22667 9.5 5.5 9.5H10.5C10.7733 9.5 11 9.72667 11 10C11 10.2733 10.7733 10.5 10.5 10.5Z" fill="#8D8E96"/>
</svg>
