<svg width="24" height="24" viewBox="0 0 24 24" fill="none" xmlns="http://www.w3.org/2000/svg">
<path d="M16.8672 19.0601H8.86719C5.69719 19.0601 3.11719 16.4801 3.11719 13.3101C3.11719 10.1401 5.69719 7.56006 8.86719 7.56006H19.8672C20.2772 7.56006 20.6172 7.90006 20.6172 8.31006C20.6172 8.72006 20.2772 9.06006 19.8672 9.06006H8.86719C6.52719 9.06006 4.61719 10.9701 4.61719 13.3101C4.61719 15.6501 6.52719 17.5601 8.86719 17.5601H16.8672C17.2772 17.5601 17.6172 17.9001 17.6172 18.3101C17.6172 18.7201 17.2872 19.0601 16.8672 19.0601Z" fill="#6F7076"/>
<path d="M17.5678 11.5599C17.3778 11.5599 17.1878 11.4899 17.0378 11.3399C16.7478 11.0499 16.7478 10.5699 17.0378 10.2799L19.0678 8.24988L17.0378 6.21988C16.7478 5.92988 16.7478 5.44988 17.0378 5.15988C17.3278 4.86988 17.8078 4.86988 18.0978 5.15988L20.6578 7.71988C20.9478 8.00988 20.9478 8.48988 20.6578 8.77988L18.0978 11.3399C17.9478 11.4899 17.7578 11.5599 17.5678 11.5599Z" fill="#6F7076"/>
</svg>
