<svg width="14" height="14" viewBox="0 0 14 14" fill="none" xmlns="http://www.w3.org/2000/svg">
<path d="M5.19776 12.0569C5.08693 12.0569 4.97609 12.0161 4.88859 11.9286C4.71943 11.7594 4.71943 11.4794 4.88859 11.3102L8.69193 7.5069C8.97193 7.2269 8.97193 6.7719 8.69193 6.4919L4.88859 2.68857C4.71943 2.5194 4.71943 2.2394 4.88859 2.07023C5.05776 1.90107 5.33776 1.90107 5.50693 2.07023L9.31026 5.87357C9.60776 6.17107 9.77693 6.57357 9.77693 6.9994C9.77693 7.42523 9.61359 7.82773 9.31026 8.12523L5.50693 11.9286C5.41943 12.0102 5.30859 12.0569 5.19776 12.0569Z" fill="#2599F6"/>
</svg>
