<svg width="20" height="20" viewBox="0 0 20 20" fill="none" xmlns="http://www.w3.org/2000/svg">
<rect x="1" y="1" width="18" height="18" rx="9" stroke="white" stroke-width="2"/>
<path d="M10 18C14.4183 18 18 14.4183 18 10C18 5.58172 14.4183 2 10 2C5.58172 2 2 5.58172 2 10C2 14.4183 5.58172 18 10 18Z" fill="#F0F0F0"/>
<path d="M4.34314 15.6575C1.21895 12.5333 1.21895 7.46797 4.34314 4.34375C4.34292 4.34409 8.95655 10.0006 8.95655 10.0006L4.34314 15.6575Z" fill="black"/>
<path d="M8.95609 9.99959L3.06059 6.01562C2.87781 6.33334 2.71663 6.66497 2.57812 7.00822L5.56278 9.99963L2.57822 12.9912C2.71659 13.3342 2.87763 13.6656 3.06028 13.9831L8.95609 9.99959Z" fill="#FFDA44"/>
<path d="M17.9341 8.95703H8.95809L4.34484 4.34375C3.84772 4.84087 3.41581 5.40309 3.06281 6.01656L7.03903 10.0005L3.0625 13.9839C3.4155 14.5976 3.84759 15.16 4.34484 15.6572L8.95809 11.044H17.9341C17.9785 10.7024 18.0018 10.3542 18.0018 10.0005C18.0018 9.64684 17.9785 9.29859 17.9341 8.95703Z" fill="#6DA544"/>
<path d="M5.12891 16.3471C6.47794 17.384 8.16659 18.0009 9.99959 18.0009C13.6958 18.0009 16.806 15.494 17.724 12.0879H9.38812L5.12891 16.3471Z" fill="#0052B4"/>
<path d="M17.724 7.91303C16.806 4.50691 13.6958 2 9.99959 2C8.16659 2 6.47794 2.61691 5.12891 3.65384L9.38809 7.91303H17.724Z" fill="#D80027"/>
</svg>
