<svg width="17" height="16" viewBox="0 0 17 16" fill="none" xmlns="http://www.w3.org/2000/svg">
<path d="M8.5 10.5C7.12 10.5 6 9.38 6 8C6 6.62 7.12 5.5 8.5 5.5C9.88 5.5 11 6.62 11 8C11 9.38 9.88 10.5 8.5 10.5ZM8.5 6.5C7.67333 6.5 7 7.17333 7 8C7 8.82667 7.67333 9.5 8.5 9.5C9.32667 9.5 10 8.82667 10 8C10 7.17333 9.32667 6.5 8.5 6.5Z" fill="#8D8E96"/>
<path d="M10.6387 14.7942C10.4987 14.7942 10.3587 14.7742 10.2187 14.7408C9.80536 14.6275 9.4587 14.3675 9.2387 14.0008L9.1587 13.8675C8.76536 13.1875 8.22536 13.1875 7.83203 13.8675L7.7587 13.9942C7.5387 14.3675 7.19203 14.6342 6.7787 14.7408C6.3587 14.8542 5.92536 14.7942 5.5587 14.5742L4.41203 13.9142C4.00536 13.6808 3.71203 13.3008 3.58536 12.8408C3.46536 12.3808 3.52536 11.9075 3.7587 11.5008C3.95203 11.1608 4.00536 10.8542 3.89203 10.6608C3.7787 10.4675 3.49203 10.3542 3.0987 10.3542C2.12536 10.3542 1.33203 9.56084 1.33203 8.58751V7.41418C1.33203 6.44084 2.12536 5.64751 3.0987 5.64751C3.49203 5.64751 3.7787 5.53418 3.89203 5.34084C4.00536 5.14751 3.9587 4.84084 3.7587 4.50084C3.52536 4.09418 3.46536 3.61418 3.58536 3.16084C3.70536 2.70084 3.9987 2.32084 4.41203 2.08751L5.56536 1.42751C6.3187 0.980842 7.31203 1.24084 7.76536 2.00751L7.84537 2.14084C8.2387 2.82084 8.7787 2.82084 9.17203 2.14084L9.24536 2.01418C9.6987 1.24084 10.692 0.980842 11.452 1.43418L12.5987 2.09418C13.0054 2.32751 13.2987 2.70751 13.4254 3.16751C13.5454 3.62751 13.4854 4.10084 13.252 4.50751C13.0587 4.84751 13.0054 5.15418 13.1187 5.34751C13.232 5.54084 13.5187 5.65418 13.912 5.65418C14.8854 5.65418 15.6787 6.44751 15.6787 7.42084V8.59418C15.6787 9.56751 14.8854 10.3608 13.912 10.3608C13.5187 10.3608 13.232 10.4742 13.1187 10.6675C13.0054 10.8608 13.052 11.1675 13.252 11.5075C13.4854 11.9142 13.552 12.3942 13.4254 12.8475C13.3054 13.3075 13.012 13.6875 12.5987 13.9208L11.4454 14.5808C11.192 14.7208 10.9187 14.7942 10.6387 14.7942ZM8.4987 12.3275C9.09203 12.3275 9.64536 12.7008 10.0254 13.3608L10.0987 13.4875C10.1787 13.6275 10.312 13.7275 10.472 13.7675C10.632 13.8075 10.792 13.7875 10.9254 13.7075L12.0787 13.0408C12.252 12.9408 12.3854 12.7742 12.4387 12.5742C12.492 12.3742 12.4654 12.1675 12.3654 11.9942C11.9854 11.3408 11.9387 10.6675 12.232 10.1542C12.5254 9.64084 13.132 9.34751 13.892 9.34751C14.3187 9.34751 14.6587 9.00751 14.6587 8.58084V7.40751C14.6587 6.98751 14.3187 6.64084 13.892 6.64084C13.132 6.64084 12.5254 6.34751 12.232 5.83418C11.9387 5.32084 11.9854 4.64751 12.3654 3.99418C12.4654 3.82084 12.492 3.61418 12.4387 3.41418C12.3854 3.21418 12.2587 3.05418 12.0854 2.94751L10.932 2.28751C10.6454 2.11418 10.2654 2.21418 10.092 2.50751L10.0187 2.63418C9.6387 3.29418 9.08536 3.66751 8.49203 3.66751C7.8987 3.66751 7.34536 3.29418 6.96536 2.63418L6.89203 2.50084C6.72536 2.22084 6.35203 2.12084 6.06536 2.28751L4.91203 2.95418C4.7387 3.05418 4.60536 3.22084 4.55203 3.42084C4.4987 3.62084 4.52536 3.82751 4.62536 4.00084C5.00536 4.65418 5.05203 5.32751 4.7587 5.84084C4.46536 6.35418 3.8587 6.64751 3.0987 6.64751C2.67203 6.64751 2.33203 6.98751 2.33203 7.41418V8.58751C2.33203 9.00751 2.67203 9.35418 3.0987 9.35418C3.8587 9.35418 4.46536 9.64751 4.7587 10.1608C5.05203 10.6742 5.00536 11.3475 4.62536 12.0008C4.52536 12.1742 4.4987 12.3808 4.55203 12.5808C4.60536 12.7808 4.73203 12.9408 4.90536 13.0475L6.0587 13.7075C6.1987 13.7942 6.36536 13.8142 6.5187 13.7742C6.6787 13.7342 6.81203 13.6275 6.8987 13.4875L6.97203 13.3608C7.35203 12.7075 7.90536 12.3275 8.4987 12.3275Z" fill="#8D8E96"/>
</svg>
