<svg width="20" height="20" viewBox="0 0 20 20" fill="none" xmlns="http://www.w3.org/2000/svg">
<path d="M14.7168 18.8913C14.2752 18.8913 13.7085 18.7496 13.0002 18.3329L10.5085 16.8579C10.2502 16.7079 9.75018 16.7079 9.50018 16.8579L7.00018 18.3329C5.52518 19.2079 4.65851 18.8579 4.26685 18.5746C3.88351 18.2913 3.28351 17.5663 3.67518 15.8996L4.26685 13.3413C4.33351 13.0746 4.20018 12.6163 4.00018 12.4163L1.93351 10.3496C0.900179 9.31628 0.983513 8.43294 1.12518 7.99961C1.26685 7.56628 1.71685 6.79961 3.15018 6.55794L5.80851 6.11628C6.05851 6.07461 6.41685 5.80794 6.52518 5.58294L8.00018 2.64128C8.66685 1.29961 9.54185 1.09961 10.0002 1.09961C10.4585 1.09961 11.3335 1.29961 12.0002 2.64128L13.4668 5.57461C13.5835 5.79961 13.9418 6.06628 14.1918 6.10794L16.8502 6.54961C18.2918 6.79128 18.7418 7.55794 18.8752 7.99128C19.0085 8.42461 19.0918 9.30794 18.0668 10.3413L16.0002 12.4163C15.8002 12.6163 15.6752 13.0663 15.7335 13.3413L16.3252 15.8996C16.7085 17.5663 16.1168 18.2913 15.7335 18.5746C15.5252 18.7246 15.1918 18.8913 14.7168 18.8913ZM10.0002 15.4913C10.4085 15.4913 10.8168 15.5913 11.1418 15.7829L13.6335 17.2579C14.3585 17.6913 14.8168 17.6913 14.9918 17.5663C15.1668 17.4413 15.2918 16.9996 15.1085 16.1829L14.5168 13.6246C14.3585 12.9329 14.6168 12.0413 15.1168 11.5329L17.1835 9.46628C17.5918 9.05794 17.7752 8.65794 17.6918 8.38294C17.6002 8.10794 17.2168 7.88294 16.6502 7.79128L13.9918 7.34961C13.3502 7.24128 12.6502 6.72461 12.3585 6.14128L10.8918 3.20794C10.6252 2.67461 10.2918 2.35794 10.0002 2.35794C9.70851 2.35794 9.37518 2.67461 9.11685 3.20794L7.64185 6.14128C7.35018 6.72461 6.65018 7.24128 6.00851 7.34961L3.35851 7.79128C2.79185 7.88294 2.40851 8.10794 2.31685 8.38294C2.22518 8.65794 2.41685 9.06628 2.82518 9.46628L4.89185 11.5329C5.39185 12.0329 5.65018 12.9329 5.49185 13.6246L4.90018 16.1829C4.70851 17.0079 4.84185 17.4413 5.01685 17.5663C5.19185 17.6913 5.64185 17.6829 6.37518 17.2579L8.86685 15.7829C9.18351 15.5913 9.59185 15.4913 10.0002 15.4913Z" fill="#6F7076"/>
</svg>
