<svg width="24" height="24" viewBox="0 0 24 24" fill="none" xmlns="http://www.w3.org/2000/svg">
<path d="M11.9713 22.7502C11.3613 22.7502 10.7313 22.7002 10.0913 22.5902C5.69127 21.8402 2.10127 18.2402 1.37127 13.8202C0.791272 10.3102 1.88127 6.88015 4.37127 4.39015C6.86127 1.90015 10.2913 0.820153 13.7913 1.39015C18.2013 2.12015 21.8113 5.70015 22.5613 10.1002C22.7213 11.0702 22.7613 12.0202 22.6813 12.9202V12.9302C22.6613 13.1602 22.6213 13.3802 22.5613 13.6002C22.4913 13.8502 22.3013 14.0402 22.0613 14.1202C21.8213 14.2002 21.5513 14.1402 21.3513 13.9802C20.4113 13.1902 19.2113 12.7502 17.9713 12.7502C15.0713 12.7502 12.7213 15.1102 12.7213 18.0002C12.7213 19.2402 13.1613 20.4402 13.9513 21.3802C14.1213 21.5802 14.1713 21.8402 14.0913 22.0902C14.0113 22.3402 13.8213 22.5202 13.5713 22.5902C13.3513 22.6502 13.1313 22.6902 12.9013 22.7102C12.6013 22.7402 12.2913 22.7502 11.9713 22.7502ZM11.9713 2.75015C9.52127 2.75015 7.20127 3.70015 5.44127 5.46015C3.30127 7.60015 2.36127 10.5602 2.86127 13.5802C3.49127 17.3702 6.56127 20.4702 10.3513 21.1102C10.9513 21.2102 11.5213 21.2702 12.0713 21.2502C11.5313 20.2602 11.2413 19.1402 11.2413 18.0002C11.2413 14.2802 14.2713 11.2502 17.9913 11.2502C19.1313 11.2502 20.2513 11.5402 21.2413 12.0802C21.2513 11.5302 21.2013 10.9602 21.1013 10.3602C20.4613 6.58015 17.3613 3.50015 13.5713 2.88015C13.0213 2.79015 12.4913 2.75015 11.9713 2.75015Z" fill="#D3D5E0"/>
<path d="M13.3787 22.61C13.1587 22.61 12.9488 22.52 12.8088 22.34C11.7888 21.13 11.2188 19.59 11.2188 18C11.2188 14.28 14.2487 11.25 17.9687 11.25C19.5587 11.25 21.0987 11.81 22.3087 12.84C22.5387 13.03 22.6287 13.34 22.5487 13.62C22.3687 14.24 22.0487 14.78 21.5887 15.24L15.2087 21.62C14.7487 22.08 14.1988 22.4 13.5887 22.58C13.5187 22.6 13.4487 22.61 13.3787 22.61ZM17.9687 12.75C15.0687 12.75 12.7188 15.11 12.7188 18C12.7188 19.06 13.0387 20.09 13.6287 20.95C13.8187 20.85 13.9887 20.72 14.1487 20.56L20.5288 14.18C20.6888 14.02 20.8187 13.85 20.9187 13.66C20.0588 13.07 19.0287 12.75 17.9687 12.75Z" fill="#D3D5E0"/>
</svg>
