<svg width="16" height="16" viewBox="0 0 16 16" fill="none" xmlns="http://www.w3.org/2000/svg">
<path d="M8.00095 12.9137C6.80761 12.9137 5.61427 12.4604 4.70094 11.547C2.88094 9.72705 2.88094 6.76703 4.70094 4.94703C6.52094 3.12703 9.48095 3.12703 11.301 4.94703C13.121 6.76703 13.121 9.72705 11.301 11.547C10.3876 12.4604 9.19428 12.9137 8.00095 12.9137ZM8.00095 4.58037C7.06095 4.58037 6.12094 4.94036 5.4076 5.6537C3.98094 7.08703 3.98094 9.40705 5.4076 10.8404C6.84094 12.2737 9.16762 12.267 10.5943 10.8404C12.021 9.40705 12.021 7.08703 10.5943 5.6537C9.88095 4.94036 8.94095 4.58037 8.00095 4.58037Z" fill="#8D8E96"/>
<path d="M5.50067 14.9272C5.44067 14.9272 5.37401 14.9139 5.31401 14.8939C3.81401 14.2939 2.60067 13.2339 1.78734 11.8339C1.00067 10.4672 0.687339 8.92058 0.894005 7.34724C0.927339 7.07391 1.18067 6.88056 1.454 6.91389C1.72734 6.94723 1.92067 7.20058 1.88733 7.47391C1.714 8.82058 1.98068 10.1539 2.65401 11.3272C3.34735 12.5272 4.394 13.4406 5.68067 13.9539C5.934 14.0606 6.06068 14.3472 5.96068 14.6072C5.88734 14.8072 5.69401 14.9272 5.50067 14.9272Z" fill="#8D8E96"/>
<path d="M3.89974 3.48755C3.75307 3.48755 3.60641 3.4209 3.50641 3.29423C3.33308 3.07423 3.37308 2.76091 3.59308 2.59424C4.86641 1.6009 6.3864 1.07422 7.99974 1.07422C9.57307 1.07422 11.0731 1.58089 12.3331 2.54089C12.5531 2.70756 12.5931 3.02089 12.4264 3.24089C12.2597 3.46089 11.9464 3.5009 11.7264 3.33423C10.6464 2.50756 9.35974 2.07422 7.99974 2.07422C6.61307 2.07422 5.29974 2.52757 4.2064 3.3809C4.11307 3.45423 4.00641 3.48755 3.89974 3.48755Z" fill="#8D8E96"/>
<path d="M10.4998 14.9264C10.2998 14.9264 10.1131 14.8064 10.0331 14.6131C9.93314 14.3597 10.0531 14.0664 10.3131 13.9598C11.5998 13.4398 12.6465 12.5331 13.3398 11.3331C14.0198 10.1597 14.2865 8.8264 14.1065 7.47973C14.0732 7.2064 14.2665 6.95309 14.5398 6.91975C14.8065 6.88642 15.0665 7.07977 15.0998 7.3531C15.2998 8.91977 14.9931 10.4731 14.2065 11.8398C13.3998 13.2398 12.1798 14.2931 10.6798 14.8997C10.6265 14.9131 10.5665 14.9264 10.4998 14.9264Z" fill="#8D8E96"/>
</svg>
