<svg width="24" height="24" viewBox="0 0 24 24" fill="none" xmlns="http://www.w3.org/2000/svg">
<rect width="24" height="24" rx="12" fill="white"/>
<path d="M9.69066 12.2937C8.42191 12.2937 7.39691 13.3187 7.41566 14.575C7.42816 15.3812 7.87191 16.0813 8.52503 16.4719C8.30316 16.1313 8.17191 15.7281 8.16566 15.2937C8.14691 14.0375 9.17191 13.0125 10.4407 13.0125C10.6907 13.0125 10.9313 13.0531 11.1563 13.125V10.6094C10.9219 10.575 10.6813 10.5563 10.4407 10.5563H10.4063V12.4062C10.1813 12.3344 9.94066 12.2937 9.69066 12.2937ZM15.175 4.75H14.5063C14.6938 5.69063 15.2219 6.50937 15.9594 7.06562C15.475 6.425 15.1813 5.625 15.175 4.75Z" fill="#F00044"/>
<path d="M19.0001 8.57754C18.7532 8.57754 18.5157 8.55254 18.2813 8.50879V10.3119C17.4313 10.3119 16.6063 10.1463 15.8313 9.81504C15.3313 9.60254 14.8657 9.33066 14.4376 9.00254L14.4501 14.5619C14.4438 15.8119 13.9501 16.9838 13.0563 17.8682C12.3282 18.5869 11.4063 19.0463 10.4063 19.1932C10.172 19.2275 9.93134 19.2463 9.69071 19.2463C8.62196 19.2463 7.60321 18.8994 6.77509 18.2588C6.86884 18.3713 6.96884 18.4807 7.07821 18.5869C7.97821 19.4744 9.17196 19.965 10.4438 19.965C10.6845 19.965 10.9251 19.9463 11.1595 19.9119C12.1595 19.765 13.0813 19.3057 13.8095 18.5869C14.7032 17.7025 15.197 16.5307 15.2032 15.2807L15.1563 9.72129C15.5813 10.0494 16.047 10.3244 16.5501 10.5338C17.3282 10.8619 18.1532 11.0307 19.0001 11.0307" fill="#F00044"/>
<path d="M7.06876 11.9404C7.95938 11.0561 9.14376 10.5654 10.4063 10.5561V9.89043C10.1719 9.85606 9.93126 9.83731 9.69063 9.83731C8.41563 9.83731 7.21876 10.3279 6.31876 11.2217C5.43438 12.0998 4.92813 13.2998 4.93126 14.5467C4.93126 15.8029 5.42813 16.9811 6.32501 17.8717C6.46876 18.0123 6.61563 18.1436 6.77188 18.2623C6.06563 17.4217 5.68126 16.3717 5.67813 15.2654C5.68126 14.0186 6.18438 12.8186 7.06876 11.9404ZM18.2813 8.50918V7.84043H18.275C17.4063 7.84043 16.6063 7.55293 15.9625 7.06543C16.5219 7.80293 17.3406 8.32793 18.2813 8.50918Z" fill="#08FFF9"/>
<path d="M10.3125 17.5063C10.6094 17.5219 10.8938 17.4813 11.1563 17.3969C12.0625 17.1 12.7156 16.2563 12.7156 15.2625L12.7188 11.5438V4.75H14.5063C14.4594 4.51563 14.4344 4.27813 14.4313 4.03125H11.9688V10.8219L11.9656 14.5406C11.9656 15.5344 11.3125 16.3781 10.4063 16.675C10.1438 16.7625 9.8594 16.8031 9.56252 16.7844C9.1844 16.7625 8.83127 16.65 8.52502 16.4688C8.9094 17.0625 9.56565 17.4656 10.3125 17.5063Z" fill="#08FFF9"/>
<path d="M10.4063 19.1938C11.4063 19.0469 12.3281 18.5875 13.0563 17.8688C13.95 16.9844 14.4438 15.8125 14.45 14.5625L14.4375 9.00313C14.8625 9.33125 15.3281 9.60625 15.8313 9.81563C16.6094 10.1438 17.4344 10.3125 18.2813 10.3125V8.50938C17.3406 8.32813 16.5219 7.80313 15.9625 7.06563C15.225 6.50938 14.6938 5.69063 14.5094 4.75H12.7188V11.5406L12.7156 15.2594C12.7156 16.2531 12.0625 17.0969 11.1563 17.3938C10.8938 17.4813 10.6094 17.5219 10.3125 17.5031C9.56251 17.4625 8.90938 17.0594 8.52501 16.4688C7.87188 16.0813 7.42813 15.3781 7.41563 14.5719C7.39688 13.3156 8.42188 12.2906 9.69063 12.2906C9.94063 12.2906 10.1813 12.3313 10.4063 12.4031V10.5531C9.14376 10.5625 7.95938 11.0531 7.06876 11.9375C6.18438 12.8156 5.67813 14.0156 5.68126 15.2594C5.68126 16.3656 6.06563 17.4156 6.77501 18.2563C7.60626 18.8969 8.62188 19.2438 9.69063 19.2438C9.93126 19.2469 10.1719 19.2281 10.4063 19.1938Z" fill="black"/>
</svg>
