<svg width="24" height="24" viewBox="0 0 24 24" fill="none" xmlns="http://www.w3.org/2000/svg">
<path d="M15.1328 19.0601H7.13281C6.72281 19.0601 6.38281 18.7201 6.38281 18.3101C6.38281 17.9001 6.72281 17.5601 7.13281 17.5601H15.1328C17.4728 17.5601 19.3828 15.6501 19.3828 13.3101C19.3828 10.9701 17.4728 9.06006 15.1328 9.06006H4.13281C3.72281 9.06006 3.38281 8.72006 3.38281 8.31006C3.38281 7.90006 3.72281 7.56006 4.13281 7.56006H15.1328C18.3028 7.56006 20.8828 10.1401 20.8828 13.3101C20.8828 16.4801 18.3028 19.0601 15.1328 19.0601Z" fill="#6F7076"/>
<path d="M6.4325 11.5599C6.2425 11.5599 6.0525 11.4899 5.9025 11.3399L3.3425 8.77988C3.0525 8.48988 3.0525 8.00988 3.3425 7.71988L5.9025 5.15988C6.1925 4.86988 6.6725 4.86988 6.9625 5.15988C7.2525 5.44988 7.2525 5.92988 6.9625 6.21988L4.9325 8.24988L6.9625 10.2799C7.2525 10.5699 7.2525 11.0499 6.9625 11.3399C6.8225 11.4899 6.6225 11.5599 6.4325 11.5599Z" fill="#6F7076"/>
</svg>
