<svg width="16" height="16" viewBox="0 0 16 16" fill="none" xmlns="http://www.w3.org/2000/svg">
<path d="M11.2991 11.7995C11.1724 11.7995 11.0458 11.7528 10.9458 11.6528C10.7524 11.4595 10.7524 11.1395 10.9458 10.9462C11.7324 10.1595 12.1658 9.11284 12.1658 7.99951C12.1658 6.88617 11.7324 5.83951 10.9458 5.05284C10.7524 4.85951 10.7524 4.53951 10.9458 4.34617C11.1391 4.15284 11.4591 4.15284 11.6524 4.34617C12.6258 5.31951 13.1658 6.61951 13.1658 7.99951C13.1658 9.37951 12.6258 10.6795 11.6524 11.6528C11.5524 11.7528 11.4258 11.7995 11.2991 11.7995Z" fill="#2599F6"/>
<path d="M4.69869 11.7995C4.57202 11.7995 4.44536 11.7528 4.34536 11.6528C3.37202 10.6795 2.83203 9.37951 2.83203 7.99951C2.83203 6.61951 3.37202 5.31951 4.34536 4.34617C4.53869 4.15284 4.85869 4.15284 5.05202 4.34617C5.24536 4.53951 5.24536 4.85951 5.05202 5.05284C4.26536 5.83951 3.83203 6.88617 3.83203 7.99951C3.83203 9.11284 4.26536 10.1595 5.05202 10.9462C5.24536 11.1395 5.24536 11.4595 5.05202 11.6528C4.95202 11.7528 4.82536 11.7995 4.69869 11.7995Z" fill="#2599F6"/>
<path d="M8.65474 10.6806H7.4814C6.63474 10.6806 5.94141 9.96732 5.94141 9.09398C5.94141 8.82065 6.16807 8.59398 6.44141 8.59398C6.71474 8.59398 6.94141 8.82065 6.94141 9.09398C6.94141 9.42065 7.1814 9.68065 7.4814 9.68065H8.65474C8.87474 9.68065 9.0614 9.48065 9.0614 9.23398C9.0614 8.92065 8.98807 8.88065 8.77474 8.80732L6.90141 8.15399C6.26141 7.92732 5.94808 7.48065 5.94808 6.78065C5.94808 5.98065 6.57474 5.33398 7.35474 5.33398H8.52808C9.37474 5.33398 10.0681 6.04732 10.0681 6.92065C10.0681 7.19398 9.84141 7.42065 9.56807 7.42065C9.29474 7.42065 9.06807 7.19398 9.06807 6.92065C9.06807 6.59398 8.82808 6.33398 8.52808 6.33398H7.35474C7.13474 6.33398 6.94808 6.53398 6.94808 6.78065C6.94808 7.09398 7.02141 7.13398 7.23474 7.20732L9.10807 7.86065C9.74807 8.08732 10.0614 8.53398 10.0614 9.23398C10.0547 10.0273 9.42808 10.6806 8.65474 10.6806Z" fill="#2599F6"/>
<path d="M8 11.2992C7.72667 11.2992 7.5 11.0725 7.5 10.7992V5.19922C7.5 4.92589 7.72667 4.69922 8 4.69922C8.27333 4.69922 8.5 4.92589 8.5 5.19922V10.7992C8.5 11.0725 8.27333 11.2992 8 11.2992Z" fill="#2599F6"/>
<path d="M7.9987 15.1673C4.04536 15.1673 0.832031 11.954 0.832031 8.00065C0.832031 4.04732 4.04536 0.833984 7.9987 0.833984C11.952 0.833984 15.1654 4.04732 15.1654 8.00065C15.1654 11.954 11.952 15.1673 7.9987 15.1673ZM7.9987 1.83398C4.5987 1.83398 1.83203 4.60065 1.83203 8.00065C1.83203 11.4007 4.5987 14.1673 7.9987 14.1673C11.3987 14.1673 14.1654 11.4007 14.1654 8.00065C14.1654 4.60065 11.3987 1.83398 7.9987 1.83398Z" fill="#2599F6"/>
</svg>
