<svg width="16" height="16" viewBox="0 0 16 16" fill="none" xmlns="http://www.w3.org/2000/svg">
<path d="M7.19345 10.1129C7.06012 10.1129 6.93345 10.0595 6.84012 9.9662L5.22679 8.35286C5.03345 8.15953 5.03345 7.83953 5.22679 7.6462C5.42012 7.45286 5.74012 7.45286 5.93345 7.6462L7.19345 8.9062L10.0601 6.03953C10.2535 5.8462 10.5735 5.8462 10.7668 6.03953C10.9601 6.23286 10.9601 6.55286 10.7668 6.7462L7.54679 9.9662C7.45345 10.0595 7.32679 10.1129 7.19345 10.1129Z" fill="#2A2A2D"/>
<path d="M8 15.1673C7.58 15.1673 7.16 15.0273 6.83334 14.7473L5.78 13.8407C5.67334 13.7473 5.40667 13.654 5.26667 13.654H4.12C3.13334 13.654 2.33334 12.854 2.33334 11.8673V10.7273C2.33334 10.5873 2.24 10.3273 2.14667 10.2207L1.24667 9.16065C0.700003 8.51398 0.700003 7.49398 1.24667 6.84732L2.14667 5.78732C2.24 5.68065 2.33334 5.42065 2.33334 5.28065V4.13398C2.33334 3.14732 3.13334 2.34732 4.12 2.34732H5.27334C5.41334 2.34732 5.68 2.24732 5.78667 2.16065L6.84 1.25398C7.49334 0.693984 8.51334 0.693984 9.16667 1.25398L10.22 2.16065C10.3267 2.25398 10.5933 2.34732 10.7333 2.34732H11.8667C12.8533 2.34732 13.6533 3.14732 13.6533 4.13398V5.26732C13.6533 5.40732 13.7533 5.67398 13.8467 5.78065L14.7533 6.83398C15.3133 7.48732 15.3133 8.50732 14.7533 9.16065L13.8467 10.214C13.7533 10.3207 13.6533 10.5873 13.6533 10.7273V11.8607C13.6533 12.8473 12.8533 13.6473 11.8667 13.6473H10.7333C10.5933 13.6473 10.3267 13.7473 10.22 13.834L9.16667 14.7407C8.84 15.0273 8.42 15.1673 8 15.1673ZM4.12 3.34732C3.68667 3.34732 3.33334 3.70065 3.33334 4.13398V5.27398C3.33334 5.65398 3.15334 6.14065 2.90667 6.42732L2.00667 7.48732C1.77334 7.76065 1.77334 8.23398 2.00667 8.50732L2.90667 9.56732C3.15334 9.86065 3.33334 10.3407 3.33334 10.7207V11.8607C3.33334 12.294 3.68667 12.6473 4.12 12.6473H5.27334C5.66 12.6473 6.14667 12.8273 6.44 13.0807L7.49334 13.9873C7.76667 14.2207 8.24667 14.2207 8.52 13.9873L9.57334 13.0807C9.86667 12.834 10.3533 12.6473 10.74 12.6473H11.8733C12.3067 12.6473 12.66 12.294 12.66 11.8607V10.7273C12.66 10.3407 12.84 9.85398 13.0933 9.56065L14 8.50732C14.2333 8.23398 14.2333 7.75398 14 7.48065L13.0933 6.42732C12.84 6.13398 12.66 5.64732 12.66 5.26065V4.13398C12.66 3.70065 12.3067 3.34732 11.8733 3.34732H10.74C10.3533 3.34732 9.86667 3.16732 9.57334 2.91398L8.52 2.00732C8.24667 1.77398 7.76667 1.77398 7.49334 2.00732L6.44 2.92065C6.14667 3.16732 5.65334 3.34732 5.27334 3.34732H4.12Z" fill="#2A2A2D"/>
</svg>
