<svg width="16" height="16" viewBox="0 0 16 16" fill="none" xmlns="http://www.w3.org/2000/svg">
<path d="M7.19321 10.1134C7.05988 10.1134 6.93321 10.06 6.83988 9.96669L5.22654 8.35335C5.03321 8.16002 5.03321 7.84002 5.22654 7.64669C5.41988 7.45335 5.73988 7.45335 5.93321 7.64669L7.19321 8.90669L10.0599 6.04002C10.2532 5.84669 10.5732 5.84669 10.7665 6.04002C10.9599 6.23335 10.9599 6.55335 10.7665 6.74669L7.54654 9.96669C7.45321 10.06 7.32654 10.1134 7.19321 10.1134Z" fill="white"/>
<path d="M8 15.1666C7.58 15.1666 7.16 15.0266 6.83334 14.7466L5.78 13.8399C5.67334 13.7466 5.40667 13.6533 5.26667 13.6533H4.12C3.13334 13.6533 2.33334 12.8533 2.33334 11.8666V10.7266C2.33334 10.5866 2.24 10.3266 2.14667 10.2199L1.24667 9.15992C0.700003 8.51325 0.700003 7.49325 1.24667 6.84659L2.14667 5.78659C2.24 5.67992 2.33334 5.41992 2.33334 5.27992V4.13325C2.33334 3.14659 3.13334 2.34659 4.12 2.34659H5.27334C5.41334 2.34659 5.68 2.24659 5.78667 2.15992L6.84 1.25325C7.49334 0.693252 8.51334 0.693252 9.16667 1.25325L10.22 2.15992C10.3267 2.25325 10.5933 2.34659 10.7333 2.34659H11.8667C12.8533 2.34659 13.6533 3.14659 13.6533 4.13325V5.26659C13.6533 5.40659 13.7533 5.67325 13.8467 5.77992L14.7533 6.83325C15.3133 7.48659 15.3133 8.50659 14.7533 9.15992L13.8467 10.2133C13.7533 10.3199 13.6533 10.5866 13.6533 10.7266V11.8599C13.6533 12.8466 12.8533 13.6466 11.8667 13.6466H10.7333C10.5933 13.6466 10.3267 13.7466 10.22 13.8333L9.16667 14.7399C8.84 15.0266 8.42 15.1666 8 15.1666ZM4.12 3.34659C3.68667 3.34659 3.33334 3.69992 3.33334 4.13325V5.27325C3.33334 5.65325 3.15334 6.13992 2.90667 6.42659L2.00667 7.48659C1.77334 7.75992 1.77334 8.23325 2.00667 8.50659L2.90667 9.56659C3.15334 9.85992 3.33334 10.3399 3.33334 10.7199V11.8599C3.33334 12.2933 3.68667 12.6466 4.12 12.6466H5.27334C5.66 12.6466 6.14667 12.8266 6.44 13.0799L7.49334 13.9866C7.76667 14.2199 8.24667 14.2199 8.52 13.9866L9.57334 13.0799C9.86667 12.8333 10.3533 12.6466 10.74 12.6466H11.8733C12.3067 12.6466 12.66 12.2933 12.66 11.8599V10.7266C12.66 10.3399 12.84 9.85325 13.0933 9.55992L14 8.50659C14.2333 8.23325 14.2333 7.75325 14 7.47992L13.0933 6.42659C12.84 6.13325 12.66 5.64659 12.66 5.25992V4.13325C12.66 3.69992 12.3067 3.34659 11.8733 3.34659H10.74C10.3533 3.34659 9.86667 3.16659 9.57334 2.91325L8.52 2.00659C8.24667 1.77325 7.76667 1.77325 7.49334 2.00659L6.44 2.91992C6.14667 3.16659 5.65334 3.34659 5.27334 3.34659H4.12Z" fill="white"/>
</svg>
