<svg width="16" height="16" viewBox="0 0 16 16" fill="none" xmlns="http://www.w3.org/2000/svg">
<path d="M7.19321 10.1134C7.05988 10.1134 6.93321 10.06 6.83988 9.96669L5.22654 8.35335C5.03321 8.16002 5.03321 7.84002 5.22654 7.64669C5.41988 7.45335 5.73988 7.45335 5.93321 7.64669L7.19321 8.90669L10.0599 6.04002C10.2532 5.84669 10.5732 5.84669 10.7665 6.04002C10.9599 6.23335 10.9599 6.55335 10.7665 6.74669L7.54654 9.96669C7.45321 10.06 7.32654 10.1134 7.19321 10.1134Z" fill="#2599F6"/>
<path d="M7.99976 15.1666C7.57976 15.1666 7.15976 15.0266 6.83309 14.7466L5.77976 13.8399C5.67309 13.7466 5.40643 13.6533 5.26643 13.6533H4.11976C3.13309 13.6533 2.33309 12.8533 2.33309 11.8666V10.7266C2.33309 10.5866 2.23976 10.3266 2.14643 10.2199L1.24643 9.15992C0.699759 8.51325 0.699759 7.49325 1.24643 6.84659L2.14643 5.78659C2.23976 5.67992 2.33309 5.41992 2.33309 5.27992V4.13325C2.33309 3.14659 3.13309 2.34659 4.11976 2.34659H5.27309C5.41309 2.34659 5.67976 2.24659 5.78643 2.15992L6.83976 1.25325C7.49309 0.693252 8.51309 0.693252 9.16643 1.25325L10.2198 2.15992C10.3264 2.25325 10.5931 2.34659 10.7331 2.34659H11.8664C12.8531 2.34659 13.6531 3.14659 13.6531 4.13325V5.26659C13.6531 5.40659 13.7531 5.67325 13.8464 5.77992L14.7531 6.83325C15.3131 7.48659 15.3131 8.50659 14.7531 9.15992L13.8464 10.2133C13.7531 10.3199 13.6531 10.5866 13.6531 10.7266V11.8599C13.6531 12.8466 12.8531 13.6466 11.8664 13.6466H10.7331C10.5931 13.6466 10.3264 13.7466 10.2198 13.8333L9.16643 14.7399C8.83976 15.0266 8.41976 15.1666 7.99976 15.1666ZM4.11976 3.34659C3.68643 3.34659 3.33309 3.69992 3.33309 4.13325V5.27325C3.33309 5.65325 3.15309 6.13992 2.90643 6.42659L2.00643 7.48659C1.77309 7.75992 1.77309 8.23325 2.00643 8.50659L2.90643 9.56659C3.15309 9.85992 3.33309 10.3399 3.33309 10.7199V11.8599C3.33309 12.2933 3.68643 12.6466 4.11976 12.6466H5.27309C5.65976 12.6466 6.14643 12.8266 6.43976 13.0799L7.49309 13.9866C7.76643 14.2199 8.24643 14.2199 8.51976 13.9866L9.57309 13.0799C9.86643 12.8333 10.3531 12.6466 10.7398 12.6466H11.8731C12.3064 12.6466 12.6598 12.2933 12.6598 11.8599V10.7266C12.6598 10.3399 12.8398 9.85325 13.0931 9.55992L13.9998 8.50659C14.2331 8.23325 14.2331 7.75325 13.9998 7.47992L13.0931 6.42659C12.8398 6.13325 12.6598 5.64659 12.6598 5.25992V4.13325C12.6598 3.69992 12.3064 3.34659 11.8731 3.34659H10.7398C10.3531 3.34659 9.86643 3.16659 9.57309 2.91325L8.51976 2.00659C8.24643 1.77325 7.76643 1.77325 7.49309 2.00659L6.43976 2.91992C6.14643 3.16659 5.65309 3.34659 5.27309 3.34659H4.11976Z" fill="#2599F6"/>
</svg>
