<svg width="25" height="25" viewBox="0 0 25 25" fill="none" xmlns="http://www.w3.org/2000/svg">
<path d="M15.875 23.25H9.875C4.445 23.25 2.125 20.93 2.125 15.5V9.5C2.125 4.07 4.445 1.75 9.875 1.75H15.875C21.305 1.75 23.625 4.07 23.625 9.5V15.5C23.625 20.93 21.305 23.25 15.875 23.25ZM9.875 3.25C5.265 3.25 3.625 4.89 3.625 9.5V15.5C3.625 20.11 5.265 21.75 9.875 21.75H15.875C20.485 21.75 22.125 20.11 22.125 15.5V9.5C22.125 4.89 20.485 3.25 15.875 3.25H9.875Z" fill="#131314"/>
<path d="M22.3584 18.3599H3.39844C2.98844 18.3599 2.64844 18.0199 2.64844 17.6099C2.64844 17.1999 2.98844 16.8599 3.39844 16.8599H22.3584C22.7684 16.8599 23.1084 17.1999 23.1084 17.6099C23.1084 18.0199 22.7784 18.3599 22.3584 18.3599Z" fill="#131314"/>
<path d="M22.3584 8.35986H3.39844C2.98844 8.35986 2.64844 8.01986 2.64844 7.60986C2.64844 7.19986 2.97844 6.85986 3.39844 6.85986H22.3584C22.7684 6.85986 23.1084 7.19986 23.1084 7.60986C23.1084 8.01986 22.7784 8.35986 22.3584 8.35986Z" fill="#131314"/>
<path d="M7.84375 22.7099C7.43375 22.7099 7.09375 22.3699 7.09375 21.9599V17.6099C7.09375 17.1999 7.43375 16.8599 7.84375 16.8599C8.25375 16.8599 8.59375 17.1999 8.59375 17.6099V21.9599C8.59375 22.3799 8.25375 22.7099 7.84375 22.7099Z" fill="#131314"/>
<path d="M12.875 23.2199C12.465 23.2199 12.125 22.8799 12.125 22.4699V17.6099C12.125 17.1999 12.465 16.8599 12.875 16.8599C13.285 16.8599 13.625 17.1999 13.625 17.6099V22.4699C13.625 22.8799 13.285 23.2199 12.875 23.2199Z" fill="#292D32"/>
<path d="M17.8438 22.7699C17.4338 22.7699 17.0938 22.4299 17.0938 22.0199V17.6099C17.0938 17.1999 17.4338 16.8599 17.8438 16.8599C18.2537 16.8599 18.5938 17.1999 18.5938 17.6099V22.0199C18.5938 22.4399 18.2537 22.7699 17.8438 22.7699Z" fill="#292D32"/>
<path d="M7.84375 7.70986C7.43375 7.70986 7.09375 7.36986 7.09375 6.95986V2.60986C7.09375 2.19986 7.43375 1.85986 7.84375 1.85986C8.25375 1.85986 8.59375 2.19986 8.59375 2.60986V6.95986C8.59375 7.37986 8.25375 7.70986 7.84375 7.70986Z" fill="#292D32"/>
<path d="M12.875 8.21986C12.465 8.21986 12.125 7.87986 12.125 7.46986V2.60986C12.125 2.19986 12.465 1.85986 12.875 1.85986C13.285 1.85986 13.625 2.19986 13.625 2.60986V7.46986C13.625 7.87986 13.285 8.21986 12.875 8.21986Z" fill="#292D32"/>
<path d="M12.875 19.2798C12.465 19.2798 12.125 18.9398 12.125 18.5298V7.52979C12.125 7.11979 12.465 6.77979 12.875 6.77979C13.285 6.77979 13.625 7.11979 13.625 7.52979V18.5298C13.625 18.9398 13.285 19.2798 12.875 19.2798Z" fill="#292D32"/>
<path d="M17.8438 7.76986C17.4338 7.76986 17.0938 7.42986 17.0938 7.01986V2.60986C17.0938 2.19986 17.4338 1.85986 17.8438 1.85986C18.2537 1.85986 18.5938 2.19986 18.5938 2.60986V7.01986C18.5938 7.43986 18.2537 7.76986 17.8438 7.76986Z" fill="#292D32"/>
</svg>
