<svg width="16" height="16" viewBox="0 0 16 16" fill="none" xmlns="http://www.w3.org/2000/svg">
<g clip-path="url(#clip0_2391_29490)">
<path d="M8.58732 13.9071H4.54065C2.17398 13.9071 1.33398 12.2471 1.33398 10.7004V5.30042C1.33398 2.99375 2.23398 2.09375 4.54065 2.09375H8.58732C10.894 2.09375 11.794 2.99375 11.794 5.30042V10.7004C11.794 13.0071 10.894 13.9071 8.58732 13.9071ZM4.54065 3.10708C2.80065 3.10708 2.34732 3.56042 2.34732 5.30042V10.7004C2.34732 11.5204 2.63398 12.8938 4.54065 12.8938H8.58732C10.3273 12.8938 10.7807 12.4404 10.7807 10.7004V5.30042C10.7807 3.56042 10.3273 3.10708 8.58732 3.10708H4.54065Z" fill="#8D8E96"/>
<path d="M13.8538 12.0737C13.5671 12.0737 13.2004 11.9803 12.7804 11.687L11.0004 10.4403C10.8671 10.347 10.7871 10.1937 10.7871 10.027V5.97366C10.7871 5.80699 10.8671 5.65366 11.0004 5.56032L12.7804 4.31366C13.5738 3.76032 14.1538 3.92032 14.4271 4.06032C14.7004 4.20699 15.1671 4.58699 15.1671 5.55366V10.4403C15.1671 11.407 14.7004 11.7937 14.4271 11.9337C14.3004 12.007 14.1004 12.0737 13.8538 12.0737ZM11.7938 9.76032L13.3604 10.8537C13.6604 11.0603 13.8738 11.0803 13.9604 11.0337C14.0538 10.987 14.1538 10.8003 14.1538 10.4403V5.56032C14.1538 5.19366 14.0471 5.01366 13.9604 4.96699C13.8738 4.92032 13.6604 4.94032 13.3604 5.14699L11.7938 6.24032V9.76032Z" fill="#8D8E96"/>
<path d="M7.66602 7.83398C6.83935 7.83398 6.16602 7.16065 6.16602 6.33398C6.16602 5.50732 6.83935 4.83398 7.66602 4.83398C8.49268 4.83398 9.16602 5.50732 9.16602 6.33398C9.16602 7.16065 8.49268 7.83398 7.66602 7.83398ZM7.66602 5.83398C7.39268 5.83398 7.16602 6.06065 7.16602 6.33398C7.16602 6.60732 7.39268 6.83398 7.66602 6.83398C7.93935 6.83398 8.16602 6.60732 8.16602 6.33398C8.16602 6.06065 7.93935 5.83398 7.66602 5.83398Z" fill="#8D8E96"/>
</g>
<defs>
<clipPath id="clip0_2391_29490">
<rect width="16" height="16" fill="white"/>
</clipPath>
</defs>
</svg>
