<svg width="50" height="16" viewBox="0 0 50 16" fill="none" xmlns="http://www.w3.org/2000/svg">
<g clip-path="url(#clip0_2281_26985)">
<path d="M32.2414 0C28.7323 0 25.5818 1.82588 25.5818 5.17647C25.5818 9.03529 31.1472 9.29882 31.1472 11.2188C31.1472 12.0282 30.2039 12.7624 28.6192 12.7624C26.3553 12.7624 24.6574 11.7459 24.6574 11.7459L23.9405 15.1341C23.9405 15.1341 25.8836 16 28.4871 16C32.3357 16 35.3542 14.0988 35.3542 10.6729C35.3542 6.60706 29.77 6.34353 29.77 4.55529C29.77 3.91529 30.5435 3.21882 32.1282 3.21882C33.9204 3.21882 35.3919 3.95294 35.3919 3.95294L36.1088 0.677647C36.0899 0.677647 34.4864 0 32.2414 0ZM0.0943281 0.244706L0 0.734118C0 0.734118 1.47152 0.997647 2.81098 1.54353C4.52775 2.16471 4.64094 2.52235 4.94279 3.63294L8.09335 15.7365H12.3193L18.7902 0.244706H14.5831L10.4138 10.7859L8.71592 1.84471C8.56499 0.828235 7.77264 0.244706 6.79163 0.244706H0.0943281ZM20.4881 0.244706L17.1866 15.7365H21.205L24.4876 0.244706H20.4881ZM42.8627 0.244706C41.9006 0.244706 41.3912 0.752941 41.0139 1.65647L35.1278 15.7365H39.3348L40.1461 13.3835H45.2775L45.768 15.7365H49.4845L46.2585 0.244706H42.8627ZM43.4098 4.44235L44.6549 10.2588H41.3157L43.4098 4.44235Z" fill="#1434CB"/>
</g>
<defs>
<clipPath id="clip0_2281_26985">
<rect width="49.4845" height="16" fill="white"/>
</clipPath>
</defs>
</svg>
