<svg width="22" height="22" viewBox="0 0 22 22" fill="none" xmlns="http://www.w3.org/2000/svg">
<path d="M11.0007 20.8541C5.56482 20.8541 1.14648 16.4358 1.14648 10.9999C1.14648 5.56409 5.56482 1.14575 11.0007 1.14575C16.4365 1.14575 20.8548 5.56409 20.8548 10.9999C20.8548 16.4358 16.4365 20.8541 11.0007 20.8541ZM11.0007 2.52075C6.32565 2.52075 2.52148 6.32492 2.52148 10.9999C2.52148 15.6749 6.32565 19.4791 11.0007 19.4791C15.6757 19.4791 19.4798 15.6749 19.4798 10.9999C19.4798 6.32492 15.6757 2.52075 11.0007 2.52075Z" fill="white"/>
<path d="M8.40591 14.2817C8.23174 14.2817 8.05758 14.2176 7.92008 14.0801C7.65424 13.8142 7.65424 13.3742 7.92008 13.1084L13.1084 7.92008C13.3742 7.65424 13.8142 7.65424 14.0801 7.92008C14.3459 8.18591 14.3459 8.62591 14.0801 8.89174L8.89174 14.0801C8.76341 14.2176 8.58008 14.2817 8.40591 14.2817Z" fill="white"/>
<path d="M13.5942 14.2817C13.4201 14.2817 13.2459 14.2176 13.1084 14.0801L7.92008 8.89174C7.65424 8.62591 7.65424 8.18591 7.92008 7.92008C8.18591 7.65424 8.62591 7.65424 8.89174 7.92008L14.0801 13.1084C14.3459 13.3742 14.3459 13.8142 14.0801 14.0801C13.9426 14.2176 13.7684 14.2817 13.5942 14.2817Z" fill="white"/>
</svg>
