<svg width="632" height="88" viewBox="0 0 632 88" fill="none" xmlns="http://www.w3.org/2000/svg">
<rect width="632" height="88" fill="#6F7076"/>
<rect x="286" y="31" width="2" height="27" rx="1" fill="#8D8E96"/>
<rect x="290" y="34" width="2" height="20" rx="1" fill="#8D8E96"/>
<rect x="294" y="38" width="2" height="13" rx="1" fill="#8D8E96"/>
<rect x="298" y="20" width="2" height="48" rx="1" fill="#8D8E96"/>
<rect x="302" y="31" width="2" height="27" rx="1" fill="#8D8E96"/>
<rect x="306" y="31" width="2" height="27" rx="1" fill="#8D8E96"/>
<rect x="310" y="35" width="2" height="18" rx="1" fill="#8D8E96"/>
<rect x="314" y="41" width="2" height="7" rx="1" fill="#8D8E96"/>
<rect x="318" y="41" width="2" height="7" rx="1" fill="#8D8E96"/>
<rect x="282" y="41" width="2" height="7" rx="1" fill="#8D8E96"/>
<rect x="324" y="31" width="2" height="27" rx="1" fill="#8D8E96"/>
<rect x="328" y="34" width="2" height="20" rx="1" fill="#8D8E96"/>
<rect x="332" y="38" width="2" height="13" rx="1" fill="#8D8E96"/>
<rect x="336" y="20" width="2" height="48" rx="1" fill="#8D8E96"/>
<rect x="340" y="31" width="2" height="27" rx="1" fill="#8D8E96"/>
<rect x="344" y="31" width="2" height="27" rx="1" fill="#8D8E96"/>
<rect x="348" y="35" width="2" height="18" rx="1" fill="#8D8E96"/>
<rect x="352" y="41" width="2" height="7" rx="1" fill="#8D8E96"/>
<rect x="356" y="41" width="2" height="7" rx="1" fill="#8D8E96"/>
<rect x="320" y="41" width="2" height="7" rx="1" fill="#8D8E96"/>
<rect x="362" y="31" width="2" height="27" rx="1" fill="#8D8E96"/>
<rect x="366" y="34" width="2" height="20" rx="1" fill="#8D8E96"/>
<rect x="370" y="38" width="2" height="13" rx="1" fill="#8D8E96"/>
<rect x="374" y="20" width="2" height="48" rx="1" fill="#8D8E96"/>
<rect x="378" y="31" width="2" height="27" rx="1" fill="#8D8E96"/>
<rect x="382" y="31" width="2" height="27" rx="1" fill="#8D8E96"/>
<rect x="386" y="35" width="2" height="18" rx="1" fill="#8D8E96"/>
<rect x="390" y="41" width="2" height="7" rx="1" fill="#8D8E96"/>
<rect x="394" y="41" width="2" height="7" rx="1" fill="#8D8E96"/>
<rect x="358" y="41" width="2" height="7" rx="1" fill="#8D8E96"/>
<rect x="400" y="31" width="2" height="27" rx="1" fill="#8D8E96"/>
<rect x="404" y="34" width="2" height="20" rx="1" fill="#8D8E96"/>
<rect x="408" y="38" width="2" height="13" rx="1" fill="#8D8E96"/>
<rect x="412" y="20" width="2" height="48" rx="1" fill="#8D8E96"/>
<rect x="416" y="31" width="2" height="27" rx="1" fill="#8D8E96"/>
<rect x="420" y="31" width="2" height="27" rx="1" fill="#8D8E96"/>
<rect x="424" y="35" width="2" height="18" rx="1" fill="#8D8E96"/>
<rect x="428" y="41" width="2" height="7" rx="1" fill="#8D8E96"/>
<rect x="432" y="41" width="2" height="7" rx="1" fill="#8D8E96"/>
<rect x="396" y="41" width="2" height="7" rx="1" fill="#8D8E96"/>
<rect x="438" y="31" width="2" height="27" rx="1" fill="#8D8E96"/>
<rect x="442" y="34" width="2" height="20" rx="1" fill="#8D8E96"/>
<rect x="446" y="38" width="2" height="13" rx="1" fill="#8D8E96"/>
<rect x="450" y="20" width="2" height="48" rx="1" fill="#8D8E96"/>
<rect x="454" y="31" width="2" height="27" rx="1" fill="#8D8E96"/>
<rect x="458" y="31" width="2" height="27" rx="1" fill="#8D8E96"/>
<rect x="462" y="35" width="2" height="18" rx="1" fill="#8D8E96"/>
<rect x="466" y="41" width="2" height="7" rx="1" fill="#8D8E96"/>
<rect x="470" y="41" width="2" height="7" rx="1" fill="#8D8E96"/>
<rect x="434" y="41" width="2" height="7" rx="1" fill="#8D8E96"/>
<rect x="476" y="31" width="2" height="27" rx="1" fill="#8D8E96"/>
<rect x="480" y="34" width="2" height="20" rx="1" fill="#8D8E96"/>
<rect x="484" y="38" width="2" height="13" rx="1" fill="#8D8E96"/>
<rect x="488" y="20" width="2" height="48" rx="1" fill="#8D8E96"/>
<rect x="492" y="31" width="2" height="27" rx="1" fill="#8D8E96"/>
<rect x="496" y="31" width="2" height="27" rx="1" fill="#8D8E96"/>
<rect x="500" y="35" width="2" height="18" rx="1" fill="#8D8E96"/>
<rect x="504" y="41" width="2" height="7" rx="1" fill="#8D8E96"/>
<rect x="508" y="41" width="2" height="7" rx="1" fill="#8D8E96"/>
<rect x="472" y="41" width="2" height="7" rx="1" fill="#8D8E96"/>
<rect x="514" y="31" width="2" height="27" rx="1" fill="#8D8E96"/>
<rect x="518" y="34" width="2" height="20" rx="1" fill="#8D8E96"/>
<rect x="522" y="38" width="2" height="13" rx="1" fill="#8D8E96"/>
<rect x="526" y="20" width="2" height="48" rx="1" fill="#8D8E96"/>
<rect x="530" y="31" width="2" height="27" rx="1" fill="#8D8E96"/>
<rect x="534" y="31" width="2" height="27" rx="1" fill="#8D8E96"/>
<rect x="538" y="35" width="2" height="18" rx="1" fill="#8D8E96"/>
<rect x="550" y="35" width="2" height="18" rx="1" fill="#8D8E96"/>
<rect x="542" y="41" width="2" height="7" rx="1" fill="#8D8E96"/>
<rect x="546" y="41" width="2" height="7" rx="1" fill="#8D8E96"/>
<rect x="510" y="41" width="2" height="7" rx="1" fill="#8D8E96"/>
<rect x="248" y="31" width="2" height="27" rx="1" fill="#C1E1FA"/>
<rect x="252" y="34" width="2" height="20" rx="1" fill="#C1E1FA"/>
<rect x="256" y="38" width="2" height="13" rx="1" fill="#C1E1FA"/>
<rect x="260" y="20" width="2" height="48" rx="1" fill="#C1E1FA"/>
<rect x="264" y="31" width="2" height="27" rx="1" fill="#C1E1FA"/>
<rect x="268" y="31" width="2" height="27" rx="1" fill="#C1E1FA"/>
<rect x="272" y="35" width="2" height="18" rx="1" fill="#C1E1FA"/>
<rect x="276" y="41" width="2" height="7" rx="1" fill="#C1E1FA"/>
<rect x="280" y="41" width="2" height="7" rx="1" fill="#C1E1FA"/>
<rect x="244" y="41" width="2" height="7" rx="1" fill="#C1E1FA"/>
<rect x="210" y="31" width="2" height="27" rx="1" fill="#C1E1FA"/>
<rect x="214" y="34" width="2" height="20" rx="1" fill="#C1E1FA"/>
<rect x="218" y="38" width="2" height="13" rx="1" fill="#C1E1FA"/>
<rect x="222" y="20" width="2" height="48" rx="1" fill="#C1E1FA"/>
<rect x="226" y="31" width="2" height="27" rx="1" fill="#C1E1FA"/>
<rect x="230" y="31" width="2" height="27" rx="1" fill="#C1E1FA"/>
<rect x="234" y="35" width="2" height="18" rx="1" fill="#C1E1FA"/>
<rect x="238" y="41" width="2" height="7" rx="1" fill="#C1E1FA"/>
<rect x="242" y="41" width="2" height="7" rx="1" fill="#C1E1FA"/>
<rect x="206" y="41" width="2" height="7" rx="1" fill="#C1E1FA"/>
<rect x="172" y="31" width="2" height="27" rx="1" fill="#C1E1FA"/>
<rect x="176" y="34" width="2" height="20" rx="1" fill="#C1E1FA"/>
<rect x="180" y="38" width="2" height="13" rx="1" fill="#C1E1FA"/>
<rect x="184" y="20" width="2" height="48" rx="1" fill="#C1E1FA"/>
<rect x="188" y="31" width="2" height="27" rx="1" fill="#C1E1FA"/>
<rect x="192" y="31" width="2" height="27" rx="1" fill="#C1E1FA"/>
<rect x="196" y="35" width="2" height="18" rx="1" fill="#C1E1FA"/>
<rect x="200" y="41" width="2" height="7" rx="1" fill="#C1E1FA"/>
<rect x="204" y="41" width="2" height="7" rx="1" fill="#C1E1FA"/>
<rect x="168" y="41" width="2" height="7" rx="1" fill="#C1E1FA"/>
<rect x="134" y="31" width="2" height="27" rx="1" fill="#C1E1FA"/>
<rect x="138" y="34" width="2" height="20" rx="1" fill="#C1E1FA"/>
<rect x="142" y="38" width="2" height="13" rx="1" fill="#C1E1FA"/>
<rect x="146" y="20" width="2" height="48" rx="1" fill="#C1E1FA"/>
<rect x="150" y="31" width="2" height="27" rx="1" fill="#C1E1FA"/>
<rect x="154" y="31" width="2" height="27" rx="1" fill="#C1E1FA"/>
<rect x="158" y="35" width="2" height="18" rx="1" fill="#C1E1FA"/>
<rect x="162" y="41" width="2" height="7" rx="1" fill="#C1E1FA"/>
<rect x="166" y="41" width="2" height="7" rx="1" fill="#C1E1FA"/>
<rect x="130" y="41" width="2" height="7" rx="1" fill="#C1E1FA"/>
<rect x="96" y="31" width="2" height="27" rx="1" fill="#C1E1FA"/>
<rect x="100" y="34" width="2" height="20" rx="1" fill="#C1E1FA"/>
<rect x="104" y="38" width="2" height="13" rx="1" fill="#C1E1FA"/>
<rect x="108" y="20" width="2" height="48" rx="1" fill="#C1E1FA"/>
<rect x="112" y="31" width="2" height="27" rx="1" fill="#C1E1FA"/>
<rect x="116" y="31" width="2" height="27" rx="1" fill="#C1E1FA"/>
<rect x="120" y="35" width="2" height="18" rx="1" fill="#C1E1FA"/>
<rect x="124" y="41" width="2" height="7" rx="1" fill="#C1E1FA"/>
<rect x="128" y="41" width="2" height="7" rx="1" fill="#C1E1FA"/>
<rect x="92" y="41" width="2" height="7" rx="1" fill="#C1E1FA"/>
<rect x="58" y="31" width="2" height="27" rx="1" fill="#C1E1FA"/>
<rect x="62" y="34" width="2" height="20" rx="1" fill="#C1E1FA"/>
<rect x="66" y="38" width="2" height="13" rx="1" fill="#C1E1FA"/>
<rect x="70" y="20" width="2" height="48" rx="1" fill="#C1E1FA"/>
<rect x="74" y="31" width="2" height="27" rx="1" fill="#C1E1FA"/>
<rect x="78" y="31" width="2" height="27" rx="1" fill="#C1E1FA"/>
<rect x="82" y="35" width="2" height="18" rx="1" fill="#C1E1FA"/>
<rect x="86" y="41" width="2" height="7" rx="1" fill="#C1E1FA"/>
<rect x="90" y="41" width="2" height="7" rx="1" fill="#C1E1FA"/>
<rect x="54" y="41" width="2" height="7" rx="1" fill="#C1E1FA"/>
<rect x="20" y="31" width="2" height="27" rx="1" fill="#C1E1FA"/>
<rect x="24" y="34" width="2" height="20" rx="1" fill="#C1E1FA"/>
<rect x="28" y="38" width="2" height="13" rx="1" fill="#C1E1FA"/>
<rect x="32" y="20" width="2" height="48" rx="1" fill="#C1E1FA"/>
<rect x="36" y="31" width="2" height="27" rx="1" fill="#C1E1FA"/>
<rect x="40" y="31" width="2" height="27" rx="1" fill="#C1E1FA"/>
<rect x="44" y="35" width="2" height="18" rx="1" fill="#C1E1FA"/>
<rect x="48" y="41" width="2" height="7" rx="1" fill="#C1E1FA"/>
<rect x="52" y="41" width="2" height="7" rx="1" fill="#C1E1FA"/>
<rect x="16" y="41" width="2" height="7" rx="1" fill="#C1E1FA"/>
<g filter="url(#filter0_dd_878_16458)">
<rect x="576" y="25" width="40" height="40" rx="20" fill="#F7FAFC"/>
<rect x="576.5" y="25.5" width="39" height="39" rx="19.5" stroke="#2599F6"/>
<path d="M591.87 54.28C591.08 54.28 590.33 54.09 589.67 53.71C588.11 52.81 587.25 50.98 587.25 48.57V41.44C587.25 39.02 588.11 37.2 589.67 36.3C591.23 35.4 593.24 35.57 595.34 36.78L601.51 40.34C603.6 41.55 604.76 43.21 604.76 45.01C604.76 46.81 603.61 48.47 601.51 49.68L595.34 53.24C594.13 53.93 592.95 54.28 591.87 54.28ZM591.87 37.22C591.33 37.22 590.85 37.34 590.42 37.59C589.34 38.21 588.75 39.58 588.75 41.44V48.56C588.75 50.42 589.34 51.78 590.42 52.41C591.5 53.04 592.98 52.86 594.59 51.93L600.76 48.37C602.37 47.44 603.26 46.25 603.26 45C603.26 43.75 602.37 42.56 600.76 41.63L594.59 38.07C593.61 37.51 592.69 37.22 591.87 37.22Z" fill="#2599F6"/>
</g>
<defs>
<filter id="filter0_dd_878_16458" x="556" y="5" width="81" height="81" filterUnits="userSpaceOnUse" color-interpolation-filters="sRGB">
<feFlood flood-opacity="0" result="BackgroundImageFix"/>
<feColorMatrix in="SourceAlpha" type="matrix" values="0 0 0 0 0 0 0 0 0 0 0 0 0 0 0 0 0 0 127 0" result="hardAlpha"/>
<feOffset dy="1"/>
<feGaussianBlur stdDeviation="10"/>
<feComposite in2="hardAlpha" operator="out"/>
<feColorMatrix type="matrix" values="0 0 0 0 0.0705882 0 0 0 0 0.133333 0 0 0 0 0.0627451 0 0 0 0.1 0"/>
<feBlend mode="normal" in2="BackgroundImageFix" result="effect1_dropShadow_878_16458"/>
<feColorMatrix in="SourceAlpha" type="matrix" values="0 0 0 0 0 0 0 0 0 0 0 0 0 0 0 0 0 0 127 0" result="hardAlpha"/>
<feOffset dx="1"/>
<feGaussianBlur stdDeviation="10"/>
<feComposite in2="hardAlpha" operator="out"/>
<feColorMatrix type="matrix" values="0 0 0 0 0.0695085 0 0 0 0 0.135158 0 0 0 0 0.0635403 0 0 0 0.1 0"/>
<feBlend mode="normal" in2="effect1_dropShadow_878_16458" result="effect2_dropShadow_878_16458"/>
<feBlend mode="normal" in="SourceGraphic" in2="effect2_dropShadow_878_16458" result="shape"/>
</filter>
</defs>
</svg>
