<svg width="16" height="16" viewBox="0 0 16 16" fill="none" xmlns="http://www.w3.org/2000/svg">
<path d="M7.40004 15.1666H4.60004C1.99337 15.1666 0.833374 14.0066 0.833374 11.3999V8.59992C0.833374 5.99325 1.99337 4.83325 4.60004 4.83325H7.40004C10.0067 4.83325 11.1667 5.99325 11.1667 8.59992V11.3999C11.1667 14.0066 10.0067 15.1666 7.40004 15.1666ZM4.60004 5.83325C2.53337 5.83325 1.83337 6.53325 1.83337 8.59992V11.3999C1.83337 13.4666 2.53337 14.1666 4.60004 14.1666H7.40004C9.46671 14.1666 10.1667 13.4666 10.1667 11.3999V8.59992C10.1667 6.53325 9.46671 5.83325 7.40004 5.83325H4.60004Z" fill="#6F7076"/>
<path d="M11.4 11.1666H10.6667C10.3934 11.1666 10.1667 10.9399 10.1667 10.6666V8.59992C10.1667 6.53325 9.46671 5.83325 7.40004 5.83325H5.33337C5.06004 5.83325 4.83337 5.60659 4.83337 5.33325V4.59992C4.83337 1.99325 5.99337 0.833252 8.60004 0.833252H11.4C14.0067 0.833252 15.1667 1.99325 15.1667 4.59992V7.39992C15.1667 10.0066 14.0067 11.1666 11.4 11.1666ZM11.1667 10.1666H11.4C13.4667 10.1666 14.1667 9.46659 14.1667 7.39992V4.59992C14.1667 2.53325 13.4667 1.83325 11.4 1.83325H8.60004C6.53337 1.83325 5.83337 2.53325 5.83337 4.59992V4.83325H7.40004C10.0067 4.83325 11.1667 5.99325 11.1667 8.59992V10.1666Z" fill="#6F7076"/>
</svg>
