<svg width="72" height="72" viewBox="0 0 72 72" fill="none" xmlns="http://www.w3.org/2000/svg">
<rect x="0.36" y="0.36" width="71.28" height="71.28" rx="35.64" fill="white"/>
<rect x="0.36" y="0.36" width="71.28" height="71.28" rx="35.64" stroke="#D3D5E0" strokeWidth="0.72"/>
<g clip-path="url(#clip0_195_7095)">
<path d="M56.1603 36C56.1603 46.0626 48.7878 54.4031 39.1503 55.9151V41.8275H43.8478L44.7416 36H39.1503V32.2184C39.1503 30.6237 39.9315 29.07 42.4358 29.07H44.9778V24.1087C44.9778 24.1087 42.6705 23.715 40.4647 23.715C35.8602 23.715 32.8503 26.5059 32.8503 31.5585V36H27.7316V41.8275H32.8503V55.9151C23.2129 54.4031 15.8403 46.0626 15.8403 36C15.8403 24.8663 24.8667 15.84 36.0003 15.84C47.134 15.84 56.1603 24.8663 56.1603 36Z" fill="#1877F2"/>
<path d="M43.8471 41.8276L44.741 36.0001H39.1497V32.2184C39.1497 30.6241 39.9307 29.0701 42.4351 29.0701H44.9772V24.1088C44.9772 24.1088 42.6701 23.7151 40.4644 23.7151C35.8595 23.7151 32.8497 26.506 32.8497 31.5586V36.0001H27.731V41.8276H32.8497V55.9151C33.8761 56.0761 34.9281 56.1601 35.9997 56.1601C37.0713 56.1601 38.1233 56.0761 39.1497 55.9151V41.8276H43.8471Z" fill="white"/>
</g>
<defs>
<clipPath id="clip0_195_7095">
<rect width="40.32" height="40.32" fill="white" transform="translate(15.8403 15.84)"/>
</clipPath>
</defs>
</svg>
