<svg width="72" height="72" viewBox="0 0 72 72" fill="none" xmlns="http://www.w3.org/2000/svg">
<rect x="0.36" y="0.36" width="71.28" height="71.28" rx="35.64" fill="white"/>
<rect x="0.36" y="0.36" width="71.28" height="71.28" rx="35.64" stroke="#D3D5E0" strokeWidth="0.72"/>
<g clip-path="url(#clip0_195_7087)">
<path d="M18.5875 51.1237H25.002V35.5456L20.8017 28.2109L15.8384 28.6728V48.3746C15.8384 49.8935 17.0686 51.1237 18.5875 51.1237Z" fill="#0085F7"/>
<path d="M46.9958 51.1237H53.4104C54.9293 51.1237 56.1595 49.8935 56.1595 48.3746V28.6728L51.2034 28.2109L46.9959 35.5456V51.1237H46.9958Z" fill="#00A94B"/>
<path d="M46.9948 23.6327L43.2268 30.8228L46.9948 35.5454L56.1584 28.6727V25.0073C56.1584 21.6098 52.2799 19.6694 49.5606 21.7084L46.9948 23.6327Z" fill="#FFBC00"/>
<path fill-rule="evenodd" clip-rule="evenodd" d="M25.0026 35.5456L21.4121 27.9611L25.0026 23.6328L35.9989 31.8801L46.9952 23.6328V35.5456L35.9989 43.7928L25.0026 35.5456Z" fill="#FF4131"/>
<path d="M15.8386 25.0073V28.6727L25.0023 35.5454V23.6327L22.4365 21.7084C19.7171 19.6694 15.8386 21.6098 15.8386 25.0073Z" fill="#E51C19"/>
</g>
<defs>
<clipPath id="clip0_195_7087">
<rect width="40.32" height="40.32" fill="white" transform="translate(15.8396 15.84)"/>
</clipPath>
</defs>
</svg>
