<svg width="14" height="14" viewBox="0 0 14 14" fill="none" xmlns="http://www.w3.org/2000/svg">
<path d="M11.0833 1.75H2.91667C2.27233 1.75 1.75 2.27233 1.75 2.91667V11.0833C1.75 11.7277 2.27233 12.25 2.91667 12.25H11.0833C11.7277 12.25 12.25 11.7277 12.25 11.0833V2.91667C12.25 2.27233 11.7277 1.75 11.0833 1.75Z" stroke="#58595E" stroke-width="1.2" stroke-linecap="round" stroke-linejoin="round"/>
<path d="M5.25065 6.41732C5.89498 6.41732 6.41732 5.89498 6.41732 5.25065C6.41732 4.60632 5.89498 4.08398 5.25065 4.08398C4.60632 4.08398 4.08398 4.60632 4.08398 5.25065C4.08398 5.89498 4.60632 6.41732 5.25065 6.41732Z" stroke="#58595E" stroke-width="1.2" stroke-linecap="round" stroke-linejoin="round"/>
<path d="M12.25 8.74917L10.4498 6.94901C10.2311 6.73029 9.93436 6.60742 9.625 6.60742C9.31564 6.60742 9.01895 6.73029 8.80017 6.94901L3.5 12.2492" stroke="#58595E" stroke-width="1.2" stroke-linecap="round" stroke-linejoin="round"/>
</svg>
