<svg width="341" height="146" viewBox="0 0 341 146" fill="none" xmlns="http://www.w3.org/2000/svg">
<path d="M67.1445 130.941V114.867H72.7695V136H67.4766L67.1445 130.941ZM67.7695 126.605L69.4297 126.566C69.4297 127.973 69.2669 129.281 68.9414 130.492C68.6159 131.69 68.1276 132.732 67.4766 133.617C66.8255 134.49 66.0052 135.173 65.0156 135.668C64.026 136.15 62.8607 136.391 61.5195 136.391C60.4909 136.391 59.5404 136.247 58.668 135.961C57.8086 135.661 57.0664 135.199 56.4414 134.574C55.8294 133.936 55.3477 133.122 54.9961 132.133C54.6576 131.13 54.4883 129.926 54.4883 128.52V114.867H60.1133V128.559C60.1133 129.184 60.1849 129.711 60.3281 130.141C60.4844 130.57 60.6992 130.922 60.9727 131.195C61.2461 131.469 61.5651 131.664 61.9297 131.781C62.3073 131.898 62.724 131.957 63.1797 131.957C64.3385 131.957 65.25 131.723 65.9141 131.254C66.5911 130.785 67.0664 130.147 67.3398 129.34C67.6263 128.52 67.7695 127.608 67.7695 126.605ZM81.0742 119.379V136H75.4492V114.867H80.7227L81.0742 119.379ZM80.2539 124.691H78.7305C78.7305 123.129 78.9323 121.723 79.3359 120.473C79.7396 119.21 80.306 118.135 81.0352 117.25C81.7643 116.352 82.6302 115.668 83.6328 115.199C84.6484 114.717 85.7812 114.477 87.0312 114.477C88.0208 114.477 88.9258 114.62 89.7461 114.906C90.5664 115.193 91.2695 115.648 91.8555 116.273C92.4544 116.898 92.9102 117.725 93.2227 118.754C93.5482 119.783 93.7109 121.039 93.7109 122.523V136H88.0469V122.504C88.0469 121.566 87.9167 120.837 87.6562 120.316C87.3958 119.796 87.0117 119.431 86.5039 119.223C86.0091 119.001 85.3971 118.891 84.668 118.891C83.9128 118.891 83.2552 119.04 82.6953 119.34C82.1484 119.639 81.6927 120.056 81.3281 120.59C80.9766 121.111 80.7096 121.723 80.5273 122.426C80.3451 123.129 80.2539 123.884 80.2539 124.691ZM102.426 106V136H96.7812V106H102.426ZM111.512 114.867V136H105.867V114.867H111.512ZM105.516 109.359C105.516 108.539 105.802 107.862 106.375 107.328C106.948 106.794 107.716 106.527 108.68 106.527C109.63 106.527 110.392 106.794 110.965 107.328C111.551 107.862 111.844 108.539 111.844 109.359C111.844 110.18 111.551 110.857 110.965 111.391C110.392 111.924 109.63 112.191 108.68 112.191C107.716 112.191 106.948 111.924 106.375 111.391C105.802 110.857 105.516 110.18 105.516 109.359ZM120.285 119.242V136H114.641V114.867H119.934L120.285 119.242ZM119.504 124.691H117.941C117.941 123.22 118.117 121.866 118.469 120.629C118.833 119.379 119.361 118.298 120.051 117.387C120.754 116.462 121.62 115.746 122.648 115.238C123.677 114.73 124.868 114.477 126.223 114.477C127.16 114.477 128.02 114.62 128.801 114.906C129.582 115.18 130.253 115.616 130.812 116.215C131.385 116.801 131.828 117.569 132.141 118.52C132.453 119.457 132.609 120.583 132.609 121.898V136H126.984V122.523C126.984 121.56 126.854 120.818 126.594 120.297C126.333 119.776 125.962 119.411 125.48 119.203C125.012 118.995 124.445 118.891 123.781 118.891C123.052 118.891 122.414 119.04 121.867 119.34C121.333 119.639 120.891 120.056 120.539 120.59C120.188 121.111 119.927 121.723 119.758 122.426C119.589 123.129 119.504 123.884 119.504 124.691ZM132.082 124.047L130.07 124.301C130.07 122.921 130.24 121.638 130.578 120.453C130.93 119.268 131.444 118.227 132.121 117.328C132.811 116.43 133.664 115.733 134.68 115.238C135.695 114.73 136.867 114.477 138.195 114.477C139.211 114.477 140.135 114.626 140.969 114.926C141.802 115.212 142.512 115.674 143.098 116.312C143.697 116.938 144.152 117.758 144.465 118.773C144.79 119.789 144.953 121.033 144.953 122.504V136H139.309V122.504C139.309 121.527 139.178 120.785 138.918 120.277C138.671 119.757 138.306 119.398 137.824 119.203C137.355 118.995 136.796 118.891 136.145 118.891C135.467 118.891 134.875 119.027 134.367 119.301C133.859 119.561 133.436 119.926 133.098 120.395C132.759 120.863 132.505 121.41 132.336 122.035C132.167 122.647 132.082 123.318 132.082 124.047ZM153.746 114.867V136H148.102V114.867H153.746ZM147.75 109.359C147.75 108.539 148.036 107.862 148.609 107.328C149.182 106.794 149.951 106.527 150.914 106.527C151.865 106.527 152.626 106.794 153.199 107.328C153.785 107.862 154.078 108.539 154.078 109.359C154.078 110.18 153.785 110.857 153.199 111.391C152.626 111.924 151.865 112.191 150.914 112.191C149.951 112.191 149.182 111.924 148.609 111.391C148.036 110.857 147.75 110.18 147.75 109.359ZM167.246 114.867V118.852H154.941V114.867H167.246ZM157.988 109.652H163.613V129.633C163.613 130.245 163.691 130.714 163.848 131.039C164.017 131.365 164.264 131.592 164.59 131.723C164.915 131.84 165.326 131.898 165.82 131.898C166.172 131.898 166.484 131.885 166.758 131.859C167.044 131.82 167.285 131.781 167.48 131.742L167.5 135.883C167.018 136.039 166.497 136.163 165.938 136.254C165.378 136.345 164.759 136.391 164.082 136.391C162.845 136.391 161.764 136.189 160.84 135.785C159.928 135.368 159.225 134.704 158.73 133.793C158.236 132.882 157.988 131.684 157.988 130.199V109.652ZM178.676 136.391C177.035 136.391 175.564 136.13 174.262 135.609C172.96 135.076 171.853 134.34 170.941 133.402C170.043 132.465 169.353 131.378 168.871 130.141C168.389 128.891 168.148 127.562 168.148 126.156V125.375C168.148 123.773 168.376 122.309 168.832 120.98C169.288 119.652 169.939 118.5 170.785 117.523C171.645 116.547 172.686 115.798 173.91 115.277C175.134 114.743 176.514 114.477 178.051 114.477C179.548 114.477 180.876 114.724 182.035 115.219C183.194 115.714 184.164 116.417 184.945 117.328C185.74 118.24 186.339 119.333 186.742 120.609C187.146 121.872 187.348 123.279 187.348 124.828V127.172H170.551V123.422H181.82V122.992C181.82 122.211 181.677 121.514 181.391 120.902C181.117 120.277 180.701 119.783 180.141 119.418C179.581 119.053 178.865 118.871 177.992 118.871C177.25 118.871 176.612 119.034 176.078 119.359C175.544 119.685 175.108 120.141 174.77 120.727C174.444 121.312 174.197 122.003 174.027 122.797C173.871 123.578 173.793 124.438 173.793 125.375V126.156C173.793 127.003 173.91 127.784 174.145 128.5C174.392 129.216 174.737 129.835 175.18 130.355C175.635 130.876 176.182 131.28 176.82 131.566C177.471 131.853 178.207 131.996 179.027 131.996C180.043 131.996 180.987 131.801 181.859 131.41C182.745 131.007 183.507 130.401 184.145 129.594L186.879 132.562C186.436 133.201 185.831 133.812 185.062 134.398C184.307 134.984 183.396 135.466 182.328 135.844C181.26 136.208 180.043 136.391 178.676 136.391ZM201.531 131.391V106H207.195V136H202.098L201.531 131.391ZM188.172 125.688V125.277C188.172 123.663 188.354 122.198 188.719 120.883C189.083 119.555 189.617 118.415 190.32 117.465C191.023 116.514 191.889 115.779 192.918 115.258C193.947 114.737 195.118 114.477 196.434 114.477C197.671 114.477 198.751 114.737 199.676 115.258C200.613 115.779 201.408 116.521 202.059 117.484C202.723 118.435 203.257 119.561 203.66 120.863C204.064 122.152 204.357 123.565 204.539 125.102V126C204.357 127.471 204.064 128.839 203.66 130.102C203.257 131.365 202.723 132.471 202.059 133.422C201.408 134.359 200.613 135.089 199.676 135.609C198.738 136.13 197.645 136.391 196.395 136.391C195.079 136.391 193.908 136.124 192.879 135.59C191.863 135.056 191.004 134.307 190.301 133.344C189.611 132.38 189.083 131.247 188.719 129.945C188.354 128.643 188.172 127.224 188.172 125.688ZM193.797 125.277V125.688C193.797 126.56 193.862 127.374 193.992 128.129C194.135 128.884 194.363 129.555 194.676 130.141C195.001 130.714 195.418 131.163 195.926 131.488C196.447 131.801 197.078 131.957 197.82 131.957C198.784 131.957 199.578 131.742 200.203 131.312C200.828 130.87 201.303 130.264 201.629 129.496C201.967 128.728 202.163 127.842 202.215 126.84V124.281C202.176 123.461 202.059 122.725 201.863 122.074C201.681 121.41 201.408 120.844 201.043 120.375C200.691 119.906 200.249 119.542 199.715 119.281C199.194 119.021 198.576 118.891 197.859 118.891C197.13 118.891 196.505 119.06 195.984 119.398C195.464 119.724 195.04 120.173 194.715 120.746C194.402 121.319 194.168 121.996 194.012 122.777C193.868 123.546 193.797 124.379 193.797 125.277ZM225.719 136H220.055V112.992C220.055 111.391 220.367 110.043 220.992 108.949C221.63 107.842 222.522 107.009 223.668 106.449C224.827 105.876 226.201 105.59 227.789 105.59C228.31 105.59 228.811 105.629 229.293 105.707C229.775 105.772 230.243 105.857 230.699 105.961L230.641 110.199C230.393 110.134 230.133 110.089 229.859 110.062C229.586 110.036 229.267 110.023 228.902 110.023C228.225 110.023 227.646 110.141 227.164 110.375C226.695 110.596 226.337 110.928 226.09 111.371C225.842 111.814 225.719 112.354 225.719 112.992V136ZM229.938 114.867V118.852H216.91V114.867H229.938ZM243.887 130.941V114.867H249.512V136H244.219L243.887 130.941ZM244.512 126.605L246.172 126.566C246.172 127.973 246.009 129.281 245.684 130.492C245.358 131.69 244.87 132.732 244.219 133.617C243.568 134.49 242.747 135.173 241.758 135.668C240.768 136.15 239.603 136.391 238.262 136.391C237.233 136.391 236.283 136.247 235.41 135.961C234.551 135.661 233.809 135.199 233.184 134.574C232.572 133.936 232.09 133.122 231.738 132.133C231.4 131.13 231.23 129.926 231.23 128.52V114.867H236.855V128.559C236.855 129.184 236.927 129.711 237.07 130.141C237.227 130.57 237.441 130.922 237.715 131.195C237.988 131.469 238.307 131.664 238.672 131.781C239.049 131.898 239.466 131.957 239.922 131.957C241.081 131.957 241.992 131.723 242.656 131.254C243.333 130.785 243.809 130.147 244.082 129.34C244.368 128.52 244.512 127.608 244.512 126.605ZM257.816 119.379V136H252.191V114.867H257.465L257.816 119.379ZM256.996 124.691H255.473C255.473 123.129 255.674 121.723 256.078 120.473C256.482 119.21 257.048 118.135 257.777 117.25C258.507 116.352 259.372 115.668 260.375 115.199C261.391 114.717 262.523 114.477 263.773 114.477C264.763 114.477 265.668 114.62 266.488 114.906C267.309 115.193 268.012 115.648 268.598 116.273C269.197 116.898 269.652 117.725 269.965 118.754C270.29 119.783 270.453 121.039 270.453 122.523V136H264.789V122.504C264.789 121.566 264.659 120.837 264.398 120.316C264.138 119.796 263.754 119.431 263.246 119.223C262.751 119.001 262.139 118.891 261.41 118.891C260.655 118.891 259.997 119.04 259.438 119.34C258.891 119.639 258.435 120.056 258.07 120.59C257.719 121.111 257.452 121.723 257.27 122.426C257.087 123.129 256.996 123.884 256.996 124.691Z" fill="black"/>
<path d="M272.863 61.4465L278.527 37.5207H281.691L282.414 41.5051L276.379 65.9582H272.98L272.863 61.4465ZM269.953 37.5207L274.641 61.4465L274.25 65.9582H270.461L264.152 37.5207H269.953ZM287.395 61.3488L292.023 37.5207H297.824L291.535 65.9582H287.746L287.395 61.3488ZM283.469 37.5207L289.172 61.5441L289.016 65.9582H285.617L279.543 41.4855L280.324 37.5207H283.469ZM305.094 44.8254V65.9582H299.449V44.8254H305.094ZM299.098 39.3176C299.098 38.4973 299.384 37.8202 299.957 37.2863C300.53 36.7525 301.298 36.4855 302.262 36.4855C303.212 36.4855 303.974 36.7525 304.547 37.2863C305.133 37.8202 305.426 38.4973 305.426 39.3176C305.426 40.1379 305.133 40.815 304.547 41.3488C303.974 41.8827 303.212 42.1496 302.262 42.1496C301.298 42.1496 300.53 41.8827 299.957 41.3488C299.384 40.815 299.098 40.1379 299.098 39.3176ZM318.594 44.8254V48.8098H306.289V44.8254H318.594ZM309.336 39.6105H314.961V59.591C314.961 60.203 315.039 60.6717 315.195 60.9973C315.365 61.3228 315.612 61.5506 315.938 61.6808C316.263 61.798 316.673 61.8566 317.168 61.8566C317.52 61.8566 317.832 61.8436 318.105 61.8176C318.392 61.7785 318.633 61.7394 318.828 61.7004L318.848 65.841C318.366 65.9973 317.845 66.121 317.285 66.2121C316.725 66.3032 316.107 66.3488 315.43 66.3488C314.193 66.3488 313.112 66.147 312.188 65.7433C311.276 65.3267 310.573 64.6626 310.078 63.7512C309.583 62.8397 309.336 61.6418 309.336 60.1574V39.6105ZM325.785 35.9582V65.9582H320.16V35.9582H325.785ZM324.984 54.6496H323.441C323.454 53.1782 323.65 51.8241 324.027 50.5871C324.405 49.3371 324.945 48.2564 325.648 47.3449C326.352 46.4204 327.191 45.7043 328.168 45.1965C329.158 44.6887 330.251 44.4348 331.449 44.4348C332.491 44.4348 333.435 44.5845 334.281 44.884C335.141 45.1704 335.876 45.6392 336.488 46.2902C337.113 46.9282 337.595 47.7681 337.934 48.8098C338.272 49.8514 338.441 51.1144 338.441 52.5988V65.9582H332.777V52.5598C332.777 51.6223 332.641 50.8866 332.367 50.3527C332.107 49.8058 331.723 49.4217 331.215 49.2004C330.72 48.966 330.108 48.8488 329.379 48.8488C328.572 48.8488 327.882 48.9986 327.309 49.298C326.749 49.5975 326.299 50.0142 325.961 50.548C325.622 51.0689 325.375 51.6808 325.219 52.384C325.062 53.0871 324.984 53.8423 324.984 54.6496Z" fill="black"/>
<path d="M39.1641 42.384L31.4297 65.9582H25.1992L35.7656 37.5207H39.7305L39.1641 42.384ZM45.5898 65.9582L37.8359 42.384L37.2109 37.5207H41.2148L51.8398 65.9582H45.5898ZM45.2383 55.3723V59.9621H30.2188V55.3723H45.2383Z" fill="black"/>
<rect x="68.1342" y="19.9308" width="172.468" height="62" rx="2" transform="rotate(-3.95572 68.1342 19.9308)" fill="white"/>
<rect x="68.1342" y="19.9308" width="172.468" height="62" rx="2" transform="rotate(-3.95572 68.1342 19.9308)" stroke="#2599F6" strokeWidth="4"/>
<path d="M91.0809 43.3333L92.819 68.4686L87.2074 68.8566L85.189 39.6685L90.3914 39.3088L91.0809 43.3333ZM104.86 48.6649L104.889 49.0741C104.995 50.6069 104.911 52.0419 104.638 53.379C104.378 54.7152 103.938 55.8942 103.317 56.9161C102.695 57.9249 101.889 58.7376 100.901 59.3542C99.9245 59.9568 98.7738 60.3039 97.4489 60.3956C96.1629 60.4845 95.0278 60.302 94.0436 59.8479C93.0594 59.3939 92.2102 58.7217 91.4961 57.8314C90.794 56.9271 90.205 55.865 89.7291 54.6449C89.2531 53.4248 88.8619 52.1075 88.5552 50.693L88.4811 49.6214C88.583 48.0742 88.7847 46.6506 89.0864 45.3507C89.3871 44.0377 89.8234 42.8916 90.3953 41.9124C90.9792 40.9192 91.7208 40.1305 92.6202 39.5462C93.5325 38.961 94.6251 38.6244 95.8981 38.5364C97.2361 38.4439 98.4292 38.6159 99.4774 39.0524C100.539 39.4881 101.446 40.1562 102.2 41.0569C102.967 41.9566 103.572 43.0504 104.013 44.3381C104.467 45.6249 104.75 47.0672 104.86 48.6649ZM99.2576 49.4635L99.2293 49.0543C99.1673 48.158 99.0324 47.3386 98.8244 46.5959C98.6285 45.8394 98.3484 45.1866 97.9842 44.6375C97.6329 44.0875 97.1867 43.6746 96.6455 43.3988C96.1165 43.1091 95.4882 42.9894 94.7608 43.0397C93.9944 43.0927 93.3469 43.2614 92.8184 43.546C92.3029 43.8296 91.8925 44.2169 91.5871 44.7079C91.2817 45.1989 91.067 45.775 90.943 46.4361C90.8191 47.0973 90.7659 47.8384 90.7835 48.6595L90.9708 51.3678C91.1022 52.3246 91.3438 53.1758 91.6956 53.9216C92.0464 54.6543 92.5489 55.22 93.203 55.6185C93.857 56.017 94.6906 56.1813 95.7038 56.1112C96.4443 56.06 97.0565 55.8545 97.5407 55.4947C98.0239 55.122 98.4012 54.6325 98.6726 54.0264C98.9569 53.4195 99.1375 52.7283 99.2144 51.9529C99.3043 51.1766 99.3187 50.3468 99.2576 49.4635ZM118.647 53.7611L117.998 44.3695C117.951 43.694 117.801 43.1236 117.547 42.6583C117.292 42.1799 116.921 41.8205 116.434 41.5801C115.961 41.3387 115.36 41.2432 114.633 41.2935C114.009 41.3366 113.478 41.4843 113.039 41.7366C112.598 41.9759 112.269 42.3054 112.05 42.7251C111.83 43.1319 111.738 43.6016 111.775 44.1341L106.164 44.5222C106.102 43.6259 106.251 42.7607 106.611 41.9266C106.971 41.0925 107.526 40.3427 108.276 39.6774C109.025 38.9991 109.933 38.4469 111 38.0207C112.08 37.5936 113.302 37.3329 114.666 37.2386C116.303 37.1254 117.776 37.2976 119.087 37.7552C120.398 38.2127 121.455 38.9619 122.257 40.0027C123.073 41.0427 123.538 42.381 123.651 44.0177L124.275 53.0392C124.355 54.1953 124.492 55.1386 124.686 55.8691C124.879 56.5867 125.131 57.2088 125.441 57.7355L125.464 58.0667L119.794 58.4588C119.482 57.9061 119.225 57.2061 119.023 56.3586C118.832 55.4973 118.707 54.6315 118.647 53.7611ZM118.828 45.6238L119.087 48.7971L115.95 49.014C115.21 49.0652 114.572 49.1941 114.038 49.4007C113.505 49.6073 113.073 49.8786 112.744 50.2146C112.414 50.5376 112.178 50.9063 112.037 51.3207C111.909 51.7342 111.862 52.1812 111.895 52.6618C111.928 53.1424 112.069 53.57 112.317 53.9444C112.563 54.3058 112.902 54.5826 113.333 54.7747C113.763 54.9538 114.258 55.024 114.816 54.9854C115.661 54.927 116.383 54.7074 116.983 54.3265C117.583 53.9457 118.035 53.4968 118.339 52.9798C118.655 52.4619 118.805 51.9817 118.787 51.5392L120.432 53.8139C120.261 54.3608 120.014 54.9327 119.69 55.5294C119.378 56.1252 118.968 56.6953 118.457 57.2396C117.946 57.7709 117.318 58.2255 116.574 58.6032C115.829 58.968 114.931 59.1867 113.878 59.2595C112.54 59.352 111.307 59.1697 110.179 58.7126C109.064 58.2415 108.155 57.5539 107.453 56.6497C106.763 55.7315 106.375 54.6619 106.291 53.4409C106.215 52.3368 106.355 51.3417 106.711 50.4556C107.067 49.5695 107.628 48.8064 108.393 48.1661C109.17 47.512 110.159 46.9934 111.359 46.6102C112.559 46.214 113.964 45.9602 115.574 45.8488L118.828 45.6238ZM131.927 41.0569L133.067 57.541L127.456 57.929L125.998 36.8466L131.278 36.4814L131.927 41.0569ZM137.952 35.8829L138.214 41.092C137.939 41.0719 137.605 41.0624 137.214 41.0633C136.834 41.0504 136.489 41.0547 136.177 41.0763C135.385 41.1311 134.703 41.2826 134.133 41.5309C133.575 41.7652 133.115 42.0908 132.752 42.5074C132.402 42.9231 132.149 43.417 131.993 43.9891C131.85 44.5602 131.79 45.2039 131.813 45.9201L130.659 45.6475C130.565 44.2836 130.614 43.0207 130.808 41.8587C131.001 40.6837 131.328 39.6496 131.788 38.7564C132.261 37.8622 132.865 37.1548 133.599 36.6342C134.333 36.1136 135.194 35.8191 136.181 35.7509C136.493 35.7293 136.813 35.7333 137.141 35.7628C137.468 35.7793 137.739 35.8193 137.952 35.8829ZM150.961 51.5267L150.311 42.135C150.264 41.4596 150.114 40.8891 149.86 40.4238C149.605 39.9454 149.234 39.5861 148.748 39.3456C148.274 39.1043 147.674 39.0087 146.946 39.059C146.323 39.1022 145.791 39.2498 145.352 39.5021C144.912 39.7414 144.582 40.0709 144.363 40.4906C144.143 40.8974 144.052 41.3671 144.089 41.8997L138.477 42.2877C138.415 41.3914 138.564 40.5262 138.924 39.6921C139.284 38.858 139.839 38.1083 140.589 37.443C141.339 36.7646 142.247 36.2124 143.314 35.7862C144.393 35.3592 145.615 35.0985 146.979 35.0041C148.616 34.891 150.09 35.0631 151.4 35.5207C152.711 35.9782 153.768 36.7274 154.571 37.7683C155.387 38.8082 155.851 40.1465 155.964 41.7833L156.588 50.8047C156.668 51.9608 156.805 52.9041 156.999 53.6346C157.193 54.3522 157.444 54.9743 157.755 55.501L157.778 55.8323L152.108 56.2243C151.795 55.6717 151.538 54.9716 151.336 54.1241C151.146 53.2628 151.021 52.397 150.961 51.5267ZM151.142 43.3893L151.4 46.5626L148.263 46.7795C147.523 46.8307 146.886 46.9596 146.352 47.1662C145.818 47.3728 145.387 47.6441 145.057 47.9801C144.727 48.3032 144.492 48.6718 144.351 49.0862C144.223 49.4997 144.175 49.9467 144.209 50.4273C144.242 50.908 144.382 51.3355 144.63 51.7099C144.877 52.0713 145.216 52.3481 145.647 52.5402C146.077 52.7193 146.571 52.7895 147.13 52.7509C147.974 52.6925 148.696 52.4729 149.296 52.092C149.897 51.7112 150.348 51.2623 150.652 50.7453C150.969 50.2274 151.118 49.7472 151.101 49.3047L152.746 51.5794C152.575 52.1264 152.327 52.6982 152.003 53.2949C151.692 53.8907 151.281 54.4608 150.77 55.0051C150.259 55.5364 149.631 55.991 148.887 56.3687C148.143 56.7335 147.244 56.9522 146.192 57.025C144.854 57.1175 143.621 56.9352 142.493 56.4781C141.377 56.0071 140.468 55.3194 139.766 54.4152C139.076 53.4971 138.689 52.4275 138.604 51.2064C138.528 50.1023 138.668 49.1072 139.024 48.2211C139.381 47.335 139.942 46.5719 140.706 45.9317C141.484 45.2775 142.472 44.7589 143.673 44.3757C144.872 43.9795 146.277 43.7257 147.888 43.6143L151.142 43.3893ZM171.902 50.2352L170.15 24.9051L175.801 24.5143L177.87 54.4428L172.785 54.7945L171.902 50.2352ZM158.181 45.4673L158.153 45.0581C158.041 43.4473 158.122 41.9734 158.395 40.6363C158.667 39.2862 159.121 38.1127 159.757 37.116C160.393 36.1192 161.206 35.3256 162.196 34.735C163.186 34.1444 164.338 33.8038 165.65 33.7131C166.884 33.6278 167.98 33.813 168.938 34.2688C169.909 34.7237 170.753 35.4094 171.469 36.3257C172.197 37.2281 172.807 38.3149 173.299 39.5861C173.791 40.8442 174.181 42.2334 174.469 43.7536L174.531 44.6499C174.45 46.1303 174.252 47.5145 173.937 48.8023C173.621 50.0902 173.165 51.2312 172.568 52.2252C171.983 53.2054 171.241 53.9876 170.342 54.5719C169.443 55.1562 168.369 55.4914 167.122 55.5776C165.81 55.6684 164.623 55.4829 163.56 55.0213C162.51 54.5588 161.601 53.8711 160.833 52.9584C160.078 52.0448 159.474 50.951 159.02 49.6772C158.567 48.4034 158.287 47.0001 158.181 45.4673ZM163.764 44.67L163.792 45.0792C163.853 45.9495 163.974 46.7569 164.156 47.5013C164.351 48.2449 164.624 48.8981 164.977 49.4611C165.341 50.0102 165.787 50.4296 166.317 50.7193C166.858 50.9951 167.498 51.1074 168.239 51.0562C169.2 50.9898 169.978 50.7207 170.572 50.2489C171.164 49.7641 171.597 49.1273 171.869 48.3384C172.153 47.5487 172.287 46.6519 172.27 45.6481L172.093 43.0956C171.998 42.2799 171.83 41.5541 171.59 40.9181C171.363 40.2682 171.051 39.722 170.655 39.2795C170.272 38.8361 169.805 38.5029 169.254 38.28C168.717 38.0561 168.091 37.9689 167.376 38.0183C166.649 38.0686 166.037 38.2806 165.541 38.6542C165.044 39.0149 164.653 39.4922 164.367 40.0863C164.095 40.6794 163.908 41.371 163.806 42.1612C163.716 42.9374 163.702 43.7737 163.764 44.67ZM185.224 32.7511L186.681 53.8336L181.05 54.223L179.592 33.1405L185.224 32.7511ZM178.862 27.6701C178.805 26.8517 179.044 26.1565 179.579 25.5844C180.114 25.0123 180.862 24.693 181.823 24.6265C182.771 24.5609 183.55 24.7747 184.158 25.2677C184.779 25.7599 185.118 26.4151 185.175 27.2335C185.231 28.0519 184.986 28.7475 184.438 29.3205C183.903 29.8927 183.162 30.2115 182.214 30.2771C181.252 30.3435 180.468 30.1302 179.859 29.6372C179.251 29.1441 178.918 28.4884 178.862 27.6701ZM200.818 47.0022C200.79 46.5995 200.648 46.2439 200.392 45.9353C200.136 45.6268 199.68 45.3581 199.024 45.1293C198.381 44.8867 197.46 44.6893 196.262 44.5372C195.181 44.377 194.167 44.1535 193.22 43.8665C192.286 43.5657 191.463 43.1853 190.753 42.7254C190.055 42.2647 189.495 41.7031 189.07 41.0406C188.645 40.3652 188.401 39.5794 188.339 38.6831C188.278 37.7998 188.409 36.9554 188.732 36.15C189.068 35.3436 189.572 34.617 190.245 33.9701C190.931 33.3092 191.781 32.774 192.797 32.3644C193.825 31.941 194.995 31.6839 196.307 31.5931C198.138 31.4665 199.73 31.6501 201.083 32.1439C202.448 32.6368 203.517 33.3721 204.289 34.3498C205.074 35.3136 205.511 36.445 205.601 37.744L199.989 38.132C199.952 37.5864 199.801 37.1074 199.538 36.6949C199.286 36.2685 198.912 35.9486 198.414 35.735C197.928 35.5075 197.309 35.4198 196.555 35.4719C195.932 35.5151 195.4 35.6627 194.961 35.915C194.521 36.1543 194.19 36.4643 193.968 36.8451C193.759 37.212 193.669 37.6098 193.698 38.0384C193.721 38.3632 193.806 38.651 193.954 38.9018C194.114 39.1387 194.357 39.3503 194.683 39.5366C195.009 39.7229 195.425 39.8899 195.931 40.0376C196.45 40.1714 197.084 40.2842 197.834 40.3759C199.376 40.5825 200.761 40.8978 201.991 41.3218C203.221 41.7328 204.216 42.3427 204.976 43.1515C205.736 43.9473 206.164 45.0337 206.259 46.4106C206.324 47.3459 206.175 48.2176 205.813 49.0257C205.452 49.8339 204.901 50.5571 204.162 51.1956C203.422 51.821 202.518 52.3339 201.449 52.734C200.393 53.1204 199.189 53.3602 197.838 53.4536C195.877 53.5893 194.19 53.3535 192.777 52.7464C191.378 52.1384 190.29 51.3195 189.514 50.2899C188.75 49.2463 188.329 48.153 188.25 47.0099L193.569 46.6421C193.648 47.4067 193.885 48.0102 194.281 48.4527C194.69 48.8943 195.188 49.1992 195.774 49.3676C196.373 49.535 197.01 49.5953 197.685 49.5486C198.413 49.4983 199.01 49.3591 199.477 49.131C199.944 48.89 200.288 48.592 200.512 48.2372C200.747 47.8685 200.849 47.4569 200.818 47.0022ZM218.554 52.0211C216.917 52.1343 215.432 51.976 214.097 51.5462C212.761 51.1035 211.606 50.4459 210.632 49.5735C209.671 48.7002 208.908 47.6632 208.342 46.4624C207.775 45.2486 207.443 43.9403 207.346 42.5374L207.292 41.758C207.182 40.1602 207.308 38.6831 207.671 37.3267C208.034 35.9703 208.604 34.7758 209.381 33.7432C210.171 32.7097 211.158 31.8909 212.343 31.2869C213.528 30.6699 214.886 30.3084 216.419 30.2024C217.913 30.0991 219.255 30.2543 220.445 30.6679C221.635 31.0816 222.651 31.7161 223.494 32.5715C224.349 33.426 225.022 34.4758 225.513 35.721C226.003 36.9532 226.301 38.3421 226.408 39.8879L226.569 42.2261L209.813 43.3848L209.554 39.6438L220.797 38.8663L220.767 38.4377C220.713 37.6583 220.522 36.9732 220.194 36.3824C219.878 35.7778 219.428 35.3129 218.845 34.9878C218.261 34.6628 217.534 34.5303 216.664 34.5905C215.923 34.6417 215.298 34.8481 214.788 35.2096C214.278 35.5712 213.874 36.0559 213.577 36.6638C213.292 37.2708 213.093 37.9764 212.979 38.7804C212.877 39.5706 212.858 40.4333 212.923 41.3686L212.977 42.148C213.035 42.9923 213.206 43.7636 213.489 44.4619C213.786 45.1593 214.173 45.7525 214.65 46.2415C215.141 46.7297 215.714 47.0946 216.37 47.3364C217.04 47.5773 217.783 47.6694 218.602 47.6128C219.615 47.5427 220.543 47.2828 221.387 46.8329C222.242 46.3691 222.96 45.7126 223.541 44.8632L226.474 47.6362C226.076 48.3033 225.514 48.9555 224.788 49.5931C224.075 50.2297 223.199 50.7732 222.16 51.2236C221.12 51.661 219.918 51.9268 218.554 52.0211Z" fill="url(#paint0_linear_195_7066)"/>
<circle cx="248.402" cy="71.8073" r="4" transform="rotate(-3.95572 248.402 71.8073)" fill="#2599F6"/>
<circle cx="243.479" cy="4.96575" r="4" transform="rotate(-3.95572 243.479 4.96575)" fill="#2599F6"/>
<circle cx="64.0081" cy="19.2805" r="4" transform="rotate(-3.95572 64.0081 19.2805)" fill="#2599F6"/>
<circle cx="69.6063" cy="85.434" r="4" transform="rotate(-3.95572 69.6063 85.434)" fill="#2599F6"/>
<defs>
<linearGradient id="paint0_linear_195_7066" x1="111.233" y1="44.623" x2="227.685" y2="36.889" gradientUnits="userSpaceOnUse">
<stop stop-color="#2F8F9F"/>
<stop offset="1" stop-color="#8142E9"/>
</linearGradient>
</defs>
</svg>
