<svg width="250" height="141" viewBox="0 0 250 141" fill="none" xmlns="http://www.w3.org/2000/svg">
<path d="M48 31C48 28.7909 49.7909 27 52 27H68C70.2091 27 72 28.7909 72 31V123H48V31Z" fill="#C1E1FA"/>
<path d="M47.5293 133.221V133.67C47.5293 134.204 47.4626 134.682 47.3291 135.105C47.1956 135.529 47.0036 135.888 46.7529 136.185C46.5023 136.481 46.2012 136.707 45.8496 136.863C45.5013 137.02 45.1107 137.098 44.6777 137.098C44.2578 137.098 43.8721 137.02 43.5205 136.863C43.1722 136.707 42.8695 136.481 42.6123 136.185C42.3584 135.888 42.1615 135.529 42.0215 135.105C41.8815 134.682 41.8115 134.204 41.8115 133.67V133.221C41.8115 132.687 41.8799 132.21 42.0166 131.79C42.1566 131.367 42.3535 131.007 42.6074 130.711C42.8613 130.411 43.1624 130.184 43.5107 130.027C43.8623 129.871 44.248 129.793 44.668 129.793C45.1009 129.793 45.4915 129.871 45.8398 130.027C46.1914 130.184 46.4925 130.411 46.7432 130.711C46.9971 131.007 47.1908 131.367 47.3242 131.79C47.4609 132.21 47.5293 132.687 47.5293 133.221ZM46.5967 133.67V133.211C46.5967 132.788 46.5527 132.413 46.4648 132.088C46.3802 131.762 46.2549 131.489 46.0889 131.268C45.9229 131.046 45.7194 130.879 45.4785 130.765C45.2409 130.651 44.9707 130.594 44.668 130.594C44.375 130.594 44.1097 130.651 43.8721 130.765C43.6377 130.879 43.4359 131.046 43.2666 131.268C43.1006 131.489 42.972 131.762 42.8809 132.088C42.7897 132.413 42.7441 132.788 42.7441 133.211V133.67C42.7441 134.096 42.7897 134.474 42.8809 134.803C42.972 135.128 43.1022 135.403 43.2715 135.628C43.444 135.849 43.6475 136.017 43.8818 136.131C44.1195 136.245 44.3848 136.302 44.6777 136.302C44.9837 136.302 45.2555 136.245 45.4932 136.131C45.7308 136.017 45.931 135.849 46.0938 135.628C46.2598 135.403 46.3851 135.128 46.4697 134.803C46.5544 134.474 46.5967 134.096 46.5967 133.67ZM49.707 132.732V139.031H48.7988V131.717H49.6289L49.707 132.732ZM53.2666 134.314V134.417C53.2666 134.801 53.221 135.158 53.1299 135.486C53.0387 135.812 52.9053 136.095 52.7295 136.336C52.557 136.577 52.3438 136.764 52.0898 136.897C51.8359 137.031 51.5446 137.098 51.2158 137.098C50.8805 137.098 50.5843 137.042 50.3271 136.932C50.07 136.821 49.8519 136.66 49.6729 136.448C49.4938 136.237 49.3506 135.983 49.2432 135.687C49.139 135.39 49.0674 135.057 49.0283 134.686V134.139C49.0674 133.748 49.1406 133.398 49.248 133.089C49.3555 132.78 49.4971 132.516 49.6729 132.298C49.8519 132.076 50.0684 131.909 50.3223 131.795C50.5762 131.678 50.8691 131.619 51.2012 131.619C51.5332 131.619 51.8278 131.684 52.085 131.814C52.3421 131.941 52.5586 132.124 52.7344 132.361C52.9102 132.599 53.042 132.884 53.1299 133.216C53.221 133.545 53.2666 133.911 53.2666 134.314ZM52.3584 134.417V134.314C52.3584 134.051 52.3307 133.803 52.2754 133.572C52.2201 133.338 52.1338 133.133 52.0166 132.957C51.9027 132.778 51.7562 132.638 51.5771 132.537C51.3981 132.433 51.1849 132.381 50.9375 132.381C50.7096 132.381 50.5111 132.42 50.3418 132.498C50.1758 132.576 50.0342 132.682 49.917 132.815C49.7998 132.946 49.7038 133.095 49.6289 133.265C49.5573 133.431 49.5036 133.603 49.4678 133.782V135.047C49.5329 135.275 49.624 135.49 49.7412 135.691C49.8584 135.89 50.0146 136.051 50.21 136.175C50.4053 136.295 50.651 136.355 50.9473 136.355C51.1914 136.355 51.4014 136.305 51.5771 136.204C51.7562 136.1 51.9027 135.958 52.0166 135.779C52.1338 135.6 52.2201 135.395 52.2754 135.164C52.3307 134.93 52.3584 134.681 52.3584 134.417ZM56.6309 131.717V132.41H53.7744V131.717H56.6309ZM54.7412 130.433H55.6445V135.691C55.6445 135.87 55.6722 136.006 55.7275 136.097C55.7829 136.188 55.8545 136.248 55.9424 136.277C56.0303 136.307 56.1247 136.321 56.2256 136.321C56.3005 136.321 56.3786 136.315 56.46 136.302C56.5446 136.285 56.6081 136.272 56.6504 136.263L56.6553 137C56.5837 137.023 56.4893 137.044 56.3721 137.063C56.2581 137.086 56.1198 137.098 55.957 137.098C55.7357 137.098 55.5322 137.054 55.3467 136.966C55.1611 136.878 55.013 136.731 54.9023 136.526C54.7949 136.318 54.7412 136.038 54.7412 135.687V130.433ZM58.6719 131.717V137H57.7637V131.717H58.6719ZM57.6953 130.315C57.6953 130.169 57.7393 130.045 57.8271 129.944C57.9183 129.843 58.0518 129.793 58.2275 129.793C58.4001 129.793 58.5319 129.843 58.623 129.944C58.7174 130.045 58.7646 130.169 58.7646 130.315C58.7646 130.455 58.7174 130.576 58.623 130.677C58.5319 130.774 58.4001 130.823 58.2275 130.823C58.0518 130.823 57.9183 130.774 57.8271 130.677C57.7393 130.576 57.6953 130.455 57.6953 130.315ZM59.8828 134.417V134.305C59.8828 133.924 59.9382 133.571 60.0488 133.245C60.1595 132.916 60.319 132.632 60.5273 132.391C60.7357 132.146 60.988 131.958 61.2842 131.824C61.5804 131.688 61.9124 131.619 62.2803 131.619C62.6514 131.619 62.985 131.688 63.2812 131.824C63.5807 131.958 63.8346 132.146 64.043 132.391C64.2546 132.632 64.4157 132.916 64.5264 133.245C64.637 133.571 64.6924 133.924 64.6924 134.305V134.417C64.6924 134.798 64.637 135.151 64.5264 135.477C64.4157 135.802 64.2546 136.087 64.043 136.331C63.8346 136.572 63.5824 136.761 63.2861 136.897C62.9932 137.031 62.6611 137.098 62.29 137.098C61.9189 137.098 61.5853 137.031 61.2891 136.897C60.9928 136.761 60.7389 136.572 60.5273 136.331C60.319 136.087 60.1595 135.802 60.0488 135.477C59.9382 135.151 59.8828 134.798 59.8828 134.417ZM60.7861 134.305V134.417C60.7861 134.681 60.8171 134.93 60.8789 135.164C60.9408 135.395 61.0335 135.6 61.1572 135.779C61.2842 135.958 61.4421 136.1 61.6309 136.204C61.8197 136.305 62.0394 136.355 62.29 136.355C62.5374 136.355 62.7539 136.305 62.9395 136.204C63.1283 136.1 63.2845 135.958 63.4082 135.779C63.5319 135.6 63.6247 135.395 63.6865 135.164C63.7516 134.93 63.7842 134.681 63.7842 134.417V134.305C63.7842 134.044 63.7516 133.799 63.6865 133.567C63.6247 133.333 63.5303 133.126 63.4033 132.947C63.2796 132.765 63.1234 132.622 62.9346 132.518C62.749 132.413 62.5309 132.361 62.2803 132.361C62.0329 132.361 61.8148 132.413 61.626 132.518C61.4404 132.622 61.2842 132.765 61.1572 132.947C61.0335 133.126 60.9408 133.333 60.8789 133.567C60.8171 133.799 60.7861 134.044 60.7861 134.305ZM66.7285 132.845V137H65.8252V131.717H66.6797L66.7285 132.845ZM66.5137 134.158L66.1377 134.144C66.141 133.782 66.1947 133.449 66.2988 133.143C66.403 132.833 66.5495 132.565 66.7383 132.337C66.9271 132.109 67.1517 131.933 67.4121 131.81C67.6758 131.683 67.9671 131.619 68.2861 131.619C68.5465 131.619 68.7809 131.655 68.9893 131.727C69.1976 131.795 69.375 131.906 69.5215 132.059C69.6712 132.212 69.7852 132.41 69.8633 132.654C69.9414 132.895 69.9805 133.19 69.9805 133.538V137H69.0723V133.528C69.0723 133.252 69.0316 133.03 68.9502 132.864C68.8688 132.695 68.75 132.573 68.5938 132.498C68.4375 132.42 68.2454 132.381 68.0176 132.381C67.793 132.381 67.5879 132.428 67.4023 132.522C67.2201 132.617 67.0622 132.747 66.9287 132.913C66.7985 133.079 66.696 133.27 66.6211 133.484C66.5495 133.696 66.5137 133.921 66.5137 134.158ZM76.7041 129.852V137H75.8008V130.979L73.9795 131.644V130.828L76.5625 129.852H76.7041Z" fill="#2A2A2D"/>
<path d="M102 87C102 84.7909 103.791 83 106 83H122C124.209 83 126 84.7909 126 87V123H102V87Z" fill="#C1E1FA"/>
<path d="M101.529 133.221V133.67C101.529 134.204 101.463 134.682 101.329 135.105C101.196 135.529 101.004 135.888 100.753 136.185C100.502 136.481 100.201 136.707 99.8496 136.863C99.5013 137.02 99.1107 137.098 98.6777 137.098C98.2578 137.098 97.8721 137.02 97.5205 136.863C97.1722 136.707 96.8695 136.481 96.6123 136.185C96.3584 135.888 96.1615 135.529 96.0215 135.105C95.8815 134.682 95.8115 134.204 95.8115 133.67V133.221C95.8115 132.687 95.8799 132.21 96.0166 131.79C96.1566 131.367 96.3535 131.007 96.6074 130.711C96.8613 130.411 97.1624 130.184 97.5107 130.027C97.8623 129.871 98.248 129.793 98.668 129.793C99.1009 129.793 99.4915 129.871 99.8398 130.027C100.191 130.184 100.493 130.411 100.743 130.711C100.997 131.007 101.191 131.367 101.324 131.79C101.461 132.21 101.529 132.687 101.529 133.221ZM100.597 133.67V133.211C100.597 132.788 100.553 132.413 100.465 132.088C100.38 131.762 100.255 131.489 100.089 131.268C99.9229 131.046 99.7194 130.879 99.4785 130.765C99.2409 130.651 98.9707 130.594 98.668 130.594C98.375 130.594 98.1097 130.651 97.8721 130.765C97.6377 130.879 97.4359 131.046 97.2666 131.268C97.1006 131.489 96.972 131.762 96.8809 132.088C96.7897 132.413 96.7441 132.788 96.7441 133.211V133.67C96.7441 134.096 96.7897 134.474 96.8809 134.803C96.972 135.128 97.1022 135.403 97.2715 135.628C97.444 135.849 97.6475 136.017 97.8818 136.131C98.1195 136.245 98.3848 136.302 98.6777 136.302C98.9837 136.302 99.2555 136.245 99.4932 136.131C99.7308 136.017 99.931 135.849 100.094 135.628C100.26 135.403 100.385 135.128 100.47 134.803C100.554 134.474 100.597 134.096 100.597 133.67ZM103.707 132.732V139.031H102.799V131.717H103.629L103.707 132.732ZM107.267 134.314V134.417C107.267 134.801 107.221 135.158 107.13 135.486C107.039 135.812 106.905 136.095 106.729 136.336C106.557 136.577 106.344 136.764 106.09 136.897C105.836 137.031 105.545 137.098 105.216 137.098C104.881 137.098 104.584 137.042 104.327 136.932C104.07 136.821 103.852 136.66 103.673 136.448C103.494 136.237 103.351 135.983 103.243 135.687C103.139 135.39 103.067 135.057 103.028 134.686V134.139C103.067 133.748 103.141 133.398 103.248 133.089C103.355 132.78 103.497 132.516 103.673 132.298C103.852 132.076 104.068 131.909 104.322 131.795C104.576 131.678 104.869 131.619 105.201 131.619C105.533 131.619 105.828 131.684 106.085 131.814C106.342 131.941 106.559 132.124 106.734 132.361C106.91 132.599 107.042 132.884 107.13 133.216C107.221 133.545 107.267 133.911 107.267 134.314ZM106.358 134.417V134.314C106.358 134.051 106.331 133.803 106.275 133.572C106.22 133.338 106.134 133.133 106.017 132.957C105.903 132.778 105.756 132.638 105.577 132.537C105.398 132.433 105.185 132.381 104.938 132.381C104.71 132.381 104.511 132.42 104.342 132.498C104.176 132.576 104.034 132.682 103.917 132.815C103.8 132.946 103.704 133.095 103.629 133.265C103.557 133.431 103.504 133.603 103.468 133.782V135.047C103.533 135.275 103.624 135.49 103.741 135.691C103.858 135.89 104.015 136.051 104.21 136.175C104.405 136.295 104.651 136.355 104.947 136.355C105.191 136.355 105.401 136.305 105.577 136.204C105.756 136.1 105.903 135.958 106.017 135.779C106.134 135.6 106.22 135.395 106.275 135.164C106.331 134.93 106.358 134.681 106.358 134.417ZM110.631 131.717V132.41H107.774V131.717H110.631ZM108.741 130.433H109.645V135.691C109.645 135.87 109.672 136.006 109.728 136.097C109.783 136.188 109.854 136.248 109.942 136.277C110.03 136.307 110.125 136.321 110.226 136.321C110.3 136.321 110.379 136.315 110.46 136.302C110.545 136.285 110.608 136.272 110.65 136.263L110.655 137C110.584 137.023 110.489 137.044 110.372 137.063C110.258 137.086 110.12 137.098 109.957 137.098C109.736 137.098 109.532 137.054 109.347 136.966C109.161 136.878 109.013 136.731 108.902 136.526C108.795 136.318 108.741 136.038 108.741 135.687V130.433ZM112.672 131.717V137H111.764V131.717H112.672ZM111.695 130.315C111.695 130.169 111.739 130.045 111.827 129.944C111.918 129.843 112.052 129.793 112.228 129.793C112.4 129.793 112.532 129.843 112.623 129.944C112.717 130.045 112.765 130.169 112.765 130.315C112.765 130.455 112.717 130.576 112.623 130.677C112.532 130.774 112.4 130.823 112.228 130.823C112.052 130.823 111.918 130.774 111.827 130.677C111.739 130.576 111.695 130.455 111.695 130.315ZM113.883 134.417V134.305C113.883 133.924 113.938 133.571 114.049 133.245C114.16 132.916 114.319 132.632 114.527 132.391C114.736 132.146 114.988 131.958 115.284 131.824C115.58 131.688 115.912 131.619 116.28 131.619C116.651 131.619 116.985 131.688 117.281 131.824C117.581 131.958 117.835 132.146 118.043 132.391C118.255 132.632 118.416 132.916 118.526 133.245C118.637 133.571 118.692 133.924 118.692 134.305V134.417C118.692 134.798 118.637 135.151 118.526 135.477C118.416 135.802 118.255 136.087 118.043 136.331C117.835 136.572 117.582 136.761 117.286 136.897C116.993 137.031 116.661 137.098 116.29 137.098C115.919 137.098 115.585 137.031 115.289 136.897C114.993 136.761 114.739 136.572 114.527 136.331C114.319 136.087 114.16 135.802 114.049 135.477C113.938 135.151 113.883 134.798 113.883 134.417ZM114.786 134.305V134.417C114.786 134.681 114.817 134.93 114.879 135.164C114.941 135.395 115.034 135.6 115.157 135.779C115.284 135.958 115.442 136.1 115.631 136.204C115.82 136.305 116.039 136.355 116.29 136.355C116.537 136.355 116.754 136.305 116.939 136.204C117.128 136.1 117.285 135.958 117.408 135.779C117.532 135.6 117.625 135.395 117.687 135.164C117.752 134.93 117.784 134.681 117.784 134.417V134.305C117.784 134.044 117.752 133.799 117.687 133.567C117.625 133.333 117.53 133.126 117.403 132.947C117.28 132.765 117.123 132.622 116.935 132.518C116.749 132.413 116.531 132.361 116.28 132.361C116.033 132.361 115.815 132.413 115.626 132.518C115.44 132.622 115.284 132.765 115.157 132.947C115.034 133.126 114.941 133.333 114.879 133.567C114.817 133.799 114.786 134.044 114.786 134.305ZM120.729 132.845V137H119.825V131.717H120.68L120.729 132.845ZM120.514 134.158L120.138 134.144C120.141 133.782 120.195 133.449 120.299 133.143C120.403 132.833 120.549 132.565 120.738 132.337C120.927 132.109 121.152 131.933 121.412 131.81C121.676 131.683 121.967 131.619 122.286 131.619C122.547 131.619 122.781 131.655 122.989 131.727C123.198 131.795 123.375 131.906 123.521 132.059C123.671 132.212 123.785 132.41 123.863 132.654C123.941 132.895 123.98 133.19 123.98 133.538V137H123.072V133.528C123.072 133.252 123.032 133.03 122.95 132.864C122.869 132.695 122.75 132.573 122.594 132.498C122.438 132.42 122.245 132.381 122.018 132.381C121.793 132.381 121.588 132.428 121.402 132.522C121.22 132.617 121.062 132.747 120.929 132.913C120.799 133.079 120.696 133.27 120.621 133.484C120.549 133.696 120.514 133.921 120.514 134.158ZM132.394 136.258V137H127.74V136.351L130.069 133.758C130.356 133.439 130.577 133.169 130.733 132.947C130.893 132.723 131.004 132.522 131.065 132.347C131.131 132.168 131.163 131.985 131.163 131.8C131.163 131.565 131.114 131.354 131.017 131.165C130.922 130.973 130.782 130.82 130.597 130.706C130.411 130.592 130.187 130.535 129.923 130.535C129.607 130.535 129.343 130.597 129.132 130.721C128.924 130.841 128.767 131.01 128.663 131.229C128.559 131.447 128.507 131.697 128.507 131.98H127.604C127.604 131.58 127.691 131.214 127.867 130.882C128.043 130.55 128.303 130.286 128.648 130.091C128.993 129.892 129.418 129.793 129.923 129.793C130.372 129.793 130.756 129.873 131.075 130.032C131.394 130.188 131.638 130.41 131.808 130.696C131.98 130.979 132.066 131.312 132.066 131.692C132.066 131.901 132.031 132.112 131.959 132.327C131.891 132.539 131.795 132.75 131.671 132.962C131.55 133.174 131.409 133.382 131.246 133.587C131.087 133.792 130.916 133.994 130.733 134.192L128.829 136.258H132.394Z" fill="#2A2A2D"/>
<path d="M156 4C156 1.79086 157.791 0 160 0H176C178.209 0 180 1.79086 180 4V123H156V4Z" fill="#C1E1FA"/>
<path d="M155.529 133.221V133.67C155.529 134.204 155.463 134.682 155.329 135.105C155.196 135.529 155.004 135.888 154.753 136.185C154.502 136.481 154.201 136.707 153.85 136.863C153.501 137.02 153.111 137.098 152.678 137.098C152.258 137.098 151.872 137.02 151.521 136.863C151.172 136.707 150.869 136.481 150.612 136.185C150.358 135.888 150.161 135.529 150.021 135.105C149.882 134.682 149.812 134.204 149.812 133.67V133.221C149.812 132.687 149.88 132.21 150.017 131.79C150.157 131.367 150.354 131.007 150.607 130.711C150.861 130.411 151.162 130.184 151.511 130.027C151.862 129.871 152.248 129.793 152.668 129.793C153.101 129.793 153.492 129.871 153.84 130.027C154.191 130.184 154.493 130.411 154.743 130.711C154.997 131.007 155.191 131.367 155.324 131.79C155.461 132.21 155.529 132.687 155.529 133.221ZM154.597 133.67V133.211C154.597 132.788 154.553 132.413 154.465 132.088C154.38 131.762 154.255 131.489 154.089 131.268C153.923 131.046 153.719 130.879 153.479 130.765C153.241 130.651 152.971 130.594 152.668 130.594C152.375 130.594 152.11 130.651 151.872 130.765C151.638 130.879 151.436 131.046 151.267 131.268C151.101 131.489 150.972 131.762 150.881 132.088C150.79 132.413 150.744 132.788 150.744 133.211V133.67C150.744 134.096 150.79 134.474 150.881 134.803C150.972 135.128 151.102 135.403 151.271 135.628C151.444 135.849 151.647 136.017 151.882 136.131C152.119 136.245 152.385 136.302 152.678 136.302C152.984 136.302 153.256 136.245 153.493 136.131C153.731 136.017 153.931 135.849 154.094 135.628C154.26 135.403 154.385 135.128 154.47 134.803C154.554 134.474 154.597 134.096 154.597 133.67ZM157.707 132.732V139.031H156.799V131.717H157.629L157.707 132.732ZM161.267 134.314V134.417C161.267 134.801 161.221 135.158 161.13 135.486C161.039 135.812 160.905 136.095 160.729 136.336C160.557 136.577 160.344 136.764 160.09 136.897C159.836 137.031 159.545 137.098 159.216 137.098C158.881 137.098 158.584 137.042 158.327 136.932C158.07 136.821 157.852 136.66 157.673 136.448C157.494 136.237 157.351 135.983 157.243 135.687C157.139 135.39 157.067 135.057 157.028 134.686V134.139C157.067 133.748 157.141 133.398 157.248 133.089C157.355 132.78 157.497 132.516 157.673 132.298C157.852 132.076 158.068 131.909 158.322 131.795C158.576 131.678 158.869 131.619 159.201 131.619C159.533 131.619 159.828 131.684 160.085 131.814C160.342 131.941 160.559 132.124 160.734 132.361C160.91 132.599 161.042 132.884 161.13 133.216C161.221 133.545 161.267 133.911 161.267 134.314ZM160.358 134.417V134.314C160.358 134.051 160.331 133.803 160.275 133.572C160.22 133.338 160.134 133.133 160.017 132.957C159.903 132.778 159.756 132.638 159.577 132.537C159.398 132.433 159.185 132.381 158.938 132.381C158.71 132.381 158.511 132.42 158.342 132.498C158.176 132.576 158.034 132.682 157.917 132.815C157.8 132.946 157.704 133.095 157.629 133.265C157.557 133.431 157.504 133.603 157.468 133.782V135.047C157.533 135.275 157.624 135.49 157.741 135.691C157.858 135.89 158.015 136.051 158.21 136.175C158.405 136.295 158.651 136.355 158.947 136.355C159.191 136.355 159.401 136.305 159.577 136.204C159.756 136.1 159.903 135.958 160.017 135.779C160.134 135.6 160.22 135.395 160.275 135.164C160.331 134.93 160.358 134.681 160.358 134.417ZM164.631 131.717V132.41H161.774V131.717H164.631ZM162.741 130.433H163.645V135.691C163.645 135.87 163.672 136.006 163.728 136.097C163.783 136.188 163.854 136.248 163.942 136.277C164.03 136.307 164.125 136.321 164.226 136.321C164.3 136.321 164.379 136.315 164.46 136.302C164.545 136.285 164.608 136.272 164.65 136.263L164.655 137C164.584 137.023 164.489 137.044 164.372 137.063C164.258 137.086 164.12 137.098 163.957 137.098C163.736 137.098 163.532 137.054 163.347 136.966C163.161 136.878 163.013 136.731 162.902 136.526C162.795 136.318 162.741 136.038 162.741 135.687V130.433ZM166.672 131.717V137H165.764V131.717H166.672ZM165.695 130.315C165.695 130.169 165.739 130.045 165.827 129.944C165.918 129.843 166.052 129.793 166.228 129.793C166.4 129.793 166.532 129.843 166.623 129.944C166.717 130.045 166.765 130.169 166.765 130.315C166.765 130.455 166.717 130.576 166.623 130.677C166.532 130.774 166.4 130.823 166.228 130.823C166.052 130.823 165.918 130.774 165.827 130.677C165.739 130.576 165.695 130.455 165.695 130.315ZM167.883 134.417V134.305C167.883 133.924 167.938 133.571 168.049 133.245C168.16 132.916 168.319 132.632 168.527 132.391C168.736 132.146 168.988 131.958 169.284 131.824C169.58 131.688 169.912 131.619 170.28 131.619C170.651 131.619 170.985 131.688 171.281 131.824C171.581 131.958 171.835 132.146 172.043 132.391C172.255 132.632 172.416 132.916 172.526 133.245C172.637 133.571 172.692 133.924 172.692 134.305V134.417C172.692 134.798 172.637 135.151 172.526 135.477C172.416 135.802 172.255 136.087 172.043 136.331C171.835 136.572 171.582 136.761 171.286 136.897C170.993 137.031 170.661 137.098 170.29 137.098C169.919 137.098 169.585 137.031 169.289 136.897C168.993 136.761 168.739 136.572 168.527 136.331C168.319 136.087 168.16 135.802 168.049 135.477C167.938 135.151 167.883 134.798 167.883 134.417ZM168.786 134.305V134.417C168.786 134.681 168.817 134.93 168.879 135.164C168.941 135.395 169.034 135.6 169.157 135.779C169.284 135.958 169.442 136.1 169.631 136.204C169.82 136.305 170.039 136.355 170.29 136.355C170.537 136.355 170.754 136.305 170.939 136.204C171.128 136.1 171.285 135.958 171.408 135.779C171.532 135.6 171.625 135.395 171.687 135.164C171.752 134.93 171.784 134.681 171.784 134.417V134.305C171.784 134.044 171.752 133.799 171.687 133.567C171.625 133.333 171.53 133.126 171.403 132.947C171.28 132.765 171.123 132.622 170.935 132.518C170.749 132.413 170.531 132.361 170.28 132.361C170.033 132.361 169.815 132.413 169.626 132.518C169.44 132.622 169.284 132.765 169.157 132.947C169.034 133.126 168.941 133.333 168.879 133.567C168.817 133.799 168.786 134.044 168.786 134.305ZM174.729 132.845V137H173.825V131.717H174.68L174.729 132.845ZM174.514 134.158L174.138 134.144C174.141 133.782 174.195 133.449 174.299 133.143C174.403 132.833 174.549 132.565 174.738 132.337C174.927 132.109 175.152 131.933 175.412 131.81C175.676 131.683 175.967 131.619 176.286 131.619C176.547 131.619 176.781 131.655 176.989 131.727C177.198 131.795 177.375 131.906 177.521 132.059C177.671 132.212 177.785 132.41 177.863 132.654C177.941 132.895 177.98 133.19 177.98 133.538V137H177.072V133.528C177.072 133.252 177.032 133.03 176.95 132.864C176.869 132.695 176.75 132.573 176.594 132.498C176.438 132.42 176.245 132.381 176.018 132.381C175.793 132.381 175.588 132.428 175.402 132.522C175.22 132.617 175.062 132.747 174.929 132.913C174.799 133.079 174.696 133.27 174.621 133.484C174.549 133.696 174.514 133.921 174.514 134.158ZM183.054 133.001H183.698C184.014 133.001 184.274 132.949 184.479 132.845C184.688 132.737 184.842 132.592 184.943 132.41C185.048 132.225 185.1 132.016 185.1 131.785C185.1 131.512 185.054 131.282 184.963 131.097C184.872 130.911 184.735 130.771 184.553 130.677C184.37 130.582 184.139 130.535 183.859 130.535C183.605 130.535 183.381 130.586 183.186 130.687C182.993 130.784 182.842 130.924 182.731 131.106C182.624 131.289 182.57 131.504 182.57 131.751H181.667C181.667 131.39 181.758 131.061 181.94 130.765C182.123 130.468 182.378 130.232 182.707 130.057C183.039 129.881 183.423 129.793 183.859 129.793C184.289 129.793 184.665 129.869 184.987 130.022C185.31 130.172 185.56 130.397 185.739 130.696C185.918 130.993 186.008 131.362 186.008 131.805C186.008 131.984 185.965 132.176 185.881 132.381C185.799 132.583 185.671 132.771 185.495 132.947C185.323 133.123 185.098 133.268 184.821 133.382C184.545 133.493 184.213 133.548 183.825 133.548H183.054V133.001ZM183.054 133.743V133.201H183.825C184.278 133.201 184.652 133.255 184.948 133.362C185.244 133.47 185.477 133.613 185.646 133.792C185.819 133.971 185.939 134.168 186.008 134.383C186.079 134.594 186.115 134.806 186.115 135.018C186.115 135.35 186.058 135.644 185.944 135.901C185.834 136.159 185.676 136.377 185.471 136.556C185.269 136.735 185.031 136.87 184.758 136.961C184.484 137.052 184.187 137.098 183.864 137.098C183.555 137.098 183.264 137.054 182.99 136.966C182.72 136.878 182.481 136.751 182.272 136.585C182.064 136.416 181.901 136.209 181.784 135.965C181.667 135.717 181.608 135.436 181.608 135.12H182.512C182.512 135.368 182.565 135.584 182.673 135.77C182.784 135.955 182.94 136.1 183.142 136.204C183.347 136.305 183.588 136.355 183.864 136.355C184.141 136.355 184.379 136.308 184.577 136.214C184.779 136.116 184.934 135.97 185.041 135.774C185.152 135.579 185.207 135.333 185.207 135.037C185.207 134.741 185.145 134.498 185.021 134.31C184.898 134.118 184.722 133.976 184.494 133.885C184.27 133.79 184.004 133.743 183.698 133.743H183.054Z" fill="#2A2A2D"/>
<path d="M210 55C210 52.7909 211.791 51 214 51H230C232.209 51 234 52.7909 234 55V123H210V55Z" fill="#C1E1FA"/>
<path d="M209.529 133.221V133.67C209.529 134.204 209.463 134.682 209.329 135.105C209.196 135.529 209.004 135.888 208.753 136.185C208.502 136.481 208.201 136.707 207.85 136.863C207.501 137.02 207.111 137.098 206.678 137.098C206.258 137.098 205.872 137.02 205.521 136.863C205.172 136.707 204.869 136.481 204.612 136.185C204.358 135.888 204.161 135.529 204.021 135.105C203.882 134.682 203.812 134.204 203.812 133.67V133.221C203.812 132.687 203.88 132.21 204.017 131.79C204.157 131.367 204.354 131.007 204.607 130.711C204.861 130.411 205.162 130.184 205.511 130.027C205.862 129.871 206.248 129.793 206.668 129.793C207.101 129.793 207.492 129.871 207.84 130.027C208.191 130.184 208.493 130.411 208.743 130.711C208.997 131.007 209.191 131.367 209.324 131.79C209.461 132.21 209.529 132.687 209.529 133.221ZM208.597 133.67V133.211C208.597 132.788 208.553 132.413 208.465 132.088C208.38 131.762 208.255 131.489 208.089 131.268C207.923 131.046 207.719 130.879 207.479 130.765C207.241 130.651 206.971 130.594 206.668 130.594C206.375 130.594 206.11 130.651 205.872 130.765C205.638 130.879 205.436 131.046 205.267 131.268C205.101 131.489 204.972 131.762 204.881 132.088C204.79 132.413 204.744 132.788 204.744 133.211V133.67C204.744 134.096 204.79 134.474 204.881 134.803C204.972 135.128 205.102 135.403 205.271 135.628C205.444 135.849 205.647 136.017 205.882 136.131C206.119 136.245 206.385 136.302 206.678 136.302C206.984 136.302 207.256 136.245 207.493 136.131C207.731 136.017 207.931 135.849 208.094 135.628C208.26 135.403 208.385 135.128 208.47 134.803C208.554 134.474 208.597 134.096 208.597 133.67ZM211.707 132.732V139.031H210.799V131.717H211.629L211.707 132.732ZM215.267 134.314V134.417C215.267 134.801 215.221 135.158 215.13 135.486C215.039 135.812 214.905 136.095 214.729 136.336C214.557 136.577 214.344 136.764 214.09 136.897C213.836 137.031 213.545 137.098 213.216 137.098C212.881 137.098 212.584 137.042 212.327 136.932C212.07 136.821 211.852 136.66 211.673 136.448C211.494 136.237 211.351 135.983 211.243 135.687C211.139 135.39 211.067 135.057 211.028 134.686V134.139C211.067 133.748 211.141 133.398 211.248 133.089C211.355 132.78 211.497 132.516 211.673 132.298C211.852 132.076 212.068 131.909 212.322 131.795C212.576 131.678 212.869 131.619 213.201 131.619C213.533 131.619 213.828 131.684 214.085 131.814C214.342 131.941 214.559 132.124 214.734 132.361C214.91 132.599 215.042 132.884 215.13 133.216C215.221 133.545 215.267 133.911 215.267 134.314ZM214.358 134.417V134.314C214.358 134.051 214.331 133.803 214.275 133.572C214.22 133.338 214.134 133.133 214.017 132.957C213.903 132.778 213.756 132.638 213.577 132.537C213.398 132.433 213.185 132.381 212.938 132.381C212.71 132.381 212.511 132.42 212.342 132.498C212.176 132.576 212.034 132.682 211.917 132.815C211.8 132.946 211.704 133.095 211.629 133.265C211.557 133.431 211.504 133.603 211.468 133.782V135.047C211.533 135.275 211.624 135.49 211.741 135.691C211.858 135.89 212.015 136.051 212.21 136.175C212.405 136.295 212.651 136.355 212.947 136.355C213.191 136.355 213.401 136.305 213.577 136.204C213.756 136.1 213.903 135.958 214.017 135.779C214.134 135.6 214.22 135.395 214.275 135.164C214.331 134.93 214.358 134.681 214.358 134.417ZM218.631 131.717V132.41H215.774V131.717H218.631ZM216.741 130.433H217.645V135.691C217.645 135.87 217.672 136.006 217.728 136.097C217.783 136.188 217.854 136.248 217.942 136.277C218.03 136.307 218.125 136.321 218.226 136.321C218.3 136.321 218.379 136.315 218.46 136.302C218.545 136.285 218.608 136.272 218.65 136.263L218.655 137C218.584 137.023 218.489 137.044 218.372 137.063C218.258 137.086 218.12 137.098 217.957 137.098C217.736 137.098 217.532 137.054 217.347 136.966C217.161 136.878 217.013 136.731 216.902 136.526C216.795 136.318 216.741 136.038 216.741 135.687V130.433ZM220.672 131.717V137H219.764V131.717H220.672ZM219.695 130.315C219.695 130.169 219.739 130.045 219.827 129.944C219.918 129.843 220.052 129.793 220.228 129.793C220.4 129.793 220.532 129.843 220.623 129.944C220.717 130.045 220.765 130.169 220.765 130.315C220.765 130.455 220.717 130.576 220.623 130.677C220.532 130.774 220.4 130.823 220.228 130.823C220.052 130.823 219.918 130.774 219.827 130.677C219.739 130.576 219.695 130.455 219.695 130.315ZM221.883 134.417V134.305C221.883 133.924 221.938 133.571 222.049 133.245C222.16 132.916 222.319 132.632 222.527 132.391C222.736 132.146 222.988 131.958 223.284 131.824C223.58 131.688 223.912 131.619 224.28 131.619C224.651 131.619 224.985 131.688 225.281 131.824C225.581 131.958 225.835 132.146 226.043 132.391C226.255 132.632 226.416 132.916 226.526 133.245C226.637 133.571 226.692 133.924 226.692 134.305V134.417C226.692 134.798 226.637 135.151 226.526 135.477C226.416 135.802 226.255 136.087 226.043 136.331C225.835 136.572 225.582 136.761 225.286 136.897C224.993 137.031 224.661 137.098 224.29 137.098C223.919 137.098 223.585 137.031 223.289 136.897C222.993 136.761 222.739 136.572 222.527 136.331C222.319 136.087 222.16 135.802 222.049 135.477C221.938 135.151 221.883 134.798 221.883 134.417ZM222.786 134.305V134.417C222.786 134.681 222.817 134.93 222.879 135.164C222.941 135.395 223.034 135.6 223.157 135.779C223.284 135.958 223.442 136.1 223.631 136.204C223.82 136.305 224.039 136.355 224.29 136.355C224.537 136.355 224.754 136.305 224.939 136.204C225.128 136.1 225.285 135.958 225.408 135.779C225.532 135.6 225.625 135.395 225.687 135.164C225.752 134.93 225.784 134.681 225.784 134.417V134.305C225.784 134.044 225.752 133.799 225.687 133.567C225.625 133.333 225.53 133.126 225.403 132.947C225.28 132.765 225.123 132.622 224.935 132.518C224.749 132.413 224.531 132.361 224.28 132.361C224.033 132.361 223.815 132.413 223.626 132.518C223.44 132.622 223.284 132.765 223.157 132.947C223.034 133.126 222.941 133.333 222.879 133.567C222.817 133.799 222.786 134.044 222.786 134.305ZM228.729 132.845V137H227.825V131.717H228.68L228.729 132.845ZM228.514 134.158L228.138 134.144C228.141 133.782 228.195 133.449 228.299 133.143C228.403 132.833 228.549 132.565 228.738 132.337C228.927 132.109 229.152 131.933 229.412 131.81C229.676 131.683 229.967 131.619 230.286 131.619C230.547 131.619 230.781 131.655 230.989 131.727C231.198 131.795 231.375 131.906 231.521 132.059C231.671 132.212 231.785 132.41 231.863 132.654C231.941 132.895 231.98 133.19 231.98 133.538V137H231.072V133.528C231.072 133.252 231.032 133.03 230.95 132.864C230.869 132.695 230.75 132.573 230.594 132.498C230.438 132.42 230.245 132.381 230.018 132.381C229.793 132.381 229.588 132.428 229.402 132.522C229.22 132.617 229.062 132.747 228.929 132.913C228.799 133.079 228.696 133.27 228.621 133.484C228.549 133.696 228.514 133.921 228.514 134.158ZM240.54 134.607V135.35H235.403V134.817L238.587 129.891H239.324L238.533 131.316L236.429 134.607H240.54ZM239.549 129.891V137H238.646V129.891H239.549Z" fill="#2A2A2D"/>
<path d="M31 1V123H250" stroke="#E0E2EE"/>
<path d="M4.36035 3.85156V11H3.45703V4.97949L1.63574 5.64355V4.82812L4.21875 3.85156H4.36035ZM11.4795 6.87891V7.96289C11.4795 8.54557 11.4274 9.03711 11.3232 9.4375C11.2191 9.83789 11.0693 10.1602 10.874 10.4043C10.6787 10.6484 10.4427 10.8258 10.166 10.9365C9.89258 11.0439 9.58333 11.0977 9.23828 11.0977C8.96484 11.0977 8.71257 11.0635 8.48145 10.9951C8.25033 10.9268 8.04199 10.8177 7.85645 10.668C7.67415 10.515 7.5179 10.3164 7.3877 10.0723C7.25749 9.82812 7.1582 9.5319 7.08984 9.18359C7.02148 8.83529 6.9873 8.42839 6.9873 7.96289V6.87891C6.9873 6.29622 7.03939 5.80794 7.14355 5.41406C7.25098 5.02018 7.40234 4.70443 7.59766 4.4668C7.79297 4.22591 8.02734 4.05339 8.30078 3.94922C8.57747 3.84505 8.88672 3.79297 9.22852 3.79297C9.50521 3.79297 9.75911 3.82715 9.99023 3.89551C10.2246 3.96061 10.4329 4.06641 10.6152 4.21289C10.7975 4.35612 10.9521 4.54818 11.0791 4.78906C11.2093 5.02669 11.3086 5.31803 11.377 5.66309C11.4453 6.00814 11.4795 6.41341 11.4795 6.87891ZM10.5713 8.10938V6.72754C10.5713 6.40853 10.5518 6.12858 10.5127 5.8877C10.4769 5.64355 10.4232 5.43522 10.3516 5.2627C10.2799 5.09017 10.1888 4.9502 10.0781 4.84277C9.9707 4.73535 9.84538 4.65723 9.70215 4.6084C9.56217 4.55632 9.4043 4.53027 9.22852 4.53027C9.01367 4.53027 8.82324 4.57096 8.65723 4.65234C8.49121 4.73047 8.35124 4.85579 8.2373 5.02832C8.12663 5.20085 8.04199 5.42708 7.9834 5.70703C7.9248 5.98698 7.89551 6.32715 7.89551 6.72754V8.10938C7.89551 8.42839 7.91341 8.70996 7.94922 8.9541C7.98828 9.19824 8.04525 9.40983 8.12012 9.58887C8.19499 9.76465 8.28613 9.90951 8.39355 10.0234C8.50098 10.1374 8.62467 10.222 8.76465 10.2773C8.90788 10.3294 9.06576 10.3555 9.23828 10.3555C9.45964 10.3555 9.65332 10.3132 9.81934 10.2285C9.98535 10.1439 10.1237 10.012 10.2344 9.83301C10.3483 9.65072 10.4329 9.41797 10.4883 9.13477C10.5436 8.84831 10.5713 8.50651 10.5713 8.10938ZM17.1045 6.87891V7.96289C17.1045 8.54557 17.0524 9.03711 16.9482 9.4375C16.8441 9.83789 16.6943 10.1602 16.499 10.4043C16.3037 10.6484 16.0677 10.8258 15.791 10.9365C15.5176 11.0439 15.2083 11.0977 14.8633 11.0977C14.5898 11.0977 14.3376 11.0635 14.1064 10.9951C13.8753 10.9268 13.667 10.8177 13.4814 10.668C13.2992 10.515 13.1429 10.3164 13.0127 10.0723C12.8825 9.82812 12.7832 9.5319 12.7148 9.18359C12.6465 8.83529 12.6123 8.42839 12.6123 7.96289V6.87891C12.6123 6.29622 12.6644 5.80794 12.7686 5.41406C12.876 5.02018 13.0273 4.70443 13.2227 4.4668C13.418 4.22591 13.6523 4.05339 13.9258 3.94922C14.2025 3.84505 14.5117 3.79297 14.8535 3.79297C15.1302 3.79297 15.3841 3.82715 15.6152 3.89551C15.8496 3.96061 16.0579 4.06641 16.2402 4.21289C16.4225 4.35612 16.5771 4.54818 16.7041 4.78906C16.8343 5.02669 16.9336 5.31803 17.002 5.66309C17.0703 6.00814 17.1045 6.41341 17.1045 6.87891ZM16.1963 8.10938V6.72754C16.1963 6.40853 16.1768 6.12858 16.1377 5.8877C16.1019 5.64355 16.0482 5.43522 15.9766 5.2627C15.9049 5.09017 15.8138 4.9502 15.7031 4.84277C15.5957 4.73535 15.4704 4.65723 15.3271 4.6084C15.1872 4.55632 15.0293 4.53027 14.8535 4.53027C14.6387 4.53027 14.4482 4.57096 14.2822 4.65234C14.1162 4.73047 13.9762 4.85579 13.8623 5.02832C13.7516 5.20085 13.667 5.42708 13.6084 5.70703C13.5498 5.98698 13.5205 6.32715 13.5205 6.72754V8.10938C13.5205 8.42839 13.5384 8.70996 13.5742 8.9541C13.6133 9.19824 13.6702 9.40983 13.7451 9.58887C13.82 9.76465 13.9111 9.90951 14.0186 10.0234C14.126 10.1374 14.2497 10.222 14.3896 10.2773C14.5329 10.3294 14.6908 10.3555 14.8633 10.3555C15.0846 10.3555 15.2783 10.3132 15.4443 10.2285C15.6104 10.1439 15.7487 10.012 15.8594 9.83301C15.9733 9.65072 16.0579 9.41797 16.1133 9.13477C16.1686 8.84831 16.1963 8.50651 16.1963 8.10938ZM18.1885 5.63379V5.25781C18.1885 4.98763 18.2471 4.74186 18.3643 4.52051C18.4814 4.29915 18.6491 4.12174 18.8672 3.98828C19.0853 3.85482 19.3441 3.78809 19.6436 3.78809C19.9495 3.78809 20.21 3.85482 20.4248 3.98828C20.6429 4.12174 20.8105 4.29915 20.9277 4.52051C21.0449 4.74186 21.1035 4.98763 21.1035 5.25781V5.63379C21.1035 5.89746 21.0449 6.13997 20.9277 6.36133C20.8138 6.58268 20.6478 6.76009 20.4297 6.89355C20.2148 7.02702 19.9561 7.09375 19.6533 7.09375C19.3506 7.09375 19.0885 7.02702 18.8672 6.89355C18.6491 6.76009 18.4814 6.58268 18.3643 6.36133C18.2471 6.13997 18.1885 5.89746 18.1885 5.63379ZM18.8672 5.25781V5.63379C18.8672 5.78353 18.8949 5.92513 18.9502 6.05859C19.0088 6.19206 19.0967 6.30111 19.2139 6.38574C19.3311 6.46712 19.4775 6.50781 19.6533 6.50781C19.8291 6.50781 19.974 6.46712 20.0879 6.38574C20.2018 6.30111 20.2865 6.19206 20.3418 6.05859C20.3971 5.92513 20.4248 5.78353 20.4248 5.63379V5.25781C20.4248 5.10482 20.3955 4.96159 20.3369 4.82812C20.2816 4.69141 20.1953 4.58236 20.0781 4.50098C19.9642 4.41634 19.8193 4.37402 19.6436 4.37402C19.471 4.37402 19.3262 4.41634 19.209 4.50098C19.0951 4.58236 19.0088 4.69141 18.9502 4.82812C18.8949 4.96159 18.8672 5.10482 18.8672 5.25781ZM21.6504 9.6377V9.25684C21.6504 8.98991 21.709 8.74577 21.8262 8.52441C21.9434 8.30306 22.111 8.12565 22.3291 7.99219C22.5472 7.85872 22.806 7.79199 23.1055 7.79199C23.4115 7.79199 23.6719 7.85872 23.8867 7.99219C24.1048 8.12565 24.2725 8.30306 24.3896 8.52441C24.5068 8.74577 24.5654 8.98991 24.5654 9.25684V9.6377C24.5654 9.90462 24.5068 10.1488 24.3896 10.3701C24.2757 10.5915 24.1097 10.7689 23.8916 10.9023C23.6768 11.0358 23.418 11.1025 23.1152 11.1025C22.8125 11.1025 22.5521 11.0358 22.334 10.9023C22.1159 10.7689 21.9466 10.5915 21.8262 10.3701C21.709 10.1488 21.6504 9.90462 21.6504 9.6377ZM22.3291 9.25684V9.6377C22.3291 9.78743 22.3568 9.93066 22.4121 10.0674C22.4707 10.2008 22.5586 10.3099 22.6758 10.3945C22.793 10.4759 22.9395 10.5166 23.1152 10.5166C23.291 10.5166 23.4359 10.4759 23.5498 10.3945C23.667 10.3099 23.7533 10.2008 23.8086 10.0674C23.8639 9.93392 23.8916 9.79069 23.8916 9.6377V9.25684C23.8916 9.10384 23.8623 8.96061 23.8037 8.82715C23.7484 8.69368 23.6621 8.58626 23.5449 8.50488C23.431 8.42025 23.2845 8.37793 23.1055 8.37793C22.9329 8.37793 22.7881 8.42025 22.6709 8.50488C22.557 8.58626 22.4707 8.69368 22.4121 8.82715C22.3568 8.96061 22.3291 9.10384 22.3291 9.25684ZM23.3301 4.90137L19.8584 10.458L19.3506 10.1357L22.8223 4.5791L23.3301 4.90137Z" fill="#2A2A2D"/>
<path d="M11.6113 31.8906V32.3984L8.66699 39H7.71484L10.6543 32.6328H6.80664V31.8906H11.6113ZM13.7842 35.6162L13.0615 35.4307L13.418 31.8906H17.0654V32.7256H14.1846L13.9697 34.6592C14.0999 34.5843 14.2643 34.5143 14.4629 34.4492C14.6647 34.3841 14.8958 34.3516 15.1562 34.3516C15.485 34.3516 15.7796 34.4085 16.04 34.5225C16.3005 34.6331 16.5218 34.7926 16.7041 35.001C16.8896 35.2093 17.0312 35.46 17.1289 35.7529C17.2266 36.0459 17.2754 36.373 17.2754 36.7344C17.2754 37.0762 17.2282 37.3903 17.1338 37.6768C17.0426 37.9632 16.9043 38.2139 16.7188 38.4287C16.5332 38.6403 16.2988 38.8047 16.0156 38.9219C15.7357 39.0391 15.4053 39.0977 15.0244 39.0977C14.738 39.0977 14.4661 39.0586 14.209 38.9805C13.9551 38.8991 13.7272 38.777 13.5254 38.6143C13.3268 38.4482 13.1641 38.2432 13.0371 37.999C12.9134 37.7516 12.8353 37.4619 12.8027 37.1299H13.6621C13.7012 37.3968 13.7793 37.6214 13.8965 37.8037C14.0137 37.986 14.1667 38.1243 14.3555 38.2188C14.5475 38.3099 14.7705 38.3555 15.0244 38.3555C15.2393 38.3555 15.4297 38.318 15.5957 38.2432C15.7617 38.1683 15.9017 38.0609 16.0156 37.9209C16.1296 37.7809 16.2158 37.6117 16.2744 37.4131C16.3363 37.2145 16.3672 36.9915 16.3672 36.7441C16.3672 36.5195 16.3363 36.3112 16.2744 36.1191C16.2126 35.9271 16.1198 35.7594 15.9961 35.6162C15.8757 35.473 15.7275 35.3623 15.5518 35.2842C15.376 35.2028 15.1742 35.1621 14.9463 35.1621C14.6436 35.1621 14.4141 35.2028 14.2578 35.2842C14.1048 35.3656 13.9469 35.4762 13.7842 35.6162ZM18.1885 33.6338V33.2578C18.1885 32.9876 18.2471 32.7419 18.3643 32.5205C18.4814 32.2992 18.6491 32.1217 18.8672 31.9883C19.0853 31.8548 19.3441 31.7881 19.6436 31.7881C19.9495 31.7881 20.21 31.8548 20.4248 31.9883C20.6429 32.1217 20.8105 32.2992 20.9277 32.5205C21.0449 32.7419 21.1035 32.9876 21.1035 33.2578V33.6338C21.1035 33.8975 21.0449 34.14 20.9277 34.3613C20.8138 34.5827 20.6478 34.7601 20.4297 34.8936C20.2148 35.027 19.9561 35.0938 19.6533 35.0938C19.3506 35.0938 19.0885 35.027 18.8672 34.8936C18.6491 34.7601 18.4814 34.5827 18.3643 34.3613C18.2471 34.14 18.1885 33.8975 18.1885 33.6338ZM18.8672 33.2578V33.6338C18.8672 33.7835 18.8949 33.9251 18.9502 34.0586C19.0088 34.1921 19.0967 34.3011 19.2139 34.3857C19.3311 34.4671 19.4775 34.5078 19.6533 34.5078C19.8291 34.5078 19.974 34.4671 20.0879 34.3857C20.2018 34.3011 20.2865 34.1921 20.3418 34.0586C20.3971 33.9251 20.4248 33.7835 20.4248 33.6338V33.2578C20.4248 33.1048 20.3955 32.9616 20.3369 32.8281C20.2816 32.6914 20.1953 32.5824 20.0781 32.501C19.9642 32.4163 19.8193 32.374 19.6436 32.374C19.471 32.374 19.3262 32.4163 19.209 32.501C19.0951 32.5824 19.0088 32.6914 18.9502 32.8281C18.8949 32.9616 18.8672 33.1048 18.8672 33.2578ZM21.6504 37.6377V37.2568C21.6504 36.9899 21.709 36.7458 21.8262 36.5244C21.9434 36.3031 22.111 36.1257 22.3291 35.9922C22.5472 35.8587 22.806 35.792 23.1055 35.792C23.4115 35.792 23.6719 35.8587 23.8867 35.9922C24.1048 36.1257 24.2725 36.3031 24.3896 36.5244C24.5068 36.7458 24.5654 36.9899 24.5654 37.2568V37.6377C24.5654 37.9046 24.5068 38.1488 24.3896 38.3701C24.2757 38.5915 24.1097 38.7689 23.8916 38.9023C23.6768 39.0358 23.418 39.1025 23.1152 39.1025C22.8125 39.1025 22.5521 39.0358 22.334 38.9023C22.1159 38.7689 21.9466 38.5915 21.8262 38.3701C21.709 38.1488 21.6504 37.9046 21.6504 37.6377ZM22.3291 37.2568V37.6377C22.3291 37.7874 22.3568 37.9307 22.4121 38.0674C22.4707 38.2008 22.5586 38.3099 22.6758 38.3945C22.793 38.4759 22.9395 38.5166 23.1152 38.5166C23.291 38.5166 23.4359 38.4759 23.5498 38.3945C23.667 38.3099 23.7533 38.2008 23.8086 38.0674C23.8639 37.9339 23.8916 37.7907 23.8916 37.6377V37.2568C23.8916 37.1038 23.8623 36.9606 23.8037 36.8271C23.7484 36.6937 23.6621 36.5863 23.5449 36.5049C23.431 36.4202 23.2845 36.3779 23.1055 36.3779C22.9329 36.3779 22.7881 36.4202 22.6709 36.5049C22.557 36.5863 22.4707 36.6937 22.4121 36.8271C22.3568 36.9606 22.3291 37.1038 22.3291 37.2568ZM23.3301 32.9014L19.8584 38.458L19.3506 38.1357L22.8223 32.5791L23.3301 32.9014Z" fill="#2A2A2D"/>
<path d="M8.15918 63.6162L7.43652 63.4307L7.79297 59.8906H11.4404V60.7256H8.55957L8.34473 62.6592C8.47493 62.5843 8.63932 62.5143 8.83789 62.4492C9.03971 62.3841 9.27083 62.3516 9.53125 62.3516C9.86003 62.3516 10.1546 62.4085 10.415 62.5225C10.6755 62.6331 10.8968 62.7926 11.0791 63.001C11.2646 63.2093 11.4062 63.46 11.5039 63.7529C11.6016 64.0459 11.6504 64.373 11.6504 64.7344C11.6504 65.0762 11.6032 65.3903 11.5088 65.6768C11.4176 65.9632 11.2793 66.2139 11.0938 66.4287C10.9082 66.6403 10.6738 66.8047 10.3906 66.9219C10.1107 67.0391 9.78027 67.0977 9.39941 67.0977C9.11296 67.0977 8.84115 67.0586 8.58398 66.9805C8.33008 66.8991 8.10221 66.777 7.90039 66.6143C7.70182 66.4482 7.53906 66.2432 7.41211 65.999C7.28841 65.7516 7.21029 65.4619 7.17773 65.1299H8.03711C8.07617 65.3968 8.1543 65.6214 8.27148 65.8037C8.38867 65.986 8.54167 66.1243 8.73047 66.2188C8.92253 66.3099 9.14551 66.3555 9.39941 66.3555C9.61426 66.3555 9.80469 66.318 9.9707 66.2432C10.1367 66.1683 10.2767 66.0609 10.3906 65.9209C10.5046 65.7809 10.5908 65.6117 10.6494 65.4131C10.7113 65.2145 10.7422 64.9915 10.7422 64.7441C10.7422 64.5195 10.7113 64.3112 10.6494 64.1191C10.5876 63.9271 10.4948 63.7594 10.3711 63.6162C10.2507 63.473 10.1025 63.3623 9.92676 63.2842C9.75098 63.2028 9.54915 63.1621 9.32129 63.1621C9.01855 63.1621 8.78906 63.2028 8.63281 63.2842C8.47982 63.3656 8.32194 63.4762 8.15918 63.6162ZM17.1045 62.8789V63.9629C17.1045 64.5456 17.0524 65.0371 16.9482 65.4375C16.8441 65.8379 16.6943 66.1602 16.499 66.4043C16.3037 66.6484 16.0677 66.8258 15.791 66.9365C15.5176 67.0439 15.2083 67.0977 14.8633 67.0977C14.5898 67.0977 14.3376 67.0635 14.1064 66.9951C13.8753 66.9268 13.667 66.8177 13.4814 66.668C13.2992 66.515 13.1429 66.3164 13.0127 66.0723C12.8825 65.8281 12.7832 65.5319 12.7148 65.1836C12.6465 64.8353 12.6123 64.4284 12.6123 63.9629V62.8789C12.6123 62.2962 12.6644 61.8079 12.7686 61.4141C12.876 61.0202 13.0273 60.7044 13.2227 60.4668C13.418 60.2259 13.6523 60.0534 13.9258 59.9492C14.2025 59.8451 14.5117 59.793 14.8535 59.793C15.1302 59.793 15.3841 59.8271 15.6152 59.8955C15.8496 59.9606 16.0579 60.0664 16.2402 60.2129C16.4225 60.3561 16.5771 60.5482 16.7041 60.7891C16.8343 61.0267 16.9336 61.318 17.002 61.6631C17.0703 62.0081 17.1045 62.4134 17.1045 62.8789ZM16.1963 64.1094V62.7275C16.1963 62.4085 16.1768 62.1286 16.1377 61.8877C16.1019 61.6436 16.0482 61.4352 15.9766 61.2627C15.9049 61.0902 15.8138 60.9502 15.7031 60.8428C15.5957 60.7354 15.4704 60.6572 15.3271 60.6084C15.1872 60.5563 15.0293 60.5303 14.8535 60.5303C14.6387 60.5303 14.4482 60.571 14.2822 60.6523C14.1162 60.7305 13.9762 60.8558 13.8623 61.0283C13.7516 61.2008 13.667 61.4271 13.6084 61.707C13.5498 61.987 13.5205 62.3271 13.5205 62.7275V64.1094C13.5205 64.4284 13.5384 64.71 13.5742 64.9541C13.6133 65.1982 13.6702 65.4098 13.7451 65.5889C13.82 65.7646 13.9111 65.9095 14.0186 66.0234C14.126 66.1374 14.2497 66.222 14.3896 66.2773C14.5329 66.3294 14.6908 66.3555 14.8633 66.3555C15.0846 66.3555 15.2783 66.3132 15.4443 66.2285C15.6104 66.1439 15.7487 66.012 15.8594 65.833C15.9733 65.6507 16.0579 65.418 16.1133 65.1348C16.1686 64.8483 16.1963 64.5065 16.1963 64.1094ZM18.1885 61.6338V61.2578C18.1885 60.9876 18.2471 60.7419 18.3643 60.5205C18.4814 60.2992 18.6491 60.1217 18.8672 59.9883C19.0853 59.8548 19.3441 59.7881 19.6436 59.7881C19.9495 59.7881 20.21 59.8548 20.4248 59.9883C20.6429 60.1217 20.8105 60.2992 20.9277 60.5205C21.0449 60.7419 21.1035 60.9876 21.1035 61.2578V61.6338C21.1035 61.8975 21.0449 62.14 20.9277 62.3613C20.8138 62.5827 20.6478 62.7601 20.4297 62.8936C20.2148 63.027 19.9561 63.0938 19.6533 63.0938C19.3506 63.0938 19.0885 63.027 18.8672 62.8936C18.6491 62.7601 18.4814 62.5827 18.3643 62.3613C18.2471 62.14 18.1885 61.8975 18.1885 61.6338ZM18.8672 61.2578V61.6338C18.8672 61.7835 18.8949 61.9251 18.9502 62.0586C19.0088 62.1921 19.0967 62.3011 19.2139 62.3857C19.3311 62.4671 19.4775 62.5078 19.6533 62.5078C19.8291 62.5078 19.974 62.4671 20.0879 62.3857C20.2018 62.3011 20.2865 62.1921 20.3418 62.0586C20.3971 61.9251 20.4248 61.7835 20.4248 61.6338V61.2578C20.4248 61.1048 20.3955 60.9616 20.3369 60.8281C20.2816 60.6914 20.1953 60.5824 20.0781 60.501C19.9642 60.4163 19.8193 60.374 19.6436 60.374C19.471 60.374 19.3262 60.4163 19.209 60.501C19.0951 60.5824 19.0088 60.6914 18.9502 60.8281C18.8949 60.9616 18.8672 61.1048 18.8672 61.2578ZM21.6504 65.6377V65.2568C21.6504 64.9899 21.709 64.7458 21.8262 64.5244C21.9434 64.3031 22.111 64.1257 22.3291 63.9922C22.5472 63.8587 22.806 63.792 23.1055 63.792C23.4115 63.792 23.6719 63.8587 23.8867 63.9922C24.1048 64.1257 24.2725 64.3031 24.3896 64.5244C24.5068 64.7458 24.5654 64.9899 24.5654 65.2568V65.6377C24.5654 65.9046 24.5068 66.1488 24.3896 66.3701C24.2757 66.5915 24.1097 66.7689 23.8916 66.9023C23.6768 67.0358 23.418 67.1025 23.1152 67.1025C22.8125 67.1025 22.5521 67.0358 22.334 66.9023C22.1159 66.7689 21.9466 66.5915 21.8262 66.3701C21.709 66.1488 21.6504 65.9046 21.6504 65.6377ZM22.3291 65.2568V65.6377C22.3291 65.7874 22.3568 65.9307 22.4121 66.0674C22.4707 66.2008 22.5586 66.3099 22.6758 66.3945C22.793 66.4759 22.9395 66.5166 23.1152 66.5166C23.291 66.5166 23.4359 66.4759 23.5498 66.3945C23.667 66.3099 23.7533 66.2008 23.8086 66.0674C23.8639 65.9339 23.8916 65.7907 23.8916 65.6377V65.2568C23.8916 65.1038 23.8623 64.9606 23.8037 64.8271C23.7484 64.6937 23.6621 64.5863 23.5449 64.5049C23.431 64.4202 23.2845 64.3779 23.1055 64.3779C22.9329 64.3779 22.7881 64.4202 22.6709 64.5049C22.557 64.5863 22.4707 64.6937 22.4121 64.8271C22.3568 64.9606 22.3291 65.1038 22.3291 65.2568ZM23.3301 60.9014L19.8584 66.458L19.3506 66.1357L22.8223 60.5791L23.3301 60.9014Z" fill="#2A2A2D"/>
<path d="M11.6748 94.2578V95H7.02148V94.3506L9.35059 91.7578C9.63704 91.4388 9.8584 91.1686 10.0146 90.9473C10.1742 90.7227 10.2848 90.5225 10.3467 90.3467C10.4118 90.1676 10.4443 89.9854 10.4443 89.7998C10.4443 89.5654 10.3955 89.3538 10.2979 89.165C10.2035 88.973 10.0635 88.82 9.87793 88.7061C9.69238 88.5921 9.46777 88.5352 9.2041 88.5352C8.88835 88.5352 8.62467 88.597 8.41309 88.7207C8.20475 88.8411 8.0485 89.0104 7.94434 89.2285C7.84017 89.4466 7.78809 89.6973 7.78809 89.9805H6.88477C6.88477 89.5801 6.97266 89.2139 7.14844 88.8818C7.32422 88.5498 7.58464 88.2861 7.92969 88.0908C8.27474 87.8923 8.69954 87.793 9.2041 87.793C9.65332 87.793 10.0374 87.8727 10.3564 88.0322C10.6755 88.1885 10.9196 88.4098 11.0889 88.6963C11.2614 88.9795 11.3477 89.3115 11.3477 89.6924C11.3477 89.9007 11.3118 90.1123 11.2402 90.3271C11.1719 90.5387 11.0758 90.7503 10.9521 90.9619C10.8317 91.1735 10.6901 91.3818 10.5273 91.5869C10.3678 91.792 10.1969 91.9938 10.0146 92.1924L8.11035 94.2578H11.6748ZM13.7842 91.6162L13.0615 91.4307L13.418 87.8906H17.0654V88.7256H14.1846L13.9697 90.6592C14.0999 90.5843 14.2643 90.5143 14.4629 90.4492C14.6647 90.3841 14.8958 90.3516 15.1562 90.3516C15.485 90.3516 15.7796 90.4085 16.04 90.5225C16.3005 90.6331 16.5218 90.7926 16.7041 91.001C16.8896 91.2093 17.0312 91.46 17.1289 91.7529C17.2266 92.0459 17.2754 92.373 17.2754 92.7344C17.2754 93.0762 17.2282 93.3903 17.1338 93.6768C17.0426 93.9632 16.9043 94.2139 16.7188 94.4287C16.5332 94.6403 16.2988 94.8047 16.0156 94.9219C15.7357 95.0391 15.4053 95.0977 15.0244 95.0977C14.738 95.0977 14.4661 95.0586 14.209 94.9805C13.9551 94.8991 13.7272 94.777 13.5254 94.6143C13.3268 94.4482 13.1641 94.2432 13.0371 93.999C12.9134 93.7516 12.8353 93.4619 12.8027 93.1299H13.6621C13.7012 93.3968 13.7793 93.6214 13.8965 93.8037C14.0137 93.986 14.1667 94.1243 14.3555 94.2188C14.5475 94.3099 14.7705 94.3555 15.0244 94.3555C15.2393 94.3555 15.4297 94.318 15.5957 94.2432C15.7617 94.1683 15.9017 94.0609 16.0156 93.9209C16.1296 93.7809 16.2158 93.6117 16.2744 93.4131C16.3363 93.2145 16.3672 92.9915 16.3672 92.7441C16.3672 92.5195 16.3363 92.3112 16.2744 92.1191C16.2126 91.9271 16.1198 91.7594 15.9961 91.6162C15.8757 91.473 15.7275 91.3623 15.5518 91.2842C15.376 91.2028 15.1742 91.1621 14.9463 91.1621C14.6436 91.1621 14.4141 91.2028 14.2578 91.2842C14.1048 91.3656 13.9469 91.4762 13.7842 91.6162ZM18.1885 89.6338V89.2578C18.1885 88.9876 18.2471 88.7419 18.3643 88.5205C18.4814 88.2992 18.6491 88.1217 18.8672 87.9883C19.0853 87.8548 19.3441 87.7881 19.6436 87.7881C19.9495 87.7881 20.21 87.8548 20.4248 87.9883C20.6429 88.1217 20.8105 88.2992 20.9277 88.5205C21.0449 88.7419 21.1035 88.9876 21.1035 89.2578V89.6338C21.1035 89.8975 21.0449 90.14 20.9277 90.3613C20.8138 90.5827 20.6478 90.7601 20.4297 90.8936C20.2148 91.027 19.9561 91.0938 19.6533 91.0938C19.3506 91.0938 19.0885 91.027 18.8672 90.8936C18.6491 90.7601 18.4814 90.5827 18.3643 90.3613C18.2471 90.14 18.1885 89.8975 18.1885 89.6338ZM18.8672 89.2578V89.6338C18.8672 89.7835 18.8949 89.9251 18.9502 90.0586C19.0088 90.1921 19.0967 90.3011 19.2139 90.3857C19.3311 90.4671 19.4775 90.5078 19.6533 90.5078C19.8291 90.5078 19.974 90.4671 20.0879 90.3857C20.2018 90.3011 20.2865 90.1921 20.3418 90.0586C20.3971 89.9251 20.4248 89.7835 20.4248 89.6338V89.2578C20.4248 89.1048 20.3955 88.9616 20.3369 88.8281C20.2816 88.6914 20.1953 88.5824 20.0781 88.501C19.9642 88.4163 19.8193 88.374 19.6436 88.374C19.471 88.374 19.3262 88.4163 19.209 88.501C19.0951 88.5824 19.0088 88.6914 18.9502 88.8281C18.8949 88.9616 18.8672 89.1048 18.8672 89.2578ZM21.6504 93.6377V93.2568C21.6504 92.9899 21.709 92.7458 21.8262 92.5244C21.9434 92.3031 22.111 92.1257 22.3291 91.9922C22.5472 91.8587 22.806 91.792 23.1055 91.792C23.4115 91.792 23.6719 91.8587 23.8867 91.9922C24.1048 92.1257 24.2725 92.3031 24.3896 92.5244C24.5068 92.7458 24.5654 92.9899 24.5654 93.2568V93.6377C24.5654 93.9046 24.5068 94.1488 24.3896 94.3701C24.2757 94.5915 24.1097 94.7689 23.8916 94.9023C23.6768 95.0358 23.418 95.1025 23.1152 95.1025C22.8125 95.1025 22.5521 95.0358 22.334 94.9023C22.1159 94.7689 21.9466 94.5915 21.8262 94.3701C21.709 94.1488 21.6504 93.9046 21.6504 93.6377ZM22.3291 93.2568V93.6377C22.3291 93.7874 22.3568 93.9307 22.4121 94.0674C22.4707 94.2008 22.5586 94.3099 22.6758 94.3945C22.793 94.4759 22.9395 94.5166 23.1152 94.5166C23.291 94.5166 23.4359 94.4759 23.5498 94.3945C23.667 94.3099 23.7533 94.2008 23.8086 94.0674C23.8639 93.9339 23.8916 93.7907 23.8916 93.6377V93.2568C23.8916 93.1038 23.8623 92.9606 23.8037 92.8271C23.7484 92.6937 23.6621 92.5863 23.5449 92.5049C23.431 92.4202 23.2845 92.3779 23.1055 92.3779C22.9329 92.3779 22.7881 92.4202 22.6709 92.5049C22.557 92.5863 22.4707 92.6937 22.4121 92.8271C22.3568 92.9606 22.3291 93.1038 22.3291 93.2568ZM23.3301 88.9014L19.8584 94.458L19.3506 94.1357L22.8223 88.5791L23.3301 88.9014Z" fill="#2A2A2D"/>
<path d="M17.1045 118.879V119.963C17.1045 120.546 17.0524 121.037 16.9482 121.438C16.8441 121.838 16.6943 122.16 16.499 122.404C16.3037 122.648 16.0677 122.826 15.791 122.937C15.5176 123.044 15.2083 123.098 14.8633 123.098C14.5898 123.098 14.3376 123.063 14.1064 122.995C13.8753 122.927 13.667 122.818 13.4814 122.668C13.2992 122.515 13.1429 122.316 13.0127 122.072C12.8825 121.828 12.7832 121.532 12.7148 121.184C12.6465 120.835 12.6123 120.428 12.6123 119.963V118.879C12.6123 118.296 12.6644 117.808 12.7686 117.414C12.876 117.02 13.0273 116.704 13.2227 116.467C13.418 116.226 13.6523 116.053 13.9258 115.949C14.2025 115.845 14.5117 115.793 14.8535 115.793C15.1302 115.793 15.3841 115.827 15.6152 115.896C15.8496 115.961 16.0579 116.066 16.2402 116.213C16.4225 116.356 16.5771 116.548 16.7041 116.789C16.8343 117.027 16.9336 117.318 17.002 117.663C17.0703 118.008 17.1045 118.413 17.1045 118.879ZM16.1963 120.109V118.728C16.1963 118.409 16.1768 118.129 16.1377 117.888C16.1019 117.644 16.0482 117.435 15.9766 117.263C15.9049 117.09 15.8138 116.95 15.7031 116.843C15.5957 116.735 15.4704 116.657 15.3271 116.608C15.1872 116.556 15.0293 116.53 14.8535 116.53C14.6387 116.53 14.4482 116.571 14.2822 116.652C14.1162 116.73 13.9762 116.856 13.8623 117.028C13.7516 117.201 13.667 117.427 13.6084 117.707C13.5498 117.987 13.5205 118.327 13.5205 118.728V120.109C13.5205 120.428 13.5384 120.71 13.5742 120.954C13.6133 121.198 13.6702 121.41 13.7451 121.589C13.82 121.765 13.9111 121.91 14.0186 122.023C14.126 122.137 14.2497 122.222 14.3896 122.277C14.5329 122.329 14.6908 122.355 14.8633 122.355C15.0846 122.355 15.2783 122.313 15.4443 122.229C15.6104 122.144 15.7487 122.012 15.8594 121.833C15.9733 121.651 16.0579 121.418 16.1133 121.135C16.1686 120.848 16.1963 120.507 16.1963 120.109ZM18.1885 117.634V117.258C18.1885 116.988 18.2471 116.742 18.3643 116.521C18.4814 116.299 18.6491 116.122 18.8672 115.988C19.0853 115.855 19.3441 115.788 19.6436 115.788C19.9495 115.788 20.21 115.855 20.4248 115.988C20.6429 116.122 20.8105 116.299 20.9277 116.521C21.0449 116.742 21.1035 116.988 21.1035 117.258V117.634C21.1035 117.897 21.0449 118.14 20.9277 118.361C20.8138 118.583 20.6478 118.76 20.4297 118.894C20.2148 119.027 19.9561 119.094 19.6533 119.094C19.3506 119.094 19.0885 119.027 18.8672 118.894C18.6491 118.76 18.4814 118.583 18.3643 118.361C18.2471 118.14 18.1885 117.897 18.1885 117.634ZM18.8672 117.258V117.634C18.8672 117.784 18.8949 117.925 18.9502 118.059C19.0088 118.192 19.0967 118.301 19.2139 118.386C19.3311 118.467 19.4775 118.508 19.6533 118.508C19.8291 118.508 19.974 118.467 20.0879 118.386C20.2018 118.301 20.2865 118.192 20.3418 118.059C20.3971 117.925 20.4248 117.784 20.4248 117.634V117.258C20.4248 117.105 20.3955 116.962 20.3369 116.828C20.2816 116.691 20.1953 116.582 20.0781 116.501C19.9642 116.416 19.8193 116.374 19.6436 116.374C19.471 116.374 19.3262 116.416 19.209 116.501C19.0951 116.582 19.0088 116.691 18.9502 116.828C18.8949 116.962 18.8672 117.105 18.8672 117.258ZM21.6504 121.638V121.257C21.6504 120.99 21.709 120.746 21.8262 120.524C21.9434 120.303 22.111 120.126 22.3291 119.992C22.5472 119.859 22.806 119.792 23.1055 119.792C23.4115 119.792 23.6719 119.859 23.8867 119.992C24.1048 120.126 24.2725 120.303 24.3896 120.524C24.5068 120.746 24.5654 120.99 24.5654 121.257V121.638C24.5654 121.905 24.5068 122.149 24.3896 122.37C24.2757 122.591 24.1097 122.769 23.8916 122.902C23.6768 123.036 23.418 123.103 23.1152 123.103C22.8125 123.103 22.5521 123.036 22.334 122.902C22.1159 122.769 21.9466 122.591 21.8262 122.37C21.709 122.149 21.6504 121.905 21.6504 121.638ZM22.3291 121.257V121.638C22.3291 121.787 22.3568 121.931 22.4121 122.067C22.4707 122.201 22.5586 122.31 22.6758 122.395C22.793 122.476 22.9395 122.517 23.1152 122.517C23.291 122.517 23.4359 122.476 23.5498 122.395C23.667 122.31 23.7533 122.201 23.8086 122.067C23.8639 121.934 23.8916 121.791 23.8916 121.638V121.257C23.8916 121.104 23.8623 120.961 23.8037 120.827C23.7484 120.694 23.6621 120.586 23.5449 120.505C23.431 120.42 23.2845 120.378 23.1055 120.378C22.9329 120.378 22.7881 120.42 22.6709 120.505C22.557 120.586 22.4707 120.694 22.4121 120.827C22.3568 120.961 22.3291 121.104 22.3291 121.257ZM23.3301 116.901L19.8584 122.458L19.3506 122.136L22.8223 116.579L23.3301 116.901Z" fill="#2A2A2D"/>
</svg>
