<svg width="40" height="40" viewBox="0 0 40 40" fill="none" xmlns="http://www.w3.org/2000/svg">
<rect width="40" height="40" rx="4" fill="#ECEEFB"/>
<path d="M26.2495 16.2491L25.0078 17.4908L22.5078 14.9908L23.7495 13.7491C24.0995 13.3991 24.5495 13.2324 24.9995 13.2324C25.4495 13.2324 25.8995 13.3991 26.2495 13.7491C26.9411 14.4408 26.9411 15.5574 26.2495 16.2491Z" fill="#58595E"/>
<path d="M24.4255 18.084L15.4172 27.084C14.7255 27.7757 13.6089 27.7757 12.9172 27.084C12.2255 26.3923 12.2255 25.2757 12.9172 24.584L21.9255 15.584L24.4255 18.084Z" fill="#58595E"/>
<path d="M18.2908 12.9164L18.6325 11.7581C18.6658 11.6498 18.6325 11.5331 18.5575 11.4498C18.4825 11.3664 18.3491 11.3331 18.2408 11.3664L17.0825 11.7081L15.9241 11.3664C15.8158 11.3331 15.6991 11.3664 15.6158 11.4414C15.5325 11.5248 15.5075 11.6414 15.5408 11.7498L15.8741 12.9164L15.5325 14.0748C15.4991 14.1831 15.5325 14.2998 15.6075 14.3831C15.6908 14.4664 15.8075 14.4914 15.9158 14.4581L17.0825 14.1248L18.2408 14.4664C18.2741 14.4748 18.2991 14.4831 18.3325 14.4831C18.4158 14.4831 18.4908 14.4498 18.5575 14.3914C18.6408 14.3081 18.6658 14.1914 18.6325 14.0831L18.2908 12.9164Z" fill="#58595E"/>
<path d="M14.9588 17.9164L15.3004 16.7581C15.3338 16.6498 15.3004 16.5331 15.2254 16.4498C15.1421 16.3664 15.0254 16.3414 14.9171 16.3748L13.7504 16.7081L12.5921 16.3664C12.4838 16.3331 12.3671 16.3664 12.2838 16.4414C12.2004 16.5248 12.1754 16.6414 12.2088 16.7498L12.5421 17.9164L12.2004 19.0748C12.1671 19.1831 12.2004 19.2998 12.2754 19.3831C12.3588 19.4664 12.4754 19.4914 12.5838 19.4581L13.7421 19.1164L14.9004 19.4581C14.9254 19.4664 14.9588 19.4664 14.9921 19.4664C15.0754 19.4664 15.1504 19.4331 15.2171 19.3748C15.3004 19.2914 15.3254 19.1748 15.2921 19.0664L14.9588 17.9164Z" fill="#58595E"/>
<path d="M27.4591 22.0833L27.8007 20.925C27.8341 20.8166 27.8007 20.7 27.7257 20.6166C27.6424 20.5333 27.5257 20.5083 27.4174 20.5416L26.2591 20.8833L25.1007 20.5416C24.9924 20.5083 24.8757 20.5416 24.7924 20.6166C24.7091 20.7 24.6841 20.8166 24.7174 20.925L25.0591 22.0833L24.7174 23.2416C24.6841 23.35 24.7174 23.4666 24.7924 23.55C24.8757 23.6333 24.9924 23.6583 25.1007 23.625L26.2591 23.2833L27.4174 23.625C27.4424 23.6333 27.4757 23.6333 27.5091 23.6333C27.5924 23.6333 27.6674 23.6 27.7341 23.5416C27.8174 23.4583 27.8424 23.3416 27.8091 23.2333L27.4591 22.0833Z" fill="#58595E"/>
</svg>
